<?xml version="1.0" encoding="UTF-8" standalone="no"?><!DOCTYPE svg PUBLIC "-//W3C//DTD SVG 1.1//EN" "http://www.w3.org/Graphics/SVG/1.1/DTD/svg11.dtd"><svg width="100%" height="100%" viewBox="0 0 300 300" version="1.1" xmlns="http://www.w3.org/2000/svg" xmlns:xlink="http://www.w3.org/1999/xlink" xml:space="preserve" xmlns:serif="http://www.serif.com/" style="fill-rule:evenodd;clip-rule:evenodd;stroke-linejoin:round;stroke-miterlimit:2;"><g><g id="Background"><g><path d="M300,30.271c0,-16.707 -13.564,-30.271 -30.271,-30.271l-239.458,0c-16.707,0 -30.271,13.564 -30.271,30.271l0,239.458c0,16.707 13.564,30.271 30.271,30.271l239.458,0c16.707,0 30.271,-13.564 30.271,-30.271l0,-239.458Z" style="fill:#fffefe;"/><path d="M300,30.271c0,-16.707 -13.564,-30.271 -30.271,-30.271l-239.458,0c-16.707,0 -30.271,13.564 -30.271,30.271l0,239.458c0,16.707 13.564,30.271 30.271,30.271l239.458,0c16.707,0 30.271,-13.564 30.271,-30.271l0,-239.458Zm-16,-0l0,239.458c0,7.877 -6.394,14.271 -14.271,14.271l-239.458,0c-7.877,0 -14.271,-6.394 -14.271,-14.271l0,-239.458c0,-7.877 6.394,-14.271 14.271,-14.271l239.458,0c7.877,0 14.271,6.394 14.271,14.271Z" style="fill:#4d4d4d;"/></g></g><g><path d="M241.138,131.01l-29.669,0c-3.93,30.435 -29.971,53.981 -61.469,53.981c-31.498,0 -57.539,-23.546 -61.469,-53.981l-29.669,0l0,-16l182.276,0l0,16Z" style="fill:#fff;"/><path d="M241.138,131.01l-29.669,0l-0.048,0.356l-0.049,0.356l-0.051,0.355l-0.053,0.354l-0.055,0.354l-0.057,0.353l-0.059,0.352l-0.061,0.352l-0.063,0.351l-0.065,0.351l-0.067,0.349l-0.069,0.349l-0.071,0.349l-0.073,0.347l-0.075,0.347l-0.076,0.346l-0.079,0.346l-0.08,0.344l-0.083,0.344l-0.084,0.344l-0.087,0.342l-0.088,0.342l-0.09,0.341l-0.092,0.34l-0.094,0.339l-0.095,0.339l-0.098,0.338l-0.1,0.337l-0.101,0.336l-0.103,0.336l-0.105,0.334l-0.107,0.334l-0.109,0.333l-0.11,0.332l-0.112,0.332l-0.115,0.33l-0.116,0.33l-0.117,0.329l-0.12,0.328l-0.121,0.327l-0.123,0.326l-0.125,0.326l-0.127,0.324l-0.129,0.324l-0.13,0.322l-0.132,0.322l-0.134,0.321l-0.135,0.32l-0.137,0.319l-0.139,0.318l-0.141,0.317l-0.142,0.317l-0.144,0.315l-0.146,0.314l-0.148,0.314l-0.149,0.312l-0.151,0.312l-0.153,0.31l-0.154,0.31l-0.156,0.309l-0.157,0.307l-0.16,0.307l-0.161,0.305l-0.162,0.305l-0.164,0.304l-0.166,0.302l-0.168,0.302l-0.169,0.3l-0.171,0.3l-0.172,0.298l-0.174,0.297l-0.176,0.297l-0.177,0.295l-0.178,0.294l-0.181,0.293l-0.182,0.293l-0.183,0.291l-0.185,0.289l-0.187,0.289l-0.188,0.288l-0.19,0.286l-0.191,0.286l-0.193,0.284l-0.194,0.284l-0.196,0.282l-0.197,0.281l-0.199,0.279l-0.201,0.279l-0.201,0.278l-0.204,0.276l-0.205,0.275l-0.206,0.274l-0.208,0.273l-0.209,0.272l-0.211,0.27l-0.212,0.269l-0.214,0.268l-0.215,0.267l-0.216,0.266l-0.218,0.264l-0.22,0.264l-0.221,0.261l-0.222,0.261l-0.224,0.26l-0.225,0.258l-0.226,0.257l-0.228,0.256l-0.229,0.254l-0.231,0.253l-0.232,0.252l-0.233,0.251l-0.235,0.249l-0.236,0.248l-0.238,0.247l-0.238,0.245l-0.241,0.244l-0.241,0.243l-0.243,0.241l-0.244,0.24l-0.245,0.239l-0.247,0.238l-0.248,0.236l-0.5,0.468l-0.252,0.232l-0.253,0.23l-0.255,0.229l-0.256,0.228l-0.257,0.227l-0.258,0.225l-0.259,0.223l-0.261,0.223l-0.262,0.22l-0.263,0.22l-0.265,0.218l-0.265,0.216l-0.267,0.215l-0.268,0.214l-0.27,0.212l-0.27,0.211l-0.272,0.209l-0.273,0.208l-0.274,0.206l-0.275,0.205l-0.276,0.203l-0.278,0.202l-0.279,0.2l-0.28,0.199l-0.281,0.198l-0.282,0.195l-0.283,0.195l-0.284,0.192l-0.286,0.192l-0.286,0.189l-0.288,0.188l-0.289,0.187l-0.29,0.185l-0.291,0.183l-0.292,0.182l-0.293,0.181l-0.294,0.178l-0.296,0.177l-0.296,0.176l-0.298,0.174l-0.298,0.172l-0.3,0.171l-0.3,0.169l-0.302,0.167l-0.302,0.166l-0.304,0.164l-0.305,0.163l-0.305,0.161l-0.307,0.159l-0.307,0.158l-0.309,0.156l-0.31,0.154l-0.31,0.152l-0.312,0.151l-0.312,0.149l-0.314,0.148l-0.314,0.146l-0.316,0.144l-0.316,0.142l-0.317,0.141l-0.318,0.139l-0.319,0.137l-0.32,0.135l-0.321,0.134l-0.322,0.132l-0.323,0.13l-0.323,0.128l-0.325,0.127l-0.325,0.125l-0.327,0.123l-0.327,0.121l-0.328,0.12l-0.329,0.118l-0.329,0.115l-0.331,0.115l-0.331,0.112l-0.332,0.11l-0.333,0.109l-0.334,0.107l-0.335,0.105l-0.336,0.103l-0.336,0.101l-0.337,0.1l-0.338,0.097l-0.338,0.096l-0.34,0.094l-0.34,0.091l-0.341,0.09l-0.342,0.089l-0.342,0.086l-0.344,0.084l-0.344,0.083l-0.344,0.08l-0.346,0.079l-0.346,0.076l-0.347,0.075l-0.348,0.073l-0.348,0.071l-0.349,0.069l-0.35,0.066l-0.35,0.065l-0.351,0.063l-0.352,0.061l-0.352,0.059l-0.354,0.057l-0.353,0.055l-0.355,0.053l-0.355,0.052l-0.356,0.049l-0.356,0.047l-0.357,0.044l-0.358,0.043l-0.358,0.041l-0.359,0.039l-0.359,0.037l-0.36,0.035l-0.361,0.032l-0.361,0.031l-0.362,0.029l-0.362,0.026l-0.363,0.025l-0.364,0.022l-0.364,0.02l-0.365,0.018l-0.365,0.016l-0.366,0.014l-0.366,0.012l-0.367,0.009l-0.367,0.008l-0.368,0.005l-0.368,0.004l-0.369,0.001l-0.369,-0.001l-0.368,-0.004l-0.368,-0.005l-0.367,-0.008l-0.367,-0.009l-0.366,-0.012l-0.366,-0.014l-0.365,-0.016l-0.365,-0.018l-0.364,-0.02l-0.364,-0.022l-0.363,-0.025l-0.362,-0.026l-0.362,-0.029l-0.361,-0.031l-0.361,-0.032l-0.36,-0.035l-0.359,-0.037l-0.359,-0.039l-0.358,-0.041l-0.358,-0.043l-0.357,-0.044l-0.356,-0.047l-0.356,-0.049l-0.355,-0.052l-0.355,-0.053l-0.353,-0.055l-0.354,-0.057l-0.352,-0.059l-0.352,-0.061l-0.351,-0.063l-0.35,-0.065l-0.35,-0.066l-0.349,-0.069l-0.348,-0.071l-0.348,-0.073l-0.347,-0.075l-0.346,-0.076l-0.346,-0.079l-0.344,-0.08l-0.344,-0.083l-0.344,-0.084l-0.342,-0.086l-0.342,-0.089l-0.341,-0.09l-0.34,-0.091l-0.34,-0.094l-0.338,-0.096l-0.338,-0.097l-0.337,-0.1l-0.336,-0.101l-0.336,-0.103l-0.335,-0.105l-0.334,-0.107l-0.333,-0.109l-0.332,-0.11l-0.331,-0.112l-0.331,-0.115l-0.329,-0.115l-0.329,-0.118l-0.328,-0.12l-0.327,-0.121l-0.327,-0.123l-0.325,-0.125l-0.325,-0.127l-0.323,-0.128l-0.323,-0.13l-0.322,-0.132l-0.321,-0.134l-0.32,-0.135l-0.319,-0.137l-0.318,-0.139l-0.317,-0.141l-0.316,-0.142l-0.316,-0.144l-0.314,-0.146l-0.314,-0.148l-0.312,-0.149l-0.312,-0.151l-0.31,-0.152l-0.31,-0.154l-0.309,-0.156l-0.307,-0.158l-0.307,-0.159l-0.305,-0.161l-0.305,-0.163l-0.304,-0.164l-0.302,-0.166l-0.302,-0.167l-0.3,-0.169l-0.3,-0.171l-0.298,-0.172l-0.298,-0.174l-0.296,-0.176l-0.296,-0.177l-0.294,-0.178l-0.293,-0.181l-0.292,-0.182l-0.291,-0.183l-0.29,-0.185l-0.289,-0.187l-0.288,-0.188l-0.286,-0.189l-0.286,-0.192l-0.284,-0.192l-0.283,-0.195l-0.282,-0.195l-0.281,-0.198l-0.28,-0.199l-0.279,-0.2l-0.278,-0.202l-0.276,-0.203l-0.275,-0.205l-0.274,-0.206l-0.273,-0.208l-0.272,-0.209l-0.27,-0.211l-0.27,-0.212l-0.268,-0.214l-0.267,-0.215l-0.265,-0.216l-0.265,-0.218l-0.263,-0.22l-0.262,-0.22l-0.261,-0.223l-0.259,-0.223l-0.258,-0.225l-0.257,-0.227l-0.256,-0.228l-0.255,-0.229l-0.253,-0.23l-0.252,-0.232l-0.5,-0.468l-0.248,-0.236l-0.247,-0.238l-0.245,-0.239l-0.244,-0.24l-0.243,-0.241l-0.241,-0.243l-0.241,-0.244l-0.238,-0.245l-0.238,-0.247l-0.236,-0.248l-0.235,-0.249l-0.233,-0.251l-0.232,-0.252l-0.231,-0.253l-0.229,-0.254l-0.228,-0.256l-0.226,-0.257l-0.225,-0.258l-0.224,-0.26l-0.222,-0.261l-0.221,-0.261l-0.22,-0.264l-0.218,-0.264l-0.216,-0.266l-0.215,-0.267l-0.214,-0.268l-0.212,-0.269l-0.211,-0.27l-0.209,-0.272l-0.208,-0.273l-0.206,-0.274l-0.205,-0.275l-0.204,-0.276l-0.201,-0.278l-0.201,-0.279l-0.199,-0.279l-0.197,-0.281l-0.196,-0.282l-0.194,-0.284l-0.193,-0.284l-0.191,-0.286l-0.19,-0.286l-0.188,-0.288l-0.187,-0.289l-0.185,-0.289l-0.183,-0.291l-0.182,-0.293l-0.181,-0.293l-0.178,-0.294l-0.177,-0.295l-0.176,-0.297l-0.174,-0.297l-0.172,-0.298l-0.171,-0.3l-0.169,-0.3l-0.168,-0.302l-0.166,-0.302l-0.164,-0.304l-0.162,-0.305l-0.161,-0.305l-0.16,-0.307l-0.157,-0.307l-0.156,-0.309l-0.154,-0.31l-0.153,-0.31l-0.151,-0.312l-0.149,-0.312l-0.148,-0.314l-0.146,-0.314l-0.144,-0.315l-0.142,-0.317l-0.141,-0.317l-0.139,-0.318l-0.137,-0.319l-0.135,-0.32l-0.134,-0.321l-0.132,-0.322l-0.13,-0.322l-0.129,-0.324l-0.127,-0.324l-0.125,-0.326l-0.123,-0.326l-0.121,-0.327l-0.12,-0.328l-0.117,-0.329l-0.116,-0.33l-0.115,-0.33l-0.112,-0.332l-0.11,-0.332l-0.109,-0.333l-0.107,-0.334l-0.105,-0.334l-0.103,-0.336l-0.101,-0.336l-0.1,-0.337l-0.098,-0.338l-0.095,-0.339l-0.094,-0.339l-0.092,-0.34l-0.09,-0.341l-0.088,-0.342l-0.087,-0.342l-0.084,-0.344l-0.083,-0.344l-0.08,-0.344l-0.079,-0.346l-0.076,-0.346l-0.075,-0.347l-0.073,-0.347l-0.071,-0.349l-0.069,-0.349l-0.067,-0.349l-0.065,-0.351l-0.063,-0.351l-0.061,-0.352l-0.059,-0.352l-0.057,-0.353l-0.055,-0.354l-0.053,-0.354l-0.051,-0.355l-0.049,-0.356l-0.048,-0.356l-29.669,0l0,-16l182.276,0l0,16Zm-136.426,0l0.008,0.05l0.047,0.26l0.048,0.26l0.05,0.258l0.051,0.259l0.052,0.258l0.054,0.257l0.056,0.257l0.056,0.256l0.059,0.255l0.059,0.256l0.061,0.254l0.063,0.254l0.063,0.253l0.066,0.253l0.066,0.252l0.068,0.252l0.07,0.251l0.071,0.25l0.072,0.25l0.073,0.25l0.075,0.248l0.077,0.249l0.077,0.247l0.079,0.247l0.081,0.246l0.082,0.246l0.083,0.245l0.084,0.245l0.086,0.244l0.087,0.243l0.088,0.243l0.09,0.242l0.091,0.241l0.093,0.241l0.094,0.24l0.095,0.239l0.096,0.239l0.098,0.238l0.099,0.238l0.1,0.237l0.102,0.236l0.103,0.236l0.104,0.235l0.105,0.234l0.107,0.233l0.108,0.233l0.109,0.232l0.111,0.232l0.112,0.23l0.113,0.231l0.114,0.229l0.116,0.229l0.116,0.228l0.118,0.227l0.12,0.227l0.12,0.225l0.122,0.225l0.123,0.225l0.124,0.223l0.126,0.223l0.126,0.222l0.128,0.222l0.129,0.22l0.13,0.22l0.132,0.219l0.133,0.219l0.133,0.217l0.135,0.217l0.137,0.216l0.137,0.215l0.138,0.214l0.14,0.214l0.141,0.213l0.142,0.212l0.143,0.211l0.145,0.211l0.145,0.209l0.146,0.208l0.148,0.208l0.149,0.207l0.15,0.207l0.151,0.205l0.152,0.204l0.154,0.204l0.154,0.203l0.156,0.202l0.156,0.2l0.158,0.201l0.159,0.199l0.16,0.198l0.161,0.198l0.162,0.197l0.163,0.195l0.164,0.195l0.165,0.194l0.167,0.193l0.167,0.192l0.169,0.191l0.169,0.19l0.342,0.378l0.173,0.187l0.173,0.186l0.175,0.186l0.175,0.184l0.177,0.184l0.356,0.364l0.36,0.36l0.182,0.178l0.183,0.178l0.183,0.176l0.184,0.176l0.186,0.175l0.374,0.346l0.188,0.171l0.189,0.171l0.19,0.169l0.384,0.336l0.193,0.166l0.388,0.33l0.196,0.163l0.197,0.162l0.197,0.16l0.198,0.16l0.2,0.159l0.2,0.158l0.201,0.157l0.202,0.155l0.203,0.154l0.204,0.154l0.204,0.152l0.205,0.151l0.207,0.15l0.207,0.149l0.208,0.148l0.208,0.146l0.209,0.145l0.211,0.145l0.211,0.143l0.212,0.142l0.213,0.141l0.428,0.278l0.215,0.137l0.217,0.137l0.216,0.134l0.217,0.134l0.219,0.133l0.219,0.131l0.22,0.13l0.221,0.129l0.221,0.128l0.222,0.127l0.223,0.125l0.224,0.124l0.224,0.123l0.225,0.122l0.226,0.12l0.227,0.12l0.227,0.118l0.456,0.232l0.46,0.228l0.462,0.222l0.233,0.109l0.232,0.108l0.234,0.107l0.234,0.105l0.235,0.104l0.235,0.103l0.237,0.102l0.237,0.1l0.237,0.099l0.239,0.098l0.238,0.096l0.24,0.095l0.24,0.094l0.241,0.092l0.241,0.091l0.242,0.09l0.243,0.088l0.243,0.087l0.245,0.086l0.244,0.085l0.245,0.083l0.492,0.162l0.247,0.079l0.247,0.077l0.249,0.077l0.249,0.075l0.249,0.073l0.25,0.072l0.25,0.071l0.251,0.069l0.252,0.068l0.252,0.067l0.253,0.065l0.253,0.064l0.254,0.062l0.255,0.061l0.255,0.06l0.256,0.058l0.256,0.057l0.256,0.055l0.258,0.054l0.258,0.052l0.258,0.051l0.259,0.05l0.26,0.048l0.259,0.047l0.261,0.045l0.261,0.043l0.262,0.043l0.262,0.04l0.263,0.04l0.263,0.038l0.263,0.036l0.265,0.035l0.265,0.033l0.265,0.032l0.266,0.03l0.266,0.029l0.267,0.028l0.267,0.025l0.268,0.025l0.268,0.022l0.269,0.022l0.27,0.019l0.27,0.018l0.27,0.017l0.271,0.015l0.272,0.014l0.271,0.011l0.273,0.011l0.273,0.009l0.273,0.007l0.274,0.005l0.275,0.004l0.274,0.003l0.276,0.001l0.276,-0.001l0.274,-0.003l0.275,-0.004l0.274,-0.005l0.273,-0.007l0.273,-0.009l0.273,-0.011l0.271,-0.011l0.272,-0.014l0.271,-0.015l0.27,-0.017l0.27,-0.018l0.27,-0.019l0.269,-0.022l0.268,-0.022l0.268,-0.025l0.267,-0.025l0.267,-0.028l0.266,-0.029l0.266,-0.03l0.265,-0.032l0.265,-0.033l0.265,-0.035l0.263,-0.036l0.263,-0.038l0.263,-0.04l0.262,-0.04l0.262,-0.043l0.261,-0.043l0.261,-0.045l0.259,-0.047l0.26,-0.048l0.259,-0.05l0.258,-0.051l0.258,-0.052l0.258,-0.054l0.256,-0.055l0.256,-0.057l0.256,-0.058l0.255,-0.06l0.255,-0.061l0.254,-0.062l0.253,-0.064l0.253,-0.065l0.252,-0.067l0.252,-0.068l0.251,-0.069l0.25,-0.071l0.25,-0.072l0.249,-0.073l0.249,-0.075l0.249,-0.077l0.247,-0.077l0.247,-0.079l0.492,-0.162l0.245,-0.083l0.245,-0.085l0.244,-0.086l0.243,-0.087l0.243,-0.088l0.242,-0.09l0.241,-0.091l0.241,-0.092l0.24,-0.094l0.239,-0.095l0.239,-0.096l0.239,-0.098l0.237,-0.099l0.237,-0.1l0.237,-0.102l0.235,-0.103l0.235,-0.104l0.468,-0.212l0.232,-0.108l0.233,-0.109l0.462,-0.222l0.23,-0.113l0.23,-0.115l0.456,-0.232l0.228,-0.118l0.452,-0.24l0.225,-0.122l0.224,-0.123l0.224,-0.124l0.223,-0.125l0.222,-0.127l0.222,-0.128l0.22,-0.128l0.22,-0.131l0.219,-0.131l0.219,-0.133l0.217,-0.134l0.216,-0.134l0.432,-0.274l0.428,-0.278l0.213,-0.141l0.211,-0.142l0.212,-0.143l0.211,-0.145l0.209,-0.145l0.208,-0.146l0.208,-0.148l0.207,-0.149l0.207,-0.15l0.205,-0.151l0.204,-0.152l0.204,-0.154l0.203,-0.154l0.202,-0.155l0.201,-0.157l0.2,-0.158l0.2,-0.159l0.198,-0.159l0.197,-0.161l0.197,-0.162l0.195,-0.163l0.195,-0.165l0.194,-0.165l0.193,-0.166l0.384,-0.336l0.19,-0.169l0.189,-0.171l0.188,-0.171l0.188,-0.173l0.186,-0.173l0.185,-0.175l0.185,-0.176l0.183,-0.176l0.183,-0.178l0.182,-0.178l0.36,-0.36l0.356,-0.364l0.352,-0.368l0.175,-0.186l0.173,-0.186l0.173,-0.187l0.342,-0.378l0.169,-0.19l0.169,-0.191l0.167,-0.192l0.167,-0.193l0.165,-0.194l0.164,-0.195l0.163,-0.195l0.162,-0.197l0.161,-0.197l0.16,-0.199l0.159,-0.199l0.158,-0.2l0.156,-0.201l0.156,-0.202l0.154,-0.203l0.154,-0.204l0.152,-0.204l0.151,-0.206l0.15,-0.205l0.149,-0.208l0.148,-0.208l0.146,-0.208l0.29,-0.42l0.143,-0.211l0.142,-0.212l0.141,-0.213l0.14,-0.214l0.138,-0.214l0.138,-0.215l0.136,-0.216l0.135,-0.217l0.133,-0.217l0.133,-0.218l0.262,-0.44l0.129,-0.22l0.128,-0.222l0.126,-0.222l0.126,-0.223l0.124,-0.223l0.123,-0.224l0.122,-0.226l0.12,-0.225l0.12,-0.227l0.118,-0.228l0.116,-0.227l0.116,-0.229l0.114,-0.229l0.114,-0.231l0.111,-0.23l0.111,-0.231l0.109,-0.233l0.108,-0.233l0.107,-0.233l0.105,-0.234l0.104,-0.235l0.103,-0.236l0.102,-0.236l0.1,-0.237l0.099,-0.238l0.098,-0.237l0.096,-0.24l0.095,-0.239l0.094,-0.24l0.184,-0.482l0.09,-0.243l0.088,-0.242l0.087,-0.243l0.086,-0.244l0.168,-0.49l0.162,-0.492l0.079,-0.247l0.077,-0.247l0.077,-0.248l0.075,-0.249l0.073,-0.25l0.072,-0.249l0.071,-0.251l0.07,-0.251l0.068,-0.252l0.066,-0.252l0.065,-0.253l0.064,-0.253l0.063,-0.254l0.061,-0.254l0.059,-0.256l0.059,-0.255l0.056,-0.256l0.056,-0.257l0.054,-0.257l0.052,-0.258l0.051,-0.259l0.05,-0.259l0.048,-0.259l0.046,-0.26l0.009,-0.05l-90.576,0Z" style="fill:#4d4d4d;"/></g></g></svg>