<?xml version="1.0" encoding="UTF-8" standalone="no"?>
<!DOCTYPE svg PUBLIC "-//W3C//DTD SVG 1.1//EN" "http://www.w3.org/Graphics/SVG/1.1/DTD/svg11.dtd">
<svg width="100%" height="100%" viewBox="0 0 300 300" version="1.1" xmlns="http://www.w3.org/2000/svg" xmlns:xlink="http://www.w3.org/1999/xlink" xml:space="preserve" xmlns:serif="http://www.serif.com/" style="fill-rule:evenodd;clip-rule:evenodd;stroke-linecap:round;">
    <g>
        <g id="Background">
            <g>
                <path d="M300,30.271C300,13.564 286.436,0 269.729,0L30.271,0C13.564,0 -0,13.564 -0,30.271L-0,269.729C-0,286.436 13.564,300 30.271,300L269.729,300C286.436,300 300,286.436 300,269.729L300,30.271Z" style="fill:rgb(255,254,254);"/>
                <path d="M300,30.271C300,13.564 286.436,0 269.729,0L30.271,0C13.564,0 -0,13.564 -0,30.271L-0,269.729C-0,286.436 13.564,300 30.271,300L269.729,300C286.436,300 300,286.436 300,269.729L300,30.271ZM284,30.271L284,269.729C284,277.606 277.606,284 269.729,284L30.271,284C22.394,284 16,277.606 16,269.729L16,30.271C16,22.394 22.394,16 30.271,16L269.729,16C277.606,16 284,22.394 284,30.271Z" style="fill:rgb(77,77,77);"/>
            </g>
        </g>
        <g id="DB-9" transform="matrix(3.794509,0,0,3.794509,-413.590891,-139.450868)">
            <path id="path3713" d="M129.27,63.332L167.786,63.332C170.852,63.332 173.32,65.8 173.32,68.866L171.106,83.697C170.737,86.609 168.638,89.231 165.572,89.231L130.819,89.01C127.754,89.01 125.285,86.542 125.285,83.476L123.736,68.866C123.736,65.8 126.204,63.332 129.27,63.332Z" style="fill:none;fill-rule:nonzero;stroke:white;stroke-width:5.27px;"/>
            <path id="path37131" serif:id="path3713" d="M129.27,63.332L167.786,63.332C170.852,63.332 173.32,65.8 173.32,68.866L171.106,83.697C170.737,86.609 168.638,89.231 165.572,89.231L130.819,89.01C127.754,89.01 125.285,86.542 125.285,83.476L123.736,68.866C123.736,65.8 126.204,63.332 129.27,63.332Z" style="fill:white;fill-rule:nonzero;stroke:rgb(77,77,77);stroke-width:2px;"/>
            <g id="g3715">
                <path id="path3717" d="M133.26,71.301C133.26,72.157 132.566,72.85 131.71,72.85C130.855,72.85 130.161,72.157 130.161,71.301C130.161,70.445 130.855,69.752 131.71,69.752C132.566,69.752 133.26,70.445 133.26,71.301Z" style="fill:rgb(77,77,77);fill-rule:nonzero;stroke:rgb(77,77,77);stroke-width:2px;"/>
                <g id="path3719" transform="matrix(1,0,0,1,8.1903,0)">
                    <path d="M133.26,71.301C133.26,72.157 132.566,72.85 131.71,72.85C130.855,72.85 130.161,72.157 130.161,71.301C130.161,70.445 130.855,69.752 131.71,69.752C132.566,69.752 133.26,70.445 133.26,71.301Z" style="fill:rgb(77,77,77);fill-rule:nonzero;stroke:rgb(77,77,77);stroke-width:2px;"/>
                </g>
                <g id="path3721" transform="matrix(1,0,0,1,15.606,0)">
                    <path d="M133.26,71.301C133.26,72.157 132.566,72.85 131.71,72.85C130.855,72.85 130.161,72.157 130.161,71.301C130.161,70.445 130.855,69.752 131.71,69.752C132.566,69.752 133.26,70.445 133.26,71.301Z" style="fill:rgb(77,77,77);fill-rule:nonzero;stroke:rgb(77,77,77);stroke-width:2px;"/>
                </g>
                <g id="path3723" transform="matrix(1,0,0,1,23.907,0)">
                    <path d="M133.26,71.301C133.26,72.157 132.566,72.85 131.71,72.85C130.855,72.85 130.161,72.157 130.161,71.301C130.161,70.445 130.855,69.752 131.71,69.752C132.566,69.752 133.26,70.445 133.26,71.301Z" style="fill:rgb(77,77,77);fill-rule:nonzero;stroke:rgb(77,77,77);stroke-width:2px;"/>
                </g>
                <g id="path3725" transform="matrix(1,0,0,1,31.876,0)">
                    <path d="M133.26,71.301C133.26,72.157 132.566,72.85 131.71,72.85C130.855,72.85 130.161,72.157 130.161,71.301C130.161,70.445 130.855,69.752 131.71,69.752C132.566,69.752 133.26,70.445 133.26,71.301Z" style="fill:rgb(77,77,77);fill-rule:nonzero;stroke:rgb(77,77,77);stroke-width:2px;"/>
                </g>
                <g id="path3727" transform="matrix(1,0,0,1,4.6485,9.0757)">
                    <path d="M133.26,71.301C133.26,72.157 132.566,72.85 131.71,72.85C130.855,72.85 130.161,72.157 130.161,71.301C130.161,70.445 130.855,69.752 131.71,69.752C132.566,69.752 133.26,70.445 133.26,71.301Z" style="fill:rgb(77,77,77);fill-rule:nonzero;stroke:rgb(77,77,77);stroke-width:2px;"/>
                </g>
                <g id="path3729" transform="matrix(1,0,0,1,12.064,9.0757)">
                    <path d="M133.26,71.301C133.26,72.157 132.566,72.85 131.71,72.85C130.855,72.85 130.161,72.157 130.161,71.301C130.161,70.445 130.855,69.752 131.71,69.752C132.566,69.752 133.26,70.445 133.26,71.301Z" style="fill:rgb(77,77,77);fill-rule:nonzero;stroke:rgb(77,77,77);stroke-width:2px;"/>
                </g>
                <g id="path3731" transform="matrix(1,0,0,1,20.365,9.0757)">
                    <path d="M133.26,71.301C133.26,72.157 132.566,72.85 131.71,72.85C130.855,72.85 130.161,72.157 130.161,71.301C130.161,70.445 130.855,69.752 131.71,69.752C132.566,69.752 133.26,70.445 133.26,71.301Z" style="fill:rgb(77,77,77);fill-rule:nonzero;stroke:rgb(77,77,77);stroke-width:2px;"/>
                </g>
                <g id="path3733" transform="matrix(1,0,0,1,28.334,9.0757)">
                    <path d="M133.26,71.301C133.26,72.157 132.566,72.85 131.71,72.85C130.855,72.85 130.161,72.157 130.161,71.301C130.161,70.445 130.855,69.752 131.71,69.752C132.566,69.752 133.26,70.445 133.26,71.301Z" style="fill:rgb(77,77,77);fill-rule:nonzero;stroke:rgb(77,77,77);stroke-width:2px;"/>
                </g>
            </g>
        </g>
    </g>
</svg>
