<?xml version="1.0" encoding="UTF-8" standalone="no"?><!DOCTYPE svg PUBLIC "-//W3C//DTD SVG 1.1//EN" "http://www.w3.org/Graphics/SVG/1.1/DTD/svg11.dtd"><svg width="100%" height="100%" viewBox="0 0 300 300" version="1.1" xmlns="http://www.w3.org/2000/svg" xmlns:xlink="http://www.w3.org/1999/xlink" xml:space="preserve" xmlns:serif="http://www.serif.com/" style="fill-rule:evenodd;clip-rule:evenodd;stroke-linejoin:round;stroke-miterlimit:2;"><g><g id="Background"><path d="M300,30.271c0,-16.707 -13.564,-30.271 -30.271,-30.271l-239.458,0c-16.707,0 -30.271,13.564 -30.271,30.271l0,239.458c0,16.707 13.564,30.271 30.271,30.271l239.458,0c16.707,0 30.271,-13.564 30.271,-30.271l0,-239.458Z" style="fill:#fffefe;"/><path d="M300,30.271c0,-16.707 -13.564,-30.271 -30.271,-30.271l-239.458,0c-16.707,0 -30.271,13.564 -30.271,30.271l0,239.458c0,16.707 13.564,30.271 30.271,30.271l239.458,0c16.707,0 30.271,-13.564 30.271,-30.271l0,-239.458Zm-16,-0l0,239.458c0,7.877 -6.394,14.271 -14.271,14.271l-239.458,0c-7.877,0 -14.271,-6.394 -14.271,-14.271l0,-239.458c0,-7.877 6.394,-14.271 14.271,-14.271l239.458,0c7.877,0 14.271,6.394 14.271,14.271Z" style="fill:#4d4d4d;"/></g><g><g><path d="M150.531,60.041l0.264,0.002l0.263,0.003l0.264,0.004l0.263,0.004l0.526,0.012l0.263,0.007l0.263,0.008l0.524,0.018l0.524,0.022l0.261,0.012l0.262,0.012l0.261,0.014l0.261,0.015l0.26,0.015l0.261,0.016l0.52,0.034l0.26,0.019l0.259,0.019l0.26,0.02l0.259,0.021l0.259,0.022l0.258,0.022l0.259,0.024l0.258,0.024l0.516,0.05l0.514,0.054l0.257,0.028l0.257,0.029l0.257,0.03l0.256,0.03l0.512,0.064l0.255,0.032l0.256,0.034l0.255,0.034l0.255,0.036l0.254,0.035l0.255,0.037l0.508,0.076l0.253,0.039l0.254,0.04l0.253,0.04l0.252,0.042l0.253,0.042l0.252,0.043l0.504,0.088l0.252,0.045l0.251,0.046l0.502,0.094l0.75,0.147l0.25,0.051l0.249,0.051l0.249,0.052l0.249,0.053l0.249,0.054l0.248,0.054l0.248,0.055l0.248,0.056l0.247,0.056l0.494,0.116l0.247,0.059l0.246,0.059l0.246,0.06l0.246,0.061l0.245,0.062l0.49,0.126l0.244,0.064l0.245,0.064l0.244,0.066l0.243,0.066l0.244,0.067l0.243,0.067l0.242,0.069l0.243,0.069l0.242,0.069l0.242,0.071l0.241,0.071l0.241,0.072l0.482,0.146l0.24,0.074l0.24,0.075l0.24,0.076l0.239,0.076l0.478,0.154l0.476,0.158l0.238,0.08l0.237,0.08l0.237,0.081l0.237,0.082l0.237,0.083l0.236,0.083l0.235,0.084l0.236,0.085l0.235,0.085l0.235,0.086l0.234,0.087l0.468,0.176l0.466,0.178l0.233,0.09l0.233,0.091l0.232,0.092l0.231,0.092l0.232,0.093l0.231,0.094l0.23,0.094l0.231,0.095l0.23,0.096l0.229,0.096l0.23,0.097l0.229,0.098l0.228,0.098l0.228,0.099l0.228,0.1l0.228,0.101l0.227,0.101l0.226,0.101l0.227,0.103l0.226,0.103l0.226,0.104l0.225,0.104l0.225,0.105l0.224,0.106l0.225,0.106l0.223,0.107l0.224,0.108l0.223,0.108l0.223,0.109l0.444,0.22l0.221,0.111l0.442,0.224l0.441,0.226l0.439,0.229l0.437,0.232l0.436,0.234l0.434,0.237l0.433,0.239l0.431,0.241l0.429,0.245l0.428,0.246l0.426,0.25l0.425,0.251l0.422,0.254l0.422,0.257l0.419,0.259l0.418,0.262l0.416,0.264l0.415,0.266l0.413,0.269l0.411,0.271l0.409,0.273l0.408,0.276l0.406,0.279l0.404,0.28l0.402,0.284l0.401,0.285l0.399,0.288l0.397,0.29l0.395,0.292l0.394,0.295l0.391,0.297l0.39,0.299l0.388,0.301l0.386,0.304l0.384,0.306l0.383,0.308l0.38,0.311l0.379,0.313l0.376,0.315l0.375,0.317l0.373,0.319l0.371,0.322l0.369,0.323l0.367,0.326l0.365,0.328l0.363,0.33l0.361,0.333l0.359,0.334l0.357,0.337l0.355,0.338l0.353,0.341l0.351,0.343l0.349,0.345l0.347,0.346l0.345,0.349l0.343,0.351l0.341,0.354l0.338,0.355l0.337,0.357l0.334,0.359l0.332,0.361l0.331,0.363l0.327,0.365l0.326,0.367l0.324,0.369l0.322,0.371l0.319,0.373l0.317,0.375l0.315,0.376l0.313,0.379l0.31,0.38l0.308,0.383l0.306,0.384l0.304,0.386l0.302,0.388l0.299,0.39l0.297,0.391l0.295,0.394l0.292,0.395l0.29,0.397l0.288,0.399l0.285,0.401l0.283,0.402l0.281,0.404l0.278,0.406l0.276,0.408l0.274,0.409l0.271,0.411l0.269,0.413l0.266,0.415l0.264,0.416l0.261,0.418l0.259,0.419l0.257,0.422l0.254,0.423l0.252,0.424l0.249,0.426l0.247,0.428l0.244,0.43l0.242,0.431l0.239,0.432l0.236,0.434l0.235,0.436l0.231,0.437l0.229,0.439l0.226,0.441l0.224,0.442l0.111,0.221l0.11,0.222l0.11,0.223l0.109,0.222l0.108,0.223l0.108,0.224l0.214,0.448l0.105,0.224l0.105,0.225l0.105,0.226l0.103,0.225l0.103,0.226l0.103,0.227l0.102,0.226l0.101,0.228l0.1,0.227l0.1,0.228l0.099,0.228l0.196,0.458l0.097,0.229l0.096,0.229l0.096,0.23l0.095,0.231l0.094,0.23l0.094,0.231l0.093,0.232l0.184,0.464l0.091,0.232l0.18,0.466l0.088,0.233l0.089,0.234l0.087,0.234l0.087,0.235l0.086,0.234l0.085,0.235l0.085,0.236l0.084,0.236l0.166,0.472l0.082,0.237l0.081,0.237l0.08,0.237l0.08,0.238l0.079,0.238l0.079,0.239l0.077,0.238l0.077,0.239l0.076,0.24l0.076,0.239l0.075,0.24l0.074,0.24l0.146,0.482l0.072,0.241l0.071,0.242l0.07,0.241l0.07,0.243l0.069,0.242l0.069,0.243l0.134,0.486l0.132,0.488l0.128,0.488l0.126,0.49l0.062,0.246l0.061,0.246l0.06,0.246l0.118,0.492l0.058,0.247l0.057,0.247l0.057,0.248l0.056,0.247l0.055,0.248l0.054,0.249l0.054,0.248l0.052,0.249l0.053,0.249l0.051,0.25l0.05,0.249l0.05,0.25l0.049,0.25l0.048,0.251l0.048,0.25l0.047,0.251l0.046,0.252l0.045,0.251l0.088,0.504l0.043,0.252l0.042,0.253l0.082,0.506l0.04,0.253l0.039,0.254l0.076,0.508l0.036,0.254l0.036,0.255l0.07,0.51l0.033,0.255l0.033,0.256l0.032,0.255l0.031,0.256l0.031,0.257l0.03,0.256l0.084,0.771l0.052,0.516l0.025,0.258l0.024,0.258l0.023,0.258l0.023,0.259l0.042,0.518l0.02,0.259l0.02,0.26l0.036,0.52l0.017,0.26l0.016,0.26l0.015,0.261l0.028,0.522l0.013,0.261l0.012,0.262l0.011,0.261l0.02,0.524l0.009,0.263l0.007,0.262l0.008,0.263l0.006,0.263l0.005,0.263l0.005,0.264l0.003,0.263l0.003,0.264l0.004,0.528l0,0.564l-0.002,0.3l0,0.053l-0.002,0.136l-0.003,0.272l-0.002,0.144l-0.001,0.1l-0.005,0.285l-0.005,0.233l-0.003,0.133l-0.002,0.069l-0.002,0.093l-0.011,0.389l-0.002,0.098l-0.001,0.018l-0.01,0.297l-0.011,0.297l-0.001,0.036l-0.006,0.127l-0.013,0.318l-0.005,0.117l-0.004,0.084l-0.006,0.125l-0.01,0.198l-0.01,0.199l-0.007,0.124l-0.005,0.085l-0.006,0.116l-0.019,0.317l-0.007,0.126l-0.003,0.035l-0.019,0.295l-0.02,0.295l-0.001,0.018l-0.007,0.096l-0.028,0.385l-0.008,0.092l-0.005,0.068l-0.011,0.131l-0.018,0.23l-0.014,0.167l-0.009,0.112l-0.009,0.099l-0.012,0.141l-0.025,0.266l-0.012,0.133l-0.005,0.052l-0.006,0.068l-0.051,0.516l0,0.001l-0.03,0.292l-0.032,0.292l-0.005,0.052l-0.015,0.132l-0.03,0.265l-0.016,0.14l-0.011,0.097l-0.014,0.111l-0.019,0.167l-0.028,0.226l-0.016,0.129l-0.009,0.068l-0.011,0.09l-0.049,0.379l-0.013,0.095l-0.002,0.017l-0.039,0.289l-0.04,0.289l-0.005,0.035l-0.018,0.123l-0.044,0.309l-0.017,0.113l-0.012,0.083l-0.019,0.121l-0.029,0.193l-0.03,0.192l-0.018,0.121l-0.013,0.082l-0.018,0.114l-0.05,0.306l-0.02,0.123l-0.005,0.035l-0.048,0.286l-0.049,0.286l-0.003,0.017l-0.016,0.093l-0.066,0.374l-0.016,0.089l-0.012,0.066l-0.023,0.127l-0.041,0.223l-0.031,0.162l-0.02,0.109l-0.018,0.095l-0.026,0.137l-0.05,0.258l-0.025,0.128l-0.01,0.051l-0.013,0.066l-0.101,0.499l0,0.002l-0.058,0.283l-0.06,0.282l-0.01,0.05l-0.028,0.128l-0.055,0.256l-0.03,0.136l-0.021,0.094l-0.024,0.107l-0.035,0.161l-0.05,0.219l-0.028,0.125l-0.016,0.066l-0.02,0.087l-0.085,0.366l-0.022,0.092l-0.004,0.017l-0.134,0.558l-0.009,0.033l-0.029,0.119l-0.074,0.299l-0.028,0.11l-0.02,0.079l-0.03,0.117l-0.047,0.186l-0.049,0.186l-0.03,0.116l-0.021,0.08l-0.028,0.11l-0.08,0.295l-0.031,0.119l-0.009,0.033l-0.075,0.276l-0.076,0.276l-0.005,0.016l-0.025,0.089l-0.101,0.362l-0.025,0.085l-0.018,0.064l-0.036,0.122l-0.061,0.215l-0.046,0.156l-0.031,0.105l-0.027,0.092l-0.039,0.132l-0.075,0.248l-0.037,0.124l-0.015,0.048l-0.019,0.064l-0.148,0.48l0,0.002l-0.172,0.544l-0.015,0.048l-0.04,0.122l-0.079,0.247l-0.043,0.13l-0.029,0.091l-0.034,0.103l-0.051,0.155l-0.071,0.21l-0.089,0.267l-0.12,0.351l-0.03,0.088l-0.006,0.017l-0.093,0.268l-0.094,0.268l-0.011,0.032l-0.041,0.113l-0.102,0.288l-0.039,0.105l-0.027,0.076l-0.041,0.111l-0.065,0.18l-0.066,0.178l-0.04,0.111l-0.029,0.076l-0.039,0.105l-0.107,0.284l-0.042,0.113l-0.012,0.032l-0.102,0.265l-0.101,0.264l-0.006,0.015l-0.033,0.085l-0.136,0.347l-0.033,0.081l-0.07,0.178l-0.082,0.206l-0.061,0.15l-0.04,0.099l-0.036,0.088l-0.051,0.127l-0.098,0.237l-0.049,0.118l-0.019,0.046l-0.025,0.061l-0.193,0.46l0,0.001l-0.111,0.26l-0.112,0.259l-0.019,0.046l-0.051,0.117l-0.103,0.236l-0.054,0.124l-0.038,0.086l-0.044,0.098l-0.065,0.149l-0.09,0.2l-0.051,0.114l-0.027,0.06l-0.037,0.081l-0.153,0.335l-0.037,0.083l-0.008,0.016l-0.118,0.256l-0.119,0.255l-0.013,0.03l-0.051,0.107l-0.13,0.275l-0.048,0.1l-0.034,0.072l-0.051,0.106l-0.082,0.171l-0.082,0.17l-0.051,0.105l-0.035,0.073l-0.049,0.1l-0.133,0.27l-0.053,0.107l-0.141,0.282l-0.126,0.251l-0.007,0.015l-0.04,0.078l-0.169,0.331l-0.04,0.078l-0.029,0.058l-0.058,0.11l-0.101,0.196l-0.074,0.143l-0.049,0.094l-0.044,0.083l-0.063,0.12l-0.12,0.226l-0.059,0.111l-0.024,0.044l-0.266,0.494l-0.135,0.247l-0.135,0.246l-0.024,0.043l-0.061,0.109l-0.125,0.225l-0.066,0.118l-0.045,0.081l-0.053,0.092l-0.079,0.141l-0.109,0.191l-0.061,0.107l-0.076,0.133l-0.184,0.318l-0.045,0.077l-0.009,0.015l-0.141,0.241l-0.143,0.242l-0.016,0.028l-0.06,0.1l-0.155,0.261l-0.057,0.095l-0.041,0.067l-0.06,0.099l-0.098,0.163l-0.099,0.16l-0.06,0.099l-0.041,0.068l-0.059,0.095l-0.158,0.256l-0.062,0.099l-0.017,0.028l-0.149,0.238l-0.15,0.237l-0.008,0.013l-0.046,0.072l-0.2,0.314l-0.047,0.073l-0.035,0.054l-0.066,0.103l-0.12,0.186l-0.088,0.134l-0.057,0.088l-0.051,0.077l-0.075,0.114l-0.141,0.213l-0.068,0.104l-0.028,0.04l-0.155,0.233l-0.156,0.232l-0.158,0.232l-0.157,0.231l-0.027,0.04l-0.071,0.101l-0.146,0.212l-0.077,0.111l-0.052,0.076l-0.061,0.085l-0.093,0.133l-0.126,0.179l-0.07,0.1l-0.037,0.052l-0.052,0.073l-0.214,0.299l-0.06,0.084l-0.164,0.226l-0.164,0.227l-0.019,0.025l-0.068,0.093l-0.18,0.245l-0.066,0.089l-0.046,0.062l-0.069,0.092l-0.113,0.153l-0.114,0.15l-0.068,0.092l-0.048,0.062l-0.067,0.09l-0.183,0.24l-0.069,0.091l-0.02,0.026l-0.171,0.222l-0.171,0.221l-0.009,0.012l-0.051,0.065l-0.23,0.295l-0.055,0.068l-0.038,0.05l-0.076,0.095l-0.137,0.174l-0.101,0.125l-0.064,0.081l-0.058,0.072l-0.085,0.106l-0.161,0.199l-0.077,0.095l-0.031,0.038l-0.354,0.432l-0.178,0.215l-0.179,0.215l-0.031,0.036l-0.078,0.093l-0.166,0.198l-0.088,0.103l-0.059,0.07l-0.067,0.078l-0.106,0.125l-0.143,0.166l-0.078,0.091l-0.042,0.048l-0.058,0.068l-0.243,0.279l-0.055,0.063l-0.011,0.012l-0.185,0.21l-0.185,0.209l-0.021,0.024l-0.074,0.083l-0.204,0.228l-0.075,0.083l-0.051,0.057l-0.076,0.084l-0.129,0.142l-0.127,0.14l-0.076,0.083l-0.053,0.057l-0.076,0.084l-0.206,0.222l-0.076,0.083l-0.022,0.023l-0.191,0.205l-0.192,0.204l-0.009,0.01l-0.055,0.057l-0.259,0.274l-0.061,0.064l-0.043,0.045l-0.083,0.086l-0.154,0.161l-0.113,0.116l-0.071,0.073l-0.063,0.065l-0.096,0.099l-0.181,0.184l-0.084,0.086l-0.033,0.033l-0.197,0.199l-0.197,0.198l-0.198,0.197l-0.199,0.197l-0.033,0.033l-0.085,0.083l-0.186,0.183l-0.098,0.095l-0.064,0.063l-0.074,0.071l-0.118,0.114l-0.16,0.154l-0.085,0.082l-0.045,0.043l-0.065,0.062l-0.329,0.312l-0.011,0.01l-0.205,0.193l-0.205,0.191l-0.022,0.02l-0.08,0.074l-0.227,0.21l-0.083,0.076l-0.055,0.052l-0.083,0.075l-0.142,0.13l-0.142,0.128l-0.082,0.074l-0.057,0.051l-0.085,0.077l-0.228,0.204l-0.082,0.073l-0.023,0.021l-0.21,0.186l-0.211,0.185l-0.01,0.009l-0.056,0.049l-0.289,0.251l-0.067,0.058l-0.046,0.04l-0.089,0.076l-0.171,0.148l-0.124,0.105l-0.077,0.066l-0.068,0.058l-0.106,0.09l-0.199,0.167l-0.09,0.076l-0.036,0.03l-0.215,0.18l-0.216,0.178l-0.217,0.179l-0.217,0.177l-0.035,0.029l-0.091,0.073l-0.205,0.166l-0.108,0.086l-0.068,0.056l-0.079,0.062l-0.13,0.104l-0.175,0.139l-0.091,0.072l-0.049,0.038l-0.072,0.057l-0.298,0.233l-0.059,0.047l-0.011,0.008l-0.223,0.173l-0.224,0.172l-0.023,0.017l-0.084,0.064l-0.249,0.19l-0.091,0.069l-0.059,0.045l-0.088,0.066l-0.157,0.117l-0.154,0.115l-0.088,0.066l-0.061,0.044l-0.093,0.07l-0.249,0.183l-0.086,0.063l-0.024,0.018l-0.229,0.166l-0.229,0.165l-0.01,0.008l-0.055,0.039l-0.317,0.227l-0.074,0.052l-0.048,0.035l-0.094,0.066l-0.187,0.132l-0.136,0.094l-0.081,0.057l18.087,31.327l0.032,0.057l0.064,0.112l0.062,0.113l0.061,0.113l0.059,0.113l0.058,0.114l0.057,0.114l0.056,0.114l0.054,0.114l0.053,0.114l0.052,0.115l0.05,0.115l0.049,0.115l0.048,0.116l0.046,0.115l0.045,0.116l0.044,0.115l0.043,0.116l0.041,0.116l0.04,0.116l0.039,0.116l0.037,0.116l0.037,0.117l0.035,0.116l0.066,0.232l0.031,0.117l0.03,0.116l0.028,0.116l0.027,0.117l0.026,0.116l0.025,0.116l0.024,0.116l0.022,0.116l0.021,0.116l0.02,0.116l0.018,0.116l0.017,0.116l0.016,0.115l0.015,0.115l0.014,0.115l0.012,0.115l0.011,0.115l0.01,0.115l0.016,0.228l0.006,0.114l0.005,0.114l0.006,0.226l0.001,0.113l0,0.113l-0.001,0.112l-0.003,0.112l-0.004,0.111l-0.005,0.111l-0.006,0.111l-0.007,0.111l-0.009,0.11l-0.009,0.109l-0.011,0.11l-0.013,0.109l-0.013,0.108l-0.015,0.108l-0.015,0.107l-0.017,0.107l-0.019,0.107l-0.019,0.106l-0.042,0.21l-0.023,0.105l-0.024,0.104l-0.052,0.206l-0.028,0.102l-0.029,0.101l-0.03,0.101l-0.031,0.101l-0.032,0.099l-0.034,0.099l-0.035,0.099l-0.036,0.098l-0.037,0.097l-0.038,0.096l-0.039,0.096l-0.041,0.095l-0.042,0.094l-0.043,0.093l-0.044,0.093l-0.045,0.092l-0.046,0.091l-0.096,0.18l-0.05,0.088l-0.051,0.088l-0.052,0.087l-0.053,0.086l-0.055,0.086l-0.055,0.084l-0.057,0.084l-0.057,0.082l-0.059,0.082l-0.06,0.081l-0.061,0.079l-0.063,0.079l-0.063,0.078l-0.065,0.077l-0.065,0.076l-0.067,0.075l-0.068,0.074l-0.069,0.072l-0.07,0.072l-0.071,0.071l-0.073,0.07l-0.073,0.068l-0.074,0.068l-0.076,0.066l-0.077,0.065l-0.078,0.065l-0.079,0.063l-0.08,0.061l-0.081,0.061l-0.082,0.06l-0.083,0.058l-0.085,0.057l-0.085,0.056l-0.087,0.055l-0.087,0.053l-0.089,0.052l-0.09,0.051l-0.09,0.05l-0.091,0.047l-0.092,0.047l-0.092,0.044l-0.093,0.043l-0.093,0.042l-0.093,0.04l-0.094,0.038l-0.094,0.037l-0.095,0.036l-0.096,0.034l-0.095,0.032l-0.096,0.031l-0.097,0.029l-0.097,0.028l-0.097,0.026l-0.098,0.025l-0.098,0.023l-0.098,0.022l-0.099,0.021l-0.198,0.036l-0.099,0.016l-0.1,0.014l-0.1,0.013l-0.101,0.012l-0.1,0.01l-0.101,0.008l-0.101,0.007l-0.101,0.006l-0.102,0.004l-0.102,0.003l-0.101,0.002l-0.102,0l-0.102,-0.002l-0.103,-0.003l-0.102,-0.004l-0.103,-0.006l-0.102,-0.007l-0.103,-0.008l-0.103,-0.01l-0.102,-0.011l-0.103,-0.013l-0.103,-0.014l-0.103,-0.015l-0.103,-0.017l-0.103,-0.018l-0.103,-0.019l-0.103,-0.021l-0.103,-0.022l-0.103,-0.024l-0.103,-0.025l-0.103,-0.026l-0.102,-0.027l-0.103,-0.029l-0.102,-0.03l-0.103,-0.032l-0.102,-0.033l-0.102,-0.034l-0.102,-0.035l-0.102,-0.037l-0.102,-0.038l-0.101,-0.039l-0.102,-0.04l-0.101,-0.042l-0.101,-0.043l-0.1,-0.045l-0.101,-0.045l-0.1,-0.047l-0.1,-0.048l-0.099,-0.05l-0.1,-0.05l-0.099,-0.052l-0.099,-0.053l-0.196,-0.11l-0.098,-0.057l-0.097,-0.058l-0.097,-0.059l-0.097,-0.061l-0.096,-0.061l-0.096,-0.063l-0.095,-0.064l-0.19,-0.132l-0.188,-0.136l-0.093,-0.07l-0.093,-0.071l-0.092,-0.073l-0.091,-0.073l-0.092,-0.075l-0.18,-0.152l-0.09,-0.078l-0.089,-0.08l-0.088,-0.08l-0.088,-0.081l-0.087,-0.083l-0.087,-0.084l-0.085,-0.084l-0.086,-0.086l-0.084,-0.087l-0.084,-0.088l-0.084,-0.089l-0.164,-0.182l-0.162,-0.186l-0.08,-0.095l-0.079,-0.095l-0.078,-0.097l-0.077,-0.098l-0.077,-0.099l-0.076,-0.099l-0.075,-0.101l-0.074,-0.102l-0.074,-0.103l-0.072,-0.104l-0.072,-0.105l-0.071,-0.106l-0.07,-0.107l-0.069,-0.108l-0.136,-0.22l-0.066,-0.111l-0.065,-0.112l-18.183,-31.494l-0.024,0.01l-0.054,0.025l-0.3,0.13l-0.096,0.041l-0.017,0.008l-0.046,0.02l-0.332,0.142l-0.08,0.034l-0.01,0.004l-0.037,0.016l-0.386,0.162l-0.043,0.018l-0.005,0.002l-0.237,0.098l-0.238,0.098l-0.238,0.097l-0.478,0.192l-0.24,0.095l-0.24,0.094l-0.24,0.093l-0.006,0.003l-0.069,0.026l-0.368,0.142l-0.033,0.012l-0.014,0.005l-0.11,0.042l-0.312,0.117l-0.041,0.016l-0.022,0.008l-0.13,0.048l-0.278,0.103l-0.079,0.029l-0.139,0.05l-0.254,0.092l-0.057,0.02l-0.181,0.065l-0.235,0.084l-0.066,0.022l-0.046,0.017l-0.144,0.05l-0.219,0.076l-0.074,0.026l-0.055,0.018l-0.142,0.049l-0.205,0.07l-0.083,0.028l-0.062,0.021l-0.14,0.047l-0.193,0.064l-0.09,0.03l-0.071,0.024l-0.136,0.044l-0.181,0.059l-0.1,0.032l-0.079,0.026l-0.131,0.042l-0.17,0.055l-0.108,0.034l-0.087,0.027l-0.127,0.04l-0.159,0.05l-0.117,0.036l-0.095,0.03l-0.121,0.037l-0.15,0.046l-0.126,0.038l-0.103,0.031l-0.115,0.034l-0.14,0.042l-0.134,0.04l-0.112,0.033l-0.108,0.032l-0.131,0.038l-0.143,0.042l-0.12,0.034l-0.102,0.029l-0.121,0.035l-0.153,0.043l-0.127,0.036l-0.095,0.026l-0.112,0.032l-0.163,0.045l-0.135,0.037l-0.088,0.024l-0.103,0.028l-0.172,0.046l-0.143,0.039l-0.081,0.021l-0.094,0.025l-0.182,0.048l-0.15,0.039l-0.074,0.019l-0.085,0.022l-0.193,0.049l-0.157,0.04l-0.066,0.017l-0.444,0.111l-0.059,0.014l-0.067,0.016l-0.215,0.052l-0.17,0.042l-0.051,0.012l-0.058,0.014l-0.228,0.053l-0.175,0.041l-0.044,0.01l-0.049,0.012l-0.241,0.055l-0.18,0.041l-0.035,0.008l-0.041,0.009l-0.258,0.057l-0.181,0.04l-0.027,0.006l-0.032,0.007l-0.28,0.06l-0.177,0.038l-0.019,0.004l-0.023,0.005l-0.314,0.066l-0.161,0.033l-0.011,0.002l-0.014,0.003l-0.4,0.081l-0.093,0.019l-0.003,0l-0.257,0.051l-0.256,0.05l-0.004,0l-0.092,0.018l-0.403,0.076l-0.014,0.002l-0.011,0.002l-0.167,0.03l-0.313,0.057l-0.022,0.004l-0.02,0.004l-0.185,0.032l-0.278,0.049l-0.031,0.005l-0.029,0.005l-0.19,0.032l-0.257,0.044l-0.04,0.006l-0.037,0.007l-0.19,0.03l-0.241,0.039l-0.049,0.008l-0.045,0.007l-0.188,0.029l-0.227,0.036l-0.057,0.009l-0.055,0.008l-0.182,0.027l-0.215,0.032l-0.067,0.01l-0.063,0.009l-0.177,0.025l-0.204,0.03l-0.076,0.01l-0.071,0.01l-0.171,0.023l-0.194,0.027l-0.085,0.011l-0.08,0.01l-0.164,0.022l-0.184,0.024l-0.094,0.011l-0.089,0.012l-0.157,0.019l-0.174,0.021l-0.103,0.012l-0.097,0.012l-0.15,0.018l-0.165,0.019l-0.112,0.012l-0.106,0.013l-0.143,0.015l-0.154,0.017l-0.122,0.013l-0.115,0.012l-0.135,0.014l-0.145,0.015l-0.132,0.013l-0.122,0.013l-0.127,0.012l-0.137,0.013l-0.141,0.013l-0.131,0.013l-0.119,0.01l-0.127,0.012l-0.151,0.013l-0.14,0.012l-0.111,0.01l-0.118,0.01l-0.16,0.012l-0.148,0.013l-0.103,0.007l-0.109,0.009l-0.171,0.012l-0.156,0.012l-0.095,0.007l-0.1,0.007l-0.345,0.023l-0.086,0.006l-0.091,0.006l-0.191,0.011l-0.172,0.011l-0.078,0.005l-0.082,0.004l-0.202,0.011l-0.18,0.01l-0.069,0.004l-0.073,0.004l-0.213,0.01l-0.187,0.009l-0.061,0.003l-0.064,0.003l-0.225,0.009l-0.193,0.008l-0.053,0.002l-0.055,0.002l-0.238,0.009l-0.199,0.007l-0.043,0.001l-0.046,0.002l-0.253,0.007l-0.203,0.006l-0.071,0.002l-0.271,0.006l-0.204,0.004l-0.026,0.001l-0.028,0l-0.295,0.005l-0.198,0.003l-0.017,0.001l-0.019,0l-0.341,0.003l-0.17,0.002l-0.009,0l-0.54,0.002l-0.531,-0.002l-0.265,-0.002l-0.264,-0.003l-0.265,-0.004l-0.264,-0.005l-0.265,-0.005l-0.264,-0.006l-0.263,-0.007l-0.264,-0.008l-0.263,-0.009l-0.526,-0.02l-0.263,-0.011l-0.263,-0.012l-0.262,-0.013l-0.262,-0.014l-0.524,-0.03l-0.261,-0.016l-0.261,-0.017l-0.261,-0.018l-0.522,-0.038l-0.26,-0.02l-0.26,-0.021l-0.26,-0.022l-0.26,-0.023l-0.259,-0.023l-0.518,-0.05l-0.259,-0.026l-0.258,-0.026l-0.259,-0.028l-0.258,-0.028l-0.257,-0.029l-0.258,-0.03l-0.514,-0.062l-0.257,-0.032l-0.257,-0.034l-0.256,-0.033l-0.512,-0.07l-0.255,-0.037l-0.256,-0.037l-0.255,-0.037l-0.254,-0.039l-0.255,-0.039l-0.254,-0.041l-0.254,-0.04l-0.254,-0.042l-0.254,-0.043l-0.253,-0.043l-0.253,-0.044l-0.252,-0.045l-0.253,-0.045l-0.252,-0.046l-0.252,-0.048l-0.252,-0.047l-0.502,-0.098l-0.502,-0.102l-0.25,-0.051l-0.5,-0.106l-0.249,-0.054l-0.498,-0.11l-0.249,-0.056l-0.248,-0.057l-0.496,-0.116l-0.741,-0.18l-0.247,-0.062l-0.246,-0.062l-0.246,-0.063l-0.246,-0.064l-0.245,-0.064l-0.245,-0.065l-0.245,-0.066l-0.244,-0.067l-0.245,-0.067l-0.244,-0.068l-0.243,-0.069l-0.486,-0.14l-0.243,-0.071l-0.484,-0.144l-0.242,-0.073l-0.242,-0.074l-0.241,-0.075l-0.24,-0.075l-0.241,-0.076l-0.24,-0.077l-0.24,-0.078l-0.239,-0.078l-0.239,-0.079l-0.478,-0.16l-0.238,-0.081l-0.476,-0.164l-0.237,-0.083l-0.237,-0.084l-0.472,-0.17l-0.236,-0.086l-0.236,-0.087l-0.47,-0.176l-0.234,-0.088l-0.235,-0.09l-0.233,-0.09l-0.234,-0.091l-0.466,-0.184l-0.232,-0.093l-0.464,-0.188l-0.232,-0.095l-0.231,-0.096l-0.23,-0.096l-0.231,-0.097l-0.23,-0.098l-0.229,-0.098l-0.23,-0.1l-0.229,-0.099l-0.456,-0.202l-0.456,-0.204l-0.227,-0.103l-0.226,-0.104l-0.227,-0.105l-0.226,-0.105l-0.225,-0.106l-0.226,-0.106l-0.224,-0.107l-0.225,-0.108l-0.448,-0.218l-0.446,-0.22l-0.223,-0.111l-0.444,-0.224l-0.221,-0.113l-0.442,-0.228l-0.22,-0.115l-0.22,-0.116l-0.219,-0.116l-0.219,-0.117l-0.219,-0.118l-0.218,-0.118l-0.436,-0.238l-0.217,-0.121l-0.217,-0.12l-0.432,-0.244l-0.43,-0.246l-0.429,-0.248l-0.428,-0.251l-0.425,-0.254l-0.424,-0.256l-0.423,-0.258l-0.42,-0.261l-0.419,-0.264l-0.418,-0.265l-0.415,-0.269l-0.414,-0.27l-0.412,-0.274l-0.41,-0.275l-0.409,-0.278l-0.407,-0.28l-0.405,-0.283l-0.403,-0.285l-0.402,-0.288l-0.399,-0.289l-0.398,-0.292l-0.396,-0.295l-0.395,-0.297l-0.392,-0.299l-0.391,-0.301l-0.388,-0.304l-0.387,-0.306l-0.385,-0.308l-0.383,-0.31l-0.381,-0.313l-0.379,-0.315l-0.378,-0.317l-0.375,-0.319l-0.373,-0.322l-0.372,-0.324l-0.369,-0.326l-0.368,-0.328l-0.366,-0.33l-0.363,-0.333l-0.362,-0.334l-0.359,-0.337l-0.358,-0.339l-0.355,-0.341l-0.354,-0.343l-0.351,-0.345l-0.349,-0.347l-0.348,-0.35l-0.345,-0.351l-0.343,-0.353l-0.341,-0.356l-0.339,-0.357l-0.336,-0.36l-0.335,-0.361l-0.332,-0.364l-0.331,-0.366l-0.328,-0.367l-0.326,-0.37l-0.324,-0.371l-0.321,-0.373l-0.32,-0.376l-0.317,-0.377l-0.315,-0.379l-0.312,-0.382l-0.311,-0.383l-0.308,-0.384l-0.306,-0.387l-0.303,-0.389l-0.302,-0.391l-0.299,-0.392l-0.297,-0.394l-0.294,-0.396l-0.292,-0.398l-0.29,-0.4l-0.287,-0.401l-0.285,-0.404l-0.283,-0.405l-0.28,-0.407l-0.278,-0.408l-0.276,-0.411l-0.273,-0.412l-0.271,-0.413l-0.268,-0.416l-0.266,-0.417l-0.263,-0.419l-0.261,-0.421l-0.259,-0.422l-0.256,-0.424l-0.253,-0.426l-0.251,-0.427l-0.249,-0.429l-0.246,-0.431l-0.122,-0.216l-0.121,-0.216l-0.121,-0.217l-0.24,-0.434l-0.118,-0.218l-0.119,-0.218l-0.234,-0.438l-0.117,-0.22l-0.345,-0.66l-0.113,-0.222l-0.113,-0.221l-0.113,-0.222l-0.111,-0.222l-0.112,-0.223l-0.22,-0.446l-0.109,-0.224l-0.216,-0.448l-0.214,-0.45l-0.106,-0.226l-0.105,-0.226l-0.104,-0.226l-0.104,-0.227l-0.206,-0.454l-0.102,-0.228l-0.101,-0.228l-0.2,-0.458l-0.099,-0.229l-0.099,-0.23l-0.194,-0.46l-0.097,-0.231l-0.096,-0.231l-0.095,-0.231l-0.188,-0.464l-0.093,-0.233l-0.092,-0.232l-0.091,-0.234l-0.091,-0.233l-0.091,-0.234l-0.089,-0.234l-0.089,-0.235l-0.088,-0.235l-0.174,-0.47l-0.172,-0.472l-0.168,-0.474l-0.083,-0.237l-0.083,-0.238l-0.082,-0.237l-0.081,-0.239l-0.08,-0.238l-0.08,-0.239l-0.079,-0.239l-0.078,-0.24l-0.154,-0.48l-0.076,-0.24l-0.076,-0.241l-0.148,-0.482l-0.146,-0.484l-0.072,-0.243l-0.071,-0.242l-0.14,-0.486l-0.204,-0.732l-0.066,-0.245l-0.066,-0.244l-0.066,-0.245l-0.128,-0.492l-0.063,-0.246l-0.062,-0.246l-0.061,-0.246l-0.061,-0.247l-0.06,-0.247l-0.118,-0.496l-0.114,-0.496l-0.057,-0.249l-0.055,-0.248l-0.055,-0.25l-0.054,-0.249l-0.053,-0.25l-0.104,-0.5l-0.051,-0.251l-0.05,-0.25l-0.049,-0.252l-0.049,-0.251l-0.048,-0.252l-0.047,-0.251l-0.046,-0.253l-0.046,-0.252l-0.045,-0.253l-0.044,-0.253l-0.043,-0.253l-0.042,-0.254l-0.042,-0.253l-0.041,-0.254l-0.04,-0.255l-0.039,-0.254l-0.039,-0.255l-0.038,-0.255l-0.037,-0.255l-0.036,-0.256l-0.07,-0.512l-0.034,-0.256l-0.033,-0.257l-0.032,-0.256l-0.032,-0.257l-0.03,-0.258l-0.03,-0.257l-0.058,-0.516l-0.027,-0.258l-0.027,-0.259l-0.026,-0.258l-0.025,-0.259l-0.024,-0.26l-0.024,-0.259l-0.022,-0.26l-0.022,-0.259l-0.021,-0.261l-0.021,-0.26l-0.019,-0.26l-0.019,-0.261l-0.034,-0.522l-0.017,-0.262l-0.015,-0.262l-0.015,-0.261l-0.013,-0.263l-0.013,-0.262l-0.012,-0.262l-0.022,-0.526l-0.009,-0.263l-0.009,-0.264l-0.008,-0.263l-0.014,-0.528l-0.005,-0.264l-0.005,-0.265l-0.003,-0.264l-0.003,-0.265l-0.004,-0.53l0,-0.53l0.004,-0.528l0.003,-0.264l0.003,-0.263l0.005,-0.264l0.005,-0.263l0.006,-0.263l0.008,-0.263l0.007,-0.262l0.009,-0.263l0.02,-0.524l0.011,-0.261l0.012,-0.262l0.013,-0.261l0.028,-0.522l0.015,-0.261l0.016,-0.26l0.017,-0.26l0.036,-0.52l0.02,-0.26l0.02,-0.259l0.042,-0.518l0.023,-0.259l0.023,-0.258l0.024,-0.258l0.025,-0.258l0.052,-0.516l0.084,-0.771l0.03,-0.256l0.031,-0.257l0.031,-0.256l0.032,-0.255l0.033,-0.256l0.033,-0.255l0.07,-0.51l0.036,-0.255l0.036,-0.254l0.076,-0.508l0.039,-0.254l0.04,-0.253l0.082,-0.506l0.042,-0.253l0.043,-0.252l0.088,-0.504l0.045,-0.251l0.046,-0.252l0.047,-0.251l0.048,-0.25l0.048,-0.251l0.049,-0.25l0.05,-0.25l0.05,-0.249l0.051,-0.25l0.053,-0.249l0.052,-0.249l0.054,-0.248l0.054,-0.249l0.055,-0.248l0.056,-0.247l0.057,-0.248l0.057,-0.247l0.058,-0.247l0.118,-0.492l0.06,-0.246l0.061,-0.246l0.062,-0.246l0.126,-0.49l0.128,-0.488l0.132,-0.488l0.134,-0.486l0.069,-0.243l0.069,-0.242l0.07,-0.243l0.07,-0.241l0.071,-0.242l0.072,-0.241l0.146,-0.482l0.074,-0.24l0.075,-0.24l0.076,-0.239l0.076,-0.24l0.077,-0.239l0.077,-0.238l0.079,-0.239l0.079,-0.238l0.08,-0.238l0.08,-0.237l0.081,-0.237l0.082,-0.237l0.166,-0.472l0.084,-0.236l0.085,-0.236l0.085,-0.235l0.086,-0.234l0.087,-0.235l0.087,-0.234l0.089,-0.234l0.088,-0.233l0.18,-0.466l0.091,-0.232l0.184,-0.464l0.093,-0.232l0.094,-0.231l0.094,-0.23l0.095,-0.231l0.096,-0.23l0.096,-0.229l0.097,-0.229l0.196,-0.458l0.099,-0.228l0.1,-0.228l0.1,-0.227l0.101,-0.228l0.102,-0.226l0.103,-0.227l0.103,-0.226l0.103,-0.225l0.105,-0.226l0.105,-0.225l0.105,-0.224l0.214,-0.448l0.108,-0.224l0.108,-0.223l0.109,-0.222l0.11,-0.223l0.11,-0.222l0.111,-0.221l0.224,-0.442l0.226,-0.441l0.229,-0.439l0.231,-0.437l0.235,-0.436l0.236,-0.434l0.239,-0.432l0.242,-0.431l0.244,-0.43l0.247,-0.428l0.249,-0.426l0.252,-0.424l0.254,-0.423l0.257,-0.422l0.259,-0.419l0.261,-0.418l0.264,-0.416l0.266,-0.415l0.269,-0.413l0.271,-0.411l0.274,-0.409l0.276,-0.408l0.278,-0.406l0.281,-0.404l0.283,-0.402l0.285,-0.401l0.288,-0.399l0.29,-0.397l0.292,-0.395l0.295,-0.394l0.297,-0.391l0.299,-0.39l0.302,-0.388l0.304,-0.386l0.306,-0.384l0.308,-0.383l0.31,-0.38l0.313,-0.379l0.315,-0.376l0.317,-0.375l0.319,-0.373l0.322,-0.371l0.324,-0.369l0.326,-0.367l0.327,-0.365l0.331,-0.363l0.332,-0.361l0.334,-0.359l0.337,-0.357l0.338,-0.355l0.341,-0.354l0.343,-0.351l0.345,-0.349l0.347,-0.346l0.349,-0.345l0.351,-0.343l0.353,-0.341l0.355,-0.338l0.357,-0.337l0.359,-0.334l0.361,-0.333l0.363,-0.33l0.365,-0.328l0.367,-0.326l0.369,-0.323l0.371,-0.322l0.373,-0.319l0.375,-0.317l0.376,-0.315l0.379,-0.313l0.38,-0.311l0.383,-0.308l0.384,-0.306l0.386,-0.304l0.388,-0.301l0.39,-0.299l0.391,-0.297l0.394,-0.295l0.395,-0.292l0.397,-0.29l0.399,-0.288l0.401,-0.285l0.402,-0.284l0.404,-0.28l0.406,-0.279l0.408,-0.276l0.409,-0.273l0.411,-0.271l0.413,-0.269l0.415,-0.266l0.416,-0.264l0.418,-0.262l0.419,-0.259l0.422,-0.257l0.422,-0.254l0.425,-0.251l0.426,-0.25l0.428,-0.246l0.429,-0.245l0.431,-0.241l0.433,-0.239l0.434,-0.237l0.436,-0.234l0.437,-0.232l0.439,-0.229l0.441,-0.226l0.442,-0.224l0.221,-0.111l0.444,-0.22l0.223,-0.109l0.223,-0.108l0.224,-0.108l0.223,-0.107l0.225,-0.106l0.224,-0.106l0.225,-0.105l0.225,-0.104l0.226,-0.104l0.226,-0.103l0.227,-0.103l0.226,-0.101l0.227,-0.101l0.228,-0.101l0.228,-0.1l0.228,-0.099l0.228,-0.098l0.229,-0.098l0.23,-0.097l0.229,-0.096l0.23,-0.096l0.231,-0.095l0.23,-0.094l0.231,-0.094l0.232,-0.093l0.231,-0.092l0.232,-0.092l0.233,-0.091l0.233,-0.09l0.466,-0.178l0.468,-0.176l0.234,-0.087l0.235,-0.086l0.235,-0.085l0.236,-0.085l0.235,-0.084l0.236,-0.083l0.237,-0.083l0.237,-0.082l0.237,-0.081l0.237,-0.08l0.238,-0.08l0.476,-0.158l0.478,-0.154l0.239,-0.076l0.24,-0.076l0.24,-0.075l0.24,-0.074l0.482,-0.146l0.241,-0.072l0.241,-0.071l0.242,-0.071l0.242,-0.069l0.243,-0.069l0.242,-0.069l0.243,-0.067l0.244,-0.067l0.243,-0.066l0.244,-0.066l0.245,-0.064l0.244,-0.064l0.49,-0.126l0.245,-0.062l0.246,-0.061l0.246,-0.06l0.246,-0.059l0.247,-0.059l0.494,-0.116l0.247,-0.056l0.248,-0.056l0.248,-0.055l0.248,-0.054l0.249,-0.054l0.249,-0.053l0.249,-0.052l0.249,-0.051l0.25,-0.051l0.75,-0.147l0.502,-0.094l0.251,-0.046l0.252,-0.045l0.504,-0.088l0.252,-0.043l0.253,-0.042l0.252,-0.042l0.253,-0.04l0.254,-0.04l0.253,-0.039l0.508,-0.076l0.255,-0.037l0.254,-0.035l0.255,-0.036l0.255,-0.034l0.256,-0.034l0.255,-0.032l0.512,-0.064l0.256,-0.03l0.257,-0.03l0.257,-0.029l0.257,-0.028l0.514,-0.054l0.516,-0.05l0.258,-0.024l0.259,-0.024l0.258,-0.022l0.259,-0.022l0.259,-0.021l0.26,-0.02l0.259,-0.019l0.26,-0.019l0.52,-0.034l0.261,-0.016l0.26,-0.015l0.261,-0.015l0.261,-0.014l0.262,-0.012l0.261,-0.012l0.524,-0.022l0.524,-0.018l0.263,-0.008l0.263,-0.007l0.526,-0.012l0.263,-0.004l0.264,-0.004l0.263,-0.003l0.264,-0.002l0.531,-0.002l0.531,0.002Zm-0.973,16l-0.201,0.001l-0.639,0.009l-0.212,0.005l-0.213,0.005l-0.424,0.012l-0.212,0.007l-0.212,0.008l-0.211,0.008l-0.211,0.009l-0.422,0.02l-0.211,0.011l-0.211,0.012l-0.21,0.012l-0.21,0.013l-0.21,0.014l-0.209,0.014l-0.21,0.015l-0.209,0.015l-0.209,0.016l-0.209,0.017l-0.209,0.018l-0.208,0.018l-0.416,0.038l-0.208,0.02l-0.208,0.021l-0.207,0.021l-0.207,0.022l-0.414,0.046l-0.207,0.024l-0.618,0.075l-0.412,0.054l-0.41,0.056l-0.205,0.029l-0.204,0.029l-0.205,0.031l-0.204,0.03l-0.408,0.064l-0.203,0.032l-0.204,0.034l-0.406,0.068l-0.203,0.035l-0.404,0.072l-0.202,0.037l-0.404,0.076l-0.402,0.078l-0.201,0.04l-0.201,0.041l-0.2,0.041l-0.4,0.084l-0.2,0.044l-0.2,0.043l-0.199,0.044l-0.199,0.045l-0.398,0.092l-0.198,0.046l-0.198,0.048l-0.198,0.047l-0.198,0.049l-0.197,0.049l-0.591,0.15l-0.196,0.052l-0.197,0.052l-0.196,0.052l-0.196,0.054l-0.195,0.053l-0.195,0.055l-0.195,0.054l-0.39,0.112l-0.388,0.114l-0.194,0.058l-0.193,0.058l-0.194,0.059l-0.193,0.06l-0.192,0.06l-0.193,0.06l-0.192,0.062l-0.192,0.061l-0.384,0.126l-0.191,0.063l-0.191,0.064l-0.191,0.065l-0.19,0.065l-0.19,0.066l-0.19,0.067l-0.19,0.066l-0.189,0.068l-0.19,0.068l-0.189,0.069l-0.188,0.069l-0.189,0.07l-0.188,0.07l-0.188,0.071l-0.187,0.071l-0.188,0.072l-0.374,0.146l-0.186,0.073l-0.186,0.074l-0.372,0.15l-0.185,0.076l-0.186,0.077l-0.184,0.077l-0.185,0.077l-0.184,0.078l-0.552,0.237l-0.183,0.081l-0.183,0.08l-0.182,0.082l-0.183,0.081l-0.182,0.083l-0.181,0.083l-0.182,0.083l-0.181,0.084l-0.362,0.17l-0.18,0.085l-0.18,0.086l-0.179,0.087l-0.18,0.087l-0.358,0.176l-0.178,0.088l-0.168,0.084l-0.366,0.186l-0.355,0.182l-0.353,0.184l-0.352,0.187l-0.35,0.188l-0.35,0.19l-0.348,0.193l-0.347,0.194l-0.346,0.197l-0.344,0.199l-0.343,0.2l-0.342,0.203l-0.34,0.205l-0.34,0.206l-0.338,0.209l-0.336,0.21l-0.335,0.213l-0.334,0.215l-0.333,0.216l-0.331,0.219l-0.33,0.22l-0.328,0.222l-0.327,0.225l-0.326,0.226l-0.324,0.228l-0.323,0.23l-0.321,0.232l-0.32,0.233l-0.319,0.236l-0.317,0.238l-0.316,0.239l-0.314,0.241l-0.313,0.243l-0.311,0.245l-0.31,0.247l-0.308,0.248l-0.307,0.251l-0.305,0.252l-0.304,0.254l-0.302,0.256l-0.301,0.257l-0.299,0.259l-0.297,0.261l-0.296,0.263l-0.295,0.265l-0.292,0.266l-0.292,0.268l-0.289,0.27l-0.288,0.271l-0.287,0.273l-0.284,0.275l-0.284,0.276l-0.281,0.279l-0.28,0.28l-0.278,0.281l-0.276,0.283l-0.275,0.285l-0.273,0.286l-0.272,0.288l-0.269,0.29l-0.268,0.291l-0.267,0.293l-0.264,0.294l-0.263,0.296l-0.261,0.298l-0.259,0.299l-0.258,0.301l-0.256,0.302l-0.253,0.304l-0.253,0.305l-0.25,0.307l-0.248,0.308l-0.247,0.31l-0.245,0.311l-0.243,0.313l-0.241,0.314l-0.24,0.315l-0.237,0.318l-0.236,0.318l-0.234,0.32l-0.231,0.322l-0.23,0.323l-0.229,0.324l-0.226,0.325l-0.224,0.328l-0.222,0.328l-0.221,0.33l-0.218,0.331l-0.217,0.332l-0.214,0.334l-0.213,0.336l-0.21,0.336l-0.209,0.338l-0.207,0.339l-0.204,0.341l-0.203,0.342l-0.201,0.343l-0.198,0.344l-0.197,0.346l-0.194,0.347l-0.193,0.348l-0.19,0.349l-0.189,0.351l-0.186,0.352l-0.184,0.353l-0.182,0.355l-0.186,0.366l-0.084,0.167l-0.088,0.179l-0.089,0.179l-0.174,0.358l-0.087,0.18l-0.172,0.36l-0.085,0.181l-0.168,0.362l-0.083,0.181l-0.166,0.364l-0.081,0.183l-0.082,0.182l-0.08,0.183l-0.081,0.183l-0.237,0.552l-0.078,0.184l-0.077,0.184l-0.077,0.185l-0.077,0.186l-0.076,0.185l-0.15,0.372l-0.074,0.186l-0.073,0.186l-0.146,0.374l-0.072,0.187l-0.142,0.376l-0.07,0.188l-0.07,0.189l-0.069,0.188l-0.069,0.189l-0.068,0.189l-0.068,0.19l-0.066,0.19l-0.067,0.19l-0.066,0.19l-0.065,0.19l-0.065,0.191l-0.064,0.191l-0.063,0.191l-0.126,0.384l-0.061,0.192l-0.062,0.192l-0.06,0.193l-0.06,0.192l-0.06,0.193l-0.059,0.194l-0.058,0.193l-0.058,0.194l-0.114,0.388l-0.056,0.195l-0.165,0.585l-0.053,0.195l-0.106,0.392l-0.052,0.197l-0.051,0.196l-0.051,0.197l-0.1,0.394l-0.049,0.197l-0.096,0.396l-0.094,0.396l-0.092,0.398l-0.044,0.199l-0.045,0.199l-0.129,0.6l-0.042,0.2l-0.041,0.2l-0.12,0.603l-0.039,0.201l-0.038,0.202l-0.111,0.606l-0.035,0.202l-0.036,0.203l-0.068,0.406l-0.033,0.204l-0.033,0.203l-0.032,0.204l-0.062,0.408l-0.03,0.205l-0.03,0.204l-0.029,0.205l-0.028,0.205l-0.028,0.206l-0.027,0.205l-0.052,0.412l-0.05,0.412l-0.023,0.207l-0.024,0.207l-0.066,0.621l-0.06,0.624l-0.019,0.208l-0.018,0.208l-0.034,0.418l-0.032,0.418l-0.015,0.21l-0.014,0.209l-0.014,0.21l-0.013,0.21l-0.012,0.211l-0.011,0.21l-0.022,0.422l-0.018,0.422l-0.009,0.212l-0.008,0.211l-0.007,0.212l-0.012,0.424l-0.005,0.213l-0.004,0.212l-0.004,0.213l-0.003,0.213l-0.004,0.427l-0.001,0.214l0,0.428l0.001,0.215l0.004,0.428l0.003,0.214l0.004,0.213l0.004,0.214l0.006,0.213l0.005,0.213l0.014,0.426l0.008,0.212l0.008,0.213l0.009,0.212l0.01,0.212l0.01,0.211l0.011,0.212l0.024,0.422l0.013,0.211l0.014,0.211l0.03,0.42l0.015,0.211l0.017,0.21l0.034,0.418l0.018,0.21l0.019,0.209l0.02,0.209l0.02,0.208l0.021,0.209l0.021,0.208l0.023,0.208l0.022,0.208l0.024,0.207l0.024,0.208l0.05,0.414l0.026,0.206l0.027,0.207l0.027,0.206l0.056,0.412l0.029,0.206l0.03,0.205l0.093,0.615l0.032,0.205l0.033,0.204l0.068,0.408l0.035,0.204l0.035,0.203l0.036,0.203l0.074,0.406l0.038,0.203l0.038,0.202l0.04,0.202l0.039,0.202l0.041,0.202l0.04,0.201l0.084,0.402l0.043,0.201l0.043,0.2l0.044,0.201l0.045,0.2l0.045,0.199l0.046,0.2l0.046,0.199l0.047,0.199l0.096,0.398l0.049,0.198l0.049,0.199l0.05,0.197l0.051,0.198l0.051,0.197l0.052,0.198l0.052,0.196l0.053,0.197l0.054,0.197l0.108,0.392l0.056,0.196l0.112,0.39l0.057,0.195l0.058,0.195l0.058,0.194l0.059,0.194l0.059,0.195l0.06,0.193l0.061,0.194l0.061,0.193l0.062,0.193l0.062,0.192l0.063,0.193l0.063,0.192l0.064,0.192l0.065,0.192l0.065,0.191l0.132,0.382l0.067,0.191l0.067,0.19l0.068,0.19l0.138,0.38l0.14,0.378l0.071,0.189l0.071,0.188l0.072,0.188l0.146,0.376l0.073,0.187l0.074,0.187l0.15,0.374l0.076,0.186l0.154,0.372l0.077,0.185l0.078,0.186l0.079,0.185l0.079,0.184l0.16,0.368l0.081,0.184l0.081,0.183l0.082,0.184l0.082,0.183l0.083,0.182l0.084,0.183l0.168,0.364l0.085,0.181l0.172,0.362l0.087,0.181l0.087,0.18l0.088,0.18l0.088,0.179l0.089,0.18l0.089,0.179l0.09,0.178l0.091,0.179l0.182,0.356l0.092,0.178l0.186,0.354l0.094,0.177l0.188,0.352l0.095,0.175l0.192,0.35l0.194,0.35l0.098,0.174l0.092,0.163l0.204,0.357l0.2,0.346l0.202,0.344l0.204,0.342l0.206,0.342l0.209,0.34l0.21,0.338l0.212,0.338l0.214,0.336l0.216,0.335l0.218,0.333l0.22,0.332l0.222,0.331l0.224,0.329l0.226,0.328l0.228,0.326l0.23,0.325l0.231,0.324l0.234,0.322l0.235,0.321l0.237,0.319l0.24,0.318l0.241,0.316l0.243,0.315l0.244,0.313l0.247,0.312l0.249,0.31l0.25,0.309l0.252,0.307l0.254,0.306l0.256,0.304l0.257,0.303l0.259,0.301l0.261,0.3l0.263,0.298l0.265,0.296l0.266,0.295l0.268,0.293l0.27,0.292l0.272,0.29l0.273,0.288l0.275,0.287l0.277,0.285l0.278,0.283l0.28,0.282l0.282,0.28l0.283,0.278l0.286,0.277l0.286,0.275l0.289,0.273l0.29,0.272l0.291,0.27l0.293,0.268l0.295,0.266l0.297,0.265l0.298,0.263l0.299,0.261l0.301,0.259l0.303,0.258l0.304,0.256l0.306,0.254l0.307,0.252l0.309,0.25l0.311,0.248l0.311,0.247l0.314,0.245l0.315,0.243l0.316,0.241l0.318,0.239l0.319,0.237l0.321,0.236l0.322,0.233l0.323,0.232l0.325,0.23l0.327,0.227l0.327,0.226l0.33,0.224l0.33,0.222l0.332,0.22l0.334,0.218l0.334,0.216l0.336,0.215l0.338,0.212l0.339,0.21l0.34,0.208l0.341,0.206l0.343,0.204l0.344,0.202l0.345,0.2l0.357,0.204l0.163,0.093l0.175,0.098l0.174,0.097l0.525,0.288l0.352,0.19l0.176,0.094l0.177,0.094l0.177,0.093l0.177,0.092l0.356,0.184l0.177,0.091l0.358,0.18l0.358,0.178l0.18,0.089l0.18,0.087l0.18,0.088l0.181,0.086l0.181,0.087l0.362,0.17l0.182,0.085l0.182,0.084l0.182,0.083l0.366,0.166l0.183,0.082l0.183,0.081l0.184,0.081l0.184,0.08l0.184,0.079l0.185,0.08l0.37,0.156l0.186,0.078l0.185,0.077l0.372,0.152l0.374,0.15l0.187,0.074l0.188,0.074l0.187,0.073l0.376,0.144l0.189,0.072l0.189,0.071l0.378,0.14l0.189,0.068l0.19,0.069l0.191,0.068l0.19,0.068l0.19,0.067l0.382,0.132l0.192,0.065l0.191,0.064l0.192,0.064l0.193,0.064l0.192,0.063l0.193,0.062l0.192,0.062l0.193,0.061l0.582,0.18l0.194,0.058l0.195,0.059l0.195,0.057l0.194,0.057l0.196,0.057l0.195,0.056l0.392,0.11l0.196,0.054l0.196,0.053l0.197,0.054l0.394,0.104l0.198,0.051l0.197,0.05l0.396,0.1l0.199,0.049l0.198,0.048l0.597,0.141l0.2,0.045l0.2,0.046l0.4,0.088l0.201,0.044l0.2,0.042l0.201,0.042l0.202,0.042l0.201,0.041l0.201,0.04l0.202,0.04l0.202,0.039l0.203,0.039l0.202,0.037l0.203,0.038l0.406,0.072l0.204,0.036l0.203,0.034l0.204,0.035l0.204,0.033l0.205,0.033l0.204,0.032l0.205,0.032l0.205,0.031l0.205,0.03l0.206,0.03l0.205,0.029l0.206,0.029l0.207,0.028l0.412,0.054l0.207,0.025l0.206,0.026l0.208,0.025l0.208,0.024l0.414,0.046l0.209,0.022l0.208,0.022l0.208,0.02l0.209,0.021l0.418,0.038l0.418,0.036l0.21,0.017l0.42,0.032l0.21,0.015l0.21,0.014l0.212,0.014l0.211,0.013l0.21,0.012l0.212,0.012l0.422,0.022l0.213,0.009l0.424,0.018l0.213,0.008l0.212,0.007l0.213,0.006l0.214,0.006l0.213,0.005l0.213,0.004l0.214,0.004l0.213,0.003l0.214,0.003l0.644,0.003l0.217,-0.001l0.266,-0.001l-0.03,0l0.112,-0.001l0.286,-0.003l0.037,0l0.148,-0.003l0.249,-0.004l0.022,0l0.02,-0.001l0.158,-0.003l0.226,-0.005l0.033,-0.001l0.028,-0.001l0.155,-0.004l0.21,-0.006l0.038,-0.002l0.035,-0.001l0.156,-0.005l0.199,-0.007l0.044,-0.002l0.039,-0.001l0.153,-0.007l0.188,-0.008l0.053,-0.002l0.046,-0.002l0.147,-0.007l0.175,-0.009l0.061,-0.003l0.055,-0.003l0.141,-0.008l0.167,-0.009l0.067,-0.004l0.062,-0.003l0.135,-0.009l0.157,-0.009l0.076,-0.005l0.068,-0.004l0.129,-0.009l0.148,-0.01l0.083,-0.006l0.076,-0.005l0.122,-0.01l0.14,-0.01l0.09,-0.007l0.081,-0.006l0.117,-0.01l0.131,-0.01l0.097,-0.008l0.089,-0.008l0.11,-0.009l0.122,-0.011l0.106,-0.01l0.094,-0.008l0.103,-0.01l0.117,-0.011l0.111,-0.011l0.1,-0.009l0.097,-0.01l0.228,-0.023l0.106,-0.011l0.09,-0.01l0.1,-0.01l0.127,-0.014l0.114,-0.013l0.083,-0.009l0.092,-0.01l0.134,-0.016l0.119,-0.014l0.078,-0.009l0.083,-0.01l0.142,-0.018l0.125,-0.015l0.071,-0.009l0.076,-0.01l0.15,-0.019l0.131,-0.017l0.062,-0.008l0.069,-0.009l0.16,-0.022l0.133,-0.018l0.057,-0.008l0.063,-0.009l0.167,-0.024l0.189,-0.027l0.055,-0.008l0.176,-0.026l0.144,-0.021l0.043,-0.007l0.046,-0.007l0.189,-0.029l0.144,-0.023l0.036,-0.006l0.042,-0.006l0.199,-0.033l0.146,-0.023l0.028,-0.005l0.034,-0.005l0.215,-0.037l0.146,-0.024l0.022,-0.004l0.026,-0.005l0.232,-0.04l0.145,-0.026l0.015,-0.002l0.013,-0.003l0.267,-0.048l0.125,-0.023l0.016,-0.003l0.354,-0.067l0.053,-0.01l-0.035,0.007l0.233,-0.045l0.26,-0.051l-0.034,0.006l0.028,-0.005l0.359,-0.073l0.006,-0.001l0.001,0l0.119,-0.025l0.269,-0.056l0.025,-0.005l0.013,-0.003l0.127,-0.027l0.238,-0.051l0.024,-0.006l0.02,-0.004l0.139,-0.031l0.215,-0.047l0.036,-0.009l0.027,-0.006l0.135,-0.031l0.203,-0.046l0.041,-0.009l0.032,-0.008l0.135,-0.032l0.191,-0.044l0.048,-0.012l0.037,-0.009l0.132,-0.032l0.179,-0.043l0.056,-0.014l0.172,-0.042l0.232,-0.058l0.051,-0.013l0.121,-0.031l0.16,-0.04l0.07,-0.019l0.057,-0.014l0.116,-0.031l0.151,-0.039l0.077,-0.021l0.063,-0.017l0.111,-0.03l0.142,-0.038l0.087,-0.023l0.068,-0.019l0.104,-0.028l0.135,-0.037l0.091,-0.026l0.075,-0.021l0.099,-0.028l0.125,-0.035l0.101,-0.029l0.079,-0.023l0.093,-0.027l0.118,-0.034l0.109,-0.032l0.084,-0.024l0.085,-0.025l0.113,-0.034l0.203,-0.06l0.081,-0.025l0.104,-0.031l0.124,-0.039l0.094,-0.028l0.072,-0.023l0.098,-0.03l0.133,-0.042l0.096,-0.03l0.068,-0.021l0.09,-0.029l0.14,-0.045l0.101,-0.032l0.061,-0.02l0.084,-0.027l0.149,-0.049l0.104,-0.034l0.056,-0.018l0.075,-0.025l0.16,-0.054l0.106,-0.035l0.048,-0.016l0.07,-0.024l0.17,-0.058l0.108,-0.037l0.042,-0.014l0.063,-0.022l0.183,-0.063l0.106,-0.038l0.036,-0.012l0.056,-0.02l0.198,-0.07l0.105,-0.037l0.027,-0.01l0.049,-0.018l0.217,-0.078l0.099,-0.036l0.023,-0.008l0.041,-0.016l0.239,-0.088l0.087,-0.032l0.014,-0.005l0.038,-0.014l0.272,-0.103l0.068,-0.025l0.009,-0.004l0.029,-0.011l0.325,-0.125l0.027,-0.01l-0.03,0.012l0.226,-0.088l0.386,-0.152l0.192,-0.077l0.384,-0.156l0.191,-0.078l0.236,-0.098l-0.03,0.012l-0.009,0.004l0.009,-0.004l0.331,-0.139l0.039,-0.016l0.006,-0.003l0.033,-0.014l0.294,-0.125l0.04,-0.018l0.011,-0.005l0.056,-0.024l0.261,-0.113l0.046,-0.021l0.059,-0.025l1.033,-0.408l1.059,-0.336l1.079,-0.261l1.095,-0.185l1.106,-0.109l1.11,-0.032l0.107,0.004l0.146,-0.255l0.598,-0.896l0.656,-0.855l0.712,-0.808l0.765,-0.759l0.815,-0.705l0.86,-0.649l0.103,-0.073l0.119,-0.082l0.164,-0.116l0.062,-0.044l0.032,-0.023l0.067,-0.047l0.286,-0.205l0.01,-0.007l-0.028,0.02l0.223,-0.161l0.218,-0.159l-0.013,0.01l0.048,-0.036l0.222,-0.163l0.083,-0.061l0.041,-0.03l0.059,-0.045l0.137,-0.101l0.136,-0.103l0.1,-0.075l0.081,-0.061l0.222,-0.169l0.047,-0.036l-0.012,0.01l0.212,-0.163l0.212,-0.165l-0.024,0.019l0.02,-0.016l0.268,-0.209l0.064,-0.051l0.032,-0.025l0.062,-0.049l0.153,-0.122l0.114,-0.09l0.054,-0.044l0.048,-0.038l0.095,-0.076l0.181,-0.147l0.058,-0.047l-0.002,0.002l0.204,-0.167l0.175,-0.144l0.174,-0.144l0.204,-0.17l-0.001,0.001l0.057,-0.049l0.176,-0.147l0.094,-0.08l0.047,-0.039l0.052,-0.046l0.11,-0.093l0.15,-0.129l0.059,-0.051l0.031,-0.027l0.061,-0.052l0.259,-0.226l0.016,-0.014l-0.024,0.022l0.203,-0.18l0.198,-0.174l-0.011,0.009l0.051,-0.045l0.202,-0.181l0.075,-0.068l0.039,-0.035l0.056,-0.051l0.124,-0.112l0.125,-0.114l0.058,-0.053l0.038,-0.035l0.073,-0.066l0.201,-0.187l0.045,-0.04l-0.011,0.01l0.197,-0.184l0.199,-0.187l-0.022,0.02l0.017,-0.016l0.243,-0.23l0.058,-0.056l0.031,-0.03l0.058,-0.055l0.141,-0.135l0.103,-0.1l0.05,-0.049l0.045,-0.044l0.086,-0.083l0.164,-0.161l0.056,-0.055l-0.001,0.001l0.187,-0.185l0.319,-0.319l0.186,-0.188l0.055,-0.056l0.158,-0.161l0.084,-0.087l0.045,-0.046l0.049,-0.05l0.098,-0.102l0.136,-0.141l0.056,-0.059l0.029,-0.03l0.055,-0.057l0.232,-0.245l0.021,-0.022l-0.02,0.022l0.181,-0.194l0.183,-0.196l-0.009,0.01l0.044,-0.048l0.183,-0.197l0.067,-0.073l0.036,-0.04l0.054,-0.059l0.111,-0.121l0.111,-0.124l0.053,-0.058l0.036,-0.04l0.066,-0.073l0.181,-0.202l0.043,-0.049l-0.009,0.011l0.177,-0.2l0.172,-0.195l-0.019,0.021l0.026,-0.031l0.217,-0.249l0.053,-0.06l0.028,-0.033l0.053,-0.062l0.126,-0.146l0.093,-0.109l0.047,-0.055l0.04,-0.048l0.077,-0.09l0.147,-0.175l0.051,-0.06l0.169,-0.203l0.143,-0.173l0.144,-0.174l0.165,-0.203l0.001,-0.001l0.052,-0.064l0.14,-0.173l0.075,-0.094l0.086,-0.107l0.088,-0.11l0.121,-0.153l0.051,-0.064l0.025,-0.033l0.049,-0.061l0.207,-0.266l0.02,-0.025l-0.019,0.025l0.164,-0.211l0.164,-0.215l-0.008,0.011l0.04,-0.052l0.161,-0.212l0.061,-0.081l0.032,-0.043l0.047,-0.063l0.1,-0.131l0.099,-0.133l0.047,-0.064l0.033,-0.044l0.058,-0.079l0.159,-0.217l0.041,-0.055l-0.008,0.011l0.156,-0.214l0.157,-0.217l-0.017,0.024l0.02,-0.03l0.193,-0.268l0.046,-0.065l0.025,-0.036l0.048,-0.067l0.11,-0.157l0.081,-0.116l0.043,-0.06l0.037,-0.054l0.067,-0.096l0.128,-0.186l0.046,-0.066l0,-0.001l0.149,-0.218l0.127,-0.187l0.126,-0.187l0.146,-0.218l0,-0.001l0.047,-0.07l0.123,-0.186l0.065,-0.1l0.036,-0.054l0.04,-0.061l0.077,-0.118l0.105,-0.163l0.045,-0.069l0.023,-0.037l0.043,-0.067l0.179,-0.279l0.02,-0.032l-0.016,0.026l0.142,-0.225l0.141,-0.225l-0.008,0.011l0.038,-0.061l0.141,-0.227l0.051,-0.084l0.029,-0.046l0.042,-0.069l0.086,-0.14l0.085,-0.142l0.043,-0.07l0.027,-0.046l0.05,-0.083l0.138,-0.231l0.036,-0.061l-0.006,0.011l0.135,-0.228l0.137,-0.235l-0.015,0.025l0.017,-0.029l0.165,-0.285l0.04,-0.069l0.022,-0.038l0.041,-0.073l0.095,-0.167l0.069,-0.122l0.037,-0.065l0.032,-0.058l0.058,-0.102l0.109,-0.197l0.042,-0.074l-0.001,0l0.127,-0.231l0.109,-0.198l0.107,-0.199l0.126,-0.234l0.001,-0.001l0.038,-0.072l0.105,-0.199l0.055,-0.105l0.031,-0.058l0.035,-0.067l0.065,-0.123l0.088,-0.172l0.04,-0.077l0.019,-0.038l0.036,-0.068l0.151,-0.297l0.017,-0.033l-0.014,0.027l0.121,-0.24l0.119,-0.239l-0.006,0.012l0.032,-0.066l0.118,-0.239l0.043,-0.088l0.025,-0.05l0.035,-0.074l0.072,-0.148l0.071,-0.148l0.035,-0.073l0.025,-0.051l0.042,-0.09l0.114,-0.241l0.031,-0.066l-0.005,0.012l0.112,-0.242l0.114,-0.247l-0.012,0.027l0.015,-0.033l0.137,-0.301l0.032,-0.071l0.019,-0.041l0.035,-0.078l0.078,-0.175l0.057,-0.129l0.058,-0.131l0.047,-0.107l0.09,-0.207l0.034,-0.079l0.002,-0.005l0.105,-0.243l0.03,-0.072l0.183,-0.457l0.058,-0.115l0.007,-0.018l0.032,-0.077l0.086,-0.208l0.045,-0.111l0.025,-0.061l0.028,-0.07l0.053,-0.131l0.071,-0.179l0.032,-0.08l0.016,-0.041l0.03,-0.074l0.121,-0.309l0.017,-0.045l-0.01,0.028l0.093,-0.243l0.098,-0.255l-0.005,0.013l0.025,-0.067l0.094,-0.25l0.034,-0.092l0.021,-0.055l0.028,-0.077l0.057,-0.154l0.057,-0.157l0.028,-0.077l0.019,-0.053l0.034,-0.093l0.09,-0.253l0.024,-0.066l-0.005,0.011l0.091,-0.257l0.088,-0.253l-0.01,0.027l0.014,-0.04l0.107,-0.313l0.025,-0.076l0.015,-0.044l0.027,-0.081l0.062,-0.183l0.044,-0.135l0.024,-0.073l0.021,-0.063l0.037,-0.113l0.069,-0.216l0.027,-0.081l0.001,-0.005l0.082,-0.257l-0.065,0.205l-0.013,0.056l0.126,-0.413l0.138,-0.45l0.018,-0.058l0.009,-0.032l0.025,-0.081l0.065,-0.217l0.034,-0.116l0.019,-0.064l0.022,-0.073l0.04,-0.137l0.054,-0.187l0.024,-0.084l0.012,-0.043l0.022,-0.076l0.091,-0.323l0.011,-0.04l-0.008,0.03l0.072,-0.262l0.072,-0.265l-0.003,0.013l0.018,-0.071l0.07,-0.261l0.025,-0.096l0.015,-0.055l0.021,-0.082l0.042,-0.161l0.041,-0.162l0.021,-0.082l0.014,-0.056l0.025,-0.097l0.065,-0.261l0.018,-0.072l-0.003,0.011l0.064,-0.265l0.064,-0.266l-0.007,0.028l0.01,-0.04l0.076,-0.326l0.018,-0.078l0.01,-0.045l0.02,-0.086l0.043,-0.19l0.031,-0.14l0.017,-0.075l0.015,-0.068l0.026,-0.118l0.048,-0.223l0.018,-0.086l0.001,-0.006l0.057,-0.266l-0.049,0.235l-0.003,0.018l0.092,-0.449l0.087,-0.43l0.012,-0.06l0.006,-0.032l0.017,-0.086l0.044,-0.225l0.022,-0.12l0.013,-0.066l0.014,-0.077l0.027,-0.141l0.035,-0.195l0.016,-0.087l0.008,-0.046l0.015,-0.079l0.058,-0.334l0.007,-0.036l-0.005,0.03l0.047,-0.278l0.045,-0.27l-0.002,0.013l0.013,-0.077l0.043,-0.27l0.016,-0.1l0.009,-0.058l0.065,-0.42l0.012,-0.084l0.009,-0.057l0.015,-0.101l0.039,-0.272l0.011,-0.079l-0.001,0.012l0.037,-0.27l0.037,-0.273l-0.004,0.03l0.006,-0.046l0.044,-0.338l0.01,-0.079l0.006,-0.047l0.011,-0.09l0.024,-0.198l0.017,-0.145l0.01,-0.076l0.008,-0.069l0.014,-0.124l0.026,-0.232l0.01,-0.089l0.001,-0.005l0.029,-0.275l0.022,-0.214l0.053,-0.543l0.007,-0.075l0.022,-0.233l0.01,-0.124l0.006,-0.07l0.007,-0.079l0.012,-0.146l0.016,-0.2l0.008,-0.091l0.003,-0.047l0.007,-0.081l0.025,-0.345l0.003,-0.042l-0.002,0.031l0.019,-0.283l0.018,-0.281l0,0.013l0.004,-0.077l0.017,-0.281l0.006,-0.103l0.003,-0.058l0.004,-0.087l0.01,-0.174l0.008,-0.173l0.004,-0.088l0.003,-0.06l0.005,-0.102l0.011,-0.28l0.004,-0.079l-0.001,0.011l0.011,-0.282l0.009,-0.287l-0.001,0.03l0.001,-0.04l0.01,-0.349l0.002,-0.083l0.002,-0.048l0.001,-0.092l0.005,-0.204l0.002,-0.149l0.002,-0.08l0.001,-0.072l0.002,-0.126l0.002,-0.239l0.001,-0.091l0,-0.006l0.002,-0.284l0,-0.451l-0.001,-0.214l-0.002,-0.214l-0.002,-0.213l-0.003,-0.212l-0.004,-0.214l-0.004,-0.212l-0.005,-0.213l-0.012,-0.424l-0.007,-0.211l-0.008,-0.212l-0.009,-0.212l-0.009,-0.211l-0.009,-0.212l-0.011,-0.21l-0.01,-0.21l-0.024,-0.422l-0.013,-0.209l-0.014,-0.21l-0.014,-0.211l-0.015,-0.209l-0.032,-0.418l-0.017,-0.209l-0.017,-0.208l-0.018,-0.209l-0.019,-0.208l-0.06,-0.624l-0.022,-0.208l-0.022,-0.206l-0.022,-0.207l-0.024,-0.207l-0.023,-0.207l-0.05,-0.412l-0.052,-0.412l-0.027,-0.205l-0.028,-0.206l-0.028,-0.205l-0.029,-0.204l-0.06,-0.41l-0.062,-0.408l-0.032,-0.204l-0.033,-0.203l-0.033,-0.204l-0.068,-0.406l-0.036,-0.203l-0.035,-0.202l-0.111,-0.606l-0.038,-0.202l-0.039,-0.201l-0.12,-0.603l-0.041,-0.2l-0.042,-0.2l-0.086,-0.4l-0.043,-0.199l-0.09,-0.4l-0.045,-0.198l-0.046,-0.198l-0.047,-0.199l-0.047,-0.198l-0.048,-0.198l-0.048,-0.197l-0.049,-0.198l-0.05,-0.197l-0.05,-0.198l-0.102,-0.392l-0.052,-0.197l-0.106,-0.392l-0.053,-0.195l-0.165,-0.585l-0.056,-0.195l-0.114,-0.388l-0.058,-0.194l-0.058,-0.193l-0.059,-0.193l-0.06,-0.194l-0.06,-0.193l-0.06,-0.192l-0.061,-0.192l-0.062,-0.192l-0.063,-0.193l-0.063,-0.19l-0.063,-0.192l-0.065,-0.191l-0.064,-0.191l-0.065,-0.19l-0.132,-0.38l-0.068,-0.191l-0.067,-0.189l-0.068,-0.189l-0.069,-0.189l-0.069,-0.188l-0.07,-0.189l-0.07,-0.188l-0.071,-0.188l-0.071,-0.187l-0.072,-0.188l-0.072,-0.187l-0.074,-0.187l-0.073,-0.186l-0.074,-0.186l-0.075,-0.186l-0.076,-0.187l-0.075,-0.184l-0.077,-0.186l-0.077,-0.185l-0.077,-0.184l-0.078,-0.184l-0.237,-0.552l-0.081,-0.183l-0.08,-0.183l-0.081,-0.182l-0.082,-0.183l-0.166,-0.364l-0.083,-0.181l-0.168,-0.362l-0.085,-0.18l-0.086,-0.181l-0.086,-0.18l-0.087,-0.18l-0.174,-0.358l-0.089,-0.179l-0.088,-0.179l-0.084,-0.167l-0.186,-0.366l-0.182,-0.355l-0.184,-0.353l-0.187,-0.352l-0.188,-0.351l-0.19,-0.349l-0.193,-0.348l-0.194,-0.347l-0.197,-0.346l-0.198,-0.344l-0.201,-0.343l-0.203,-0.342l-0.204,-0.341l-0.207,-0.339l-0.209,-0.338l-0.21,-0.336l-0.213,-0.336l-0.214,-0.333l-0.217,-0.333l-0.218,-0.331l-0.221,-0.33l-0.222,-0.328l-0.224,-0.328l-0.226,-0.325l-0.229,-0.324l-0.229,-0.323l-0.232,-0.322l-0.234,-0.32l-0.236,-0.318l-0.237,-0.317l-0.24,-0.316l-0.241,-0.314l-0.243,-0.313l-0.245,-0.311l-0.247,-0.31l-0.248,-0.309l-0.25,-0.306l-0.253,-0.305l-0.254,-0.304l-0.255,-0.302l-0.258,-0.301l-0.259,-0.299l-0.261,-0.298l-0.263,-0.296l-0.264,-0.294l-0.267,-0.293l-0.268,-0.291l-0.269,-0.29l-0.272,-0.288l-0.273,-0.286l-0.275,-0.285l-0.276,-0.283l-0.278,-0.282l-0.28,-0.279l-0.281,-0.279l-0.284,-0.276l-0.284,-0.275l-0.287,-0.273l-0.288,-0.271l-0.289,-0.27l-0.292,-0.268l-0.292,-0.266l-0.295,-0.265l-0.296,-0.263l-0.297,-0.261l-0.299,-0.259l-0.301,-0.257l-0.302,-0.256l-0.304,-0.254l-0.305,-0.252l-0.307,-0.251l-0.308,-0.248l-0.31,-0.247l-0.311,-0.245l-0.313,-0.243l-0.314,-0.241l-0.316,-0.239l-0.317,-0.238l-0.319,-0.236l-0.32,-0.233l-0.321,-0.232l-0.323,-0.23l-0.324,-0.228l-0.326,-0.227l-0.327,-0.224l-0.328,-0.222l-0.33,-0.22l-0.331,-0.219l-0.333,-0.216l-0.334,-0.215l-0.335,-0.213l-0.336,-0.21l-0.338,-0.209l-0.34,-0.206l-0.34,-0.205l-0.342,-0.203l-0.343,-0.2l-0.344,-0.199l-0.346,-0.197l-0.347,-0.194l-0.348,-0.193l-0.35,-0.19l-0.35,-0.188l-0.352,-0.187l-0.353,-0.184l-0.355,-0.182l-0.366,-0.186l-0.168,-0.084l-0.178,-0.088l-0.358,-0.176l-0.179,-0.087l-0.18,-0.087l-0.18,-0.086l-0.18,-0.085l-0.362,-0.17l-0.181,-0.084l-0.182,-0.083l-0.181,-0.083l-0.182,-0.083l-0.183,-0.081l-0.182,-0.082l-0.183,-0.08l-0.183,-0.081l-0.552,-0.237l-0.184,-0.078l-0.184,-0.077l-0.186,-0.077l-0.185,-0.077l-0.185,-0.076l-0.372,-0.15l-0.186,-0.074l-0.186,-0.073l-0.374,-0.146l-0.188,-0.072l-0.187,-0.071l-0.376,-0.142l-0.189,-0.069l-0.188,-0.069l-0.189,-0.069l-0.19,-0.068l-0.189,-0.068l-0.19,-0.067l-0.38,-0.132l-0.19,-0.065l-0.191,-0.065l-0.191,-0.064l-0.191,-0.063l-0.384,-0.126l-0.192,-0.061l-0.192,-0.062l-0.193,-0.06l-0.192,-0.06l-0.193,-0.06l-0.194,-0.059l-0.193,-0.058l-0.194,-0.058l-0.388,-0.114l-0.39,-0.112l-0.195,-0.054l-0.195,-0.055l-0.196,-0.053l-0.195,-0.054l-0.392,-0.104l-0.197,-0.052l-0.591,-0.15l-0.197,-0.049l-0.198,-0.049l-0.198,-0.047l-0.198,-0.048l-0.198,-0.046l-0.398,-0.092l-0.199,-0.045l-0.199,-0.044l-0.2,-0.043l-0.199,-0.044l-0.201,-0.042l-0.2,-0.042l-0.2,-0.041l-0.201,-0.041l-0.201,-0.04l-0.402,-0.078l-0.404,-0.076l-0.202,-0.037l-0.404,-0.072l-0.203,-0.035l-0.406,-0.068l-0.204,-0.034l-0.203,-0.032l-0.408,-0.064l-0.204,-0.03l-0.205,-0.031l-0.204,-0.029l-0.205,-0.029l-0.41,-0.056l-0.412,-0.054l-0.618,-0.075l-0.207,-0.024l-0.414,-0.046l-0.207,-0.022l-0.207,-0.021l-0.208,-0.021l-0.208,-0.02l-0.416,-0.038l-0.208,-0.018l-0.209,-0.018l-0.209,-0.017l-0.209,-0.016l-0.209,-0.015l-0.21,-0.015l-0.209,-0.014l-0.21,-0.014l-0.21,-0.013l-0.21,-0.012l-0.211,-0.012l-0.211,-0.011l-0.422,-0.02l-0.211,-0.009l-0.211,-0.008l-0.212,-0.008l-0.212,-0.007l-0.424,-0.012l-0.213,-0.005l-0.212,-0.005l-0.639,-0.009l-0.201,-0.001l-0.442,-0.002l-0.442,0.002Zm61.291,91.933l-0.014,0.035l0.067,-0.157l-0.053,0.122Zm0.241,-0.572l-0.006,0.015l-0.023,0.056l-0.159,0.379l0.208,-0.49l-0.02,0.04Zm4.662,-18.48l-0.004,0.04l0.005,-0.048l-0.001,0.008Zm0.111,-1.13l-0.058,0.587l-0.001,0.013l-0.003,0.036l-0.006,0.062l-0.042,0.424l0.004,-0.038l0.096,-0.75l0.131,-0.745l0.166,-0.737l-0.287,1.148Z" style="fill:#4d4d4d;"/></g><g><path d="M100.074,116.154l69.758,0l-14.29,-14.29l22.183,0l22.2,22.2l-22.2,22.199l-22.16,0l14.475,-14.475l-69.966,0l0,-15.634Z" style="fill:#4b4b4b;"/></g><g><path d="M200.087,153.447l-69.758,0l14.29,-14.29l-22.183,0l-22.2,22.2l22.2,22.199l22.16,0l-14.475,-14.475l69.966,0l0,-15.634Z" style="fill:#4b4b4b;"/></g></g></g></svg>