<?xml version="1.0" encoding="UTF-8" standalone="no"?><!DOCTYPE svg PUBLIC "-//W3C//DTD SVG 1.1//EN" "http://www.w3.org/Graphics/SVG/1.1/DTD/svg11.dtd"><svg width="100%" height="100%" viewBox="0 0 300 300" version="1.1" xmlns="http://www.w3.org/2000/svg" xmlns:xlink="http://www.w3.org/1999/xlink" xml:space="preserve" xmlns:serif="http://www.serif.com/" style="fill-rule:evenodd;clip-rule:evenodd;stroke-linejoin:round;stroke-miterlimit:2;"><g id="Background"><g><path d="M300,30.271c0,-16.707 -13.564,-30.271 -30.271,-30.271l-239.458,0c-16.707,0 -30.271,13.564 -30.271,30.271l0,239.458c0,16.707 13.564,30.271 30.271,30.271l239.458,0c16.707,0 30.271,-13.564 30.271,-30.271l0,-239.458Z" style="fill:#fffefe;"/><path d="M300,30.271c0,-16.707 -13.564,-30.271 -30.271,-30.271l-239.458,0c-16.707,0 -30.271,13.564 -30.271,30.271l0,239.458c0,16.707 13.564,30.271 30.271,30.271l239.458,0c16.707,0 30.271,-13.564 30.271,-30.271l0,-239.458Zm-16,-0l0,239.458c0,7.877 -6.394,14.271 -14.271,14.271l-239.458,0c-7.877,0 -14.271,-6.394 -14.271,-14.271l0,-239.458c0,-7.877 6.394,-14.271 14.271,-14.271l239.458,0c7.877,0 14.271,6.394 14.271,14.271Z" style="fill:rgb(16,158,0);"/></g></g><g id="Layer3"><path d="M91.423,219.789c-0.182,0.003 -0.362,0.004 -0.543,0.004c-22.574,0 -40.9,-17.525 -40.9,-39.113c0,-19.369 14.756,-35.47 34.095,-38.572c0.496,-34.396 29.845,-62.17 65.925,-62.17c36.08,0 65.43,27.774 65.925,62.17c19.339,3.103 34.095,19.203 34.095,38.572c0,21.587 -18.326,39.113 -40.9,39.113c-0.283,0 -0.565,-0.003 -0.845,-0.009l0,0.005l-116.852,0Zm-0.543,-13.32l118.241,0c14.559,0 26.379,-11.303 26.379,-25.226c0,-12.22 -9.106,-22.422 -21.177,-24.734l-0.231,-0.044l-0.089,-0.015l-0.233,-0.042l-0.09,-0.015l-0.233,-0.039l-0.094,-0.014l-0.231,-0.035l-0.099,-0.014l-0.228,-0.032l-0.106,-0.014l-0.222,-0.028l-0.114,-0.014l-0.215,-0.025l-0.124,-0.013l-0.205,-0.021l-0.135,-0.012l-0.197,-0.018l-0.145,-0.012l-0.188,-0.015l-0.157,-0.01l-0.177,-0.012l-0.168,-0.009l-0.167,-0.01l-0.18,-0.007l-0.156,-0.007l-0.197,-0.006l-0.141,-0.004l-0.223,-0.004l-0.115,-0.002l-0.34,-0.003l-0.33,0.002l-0.33,0.006l-0.131,0.004l-0.197,0.006l-0.139,0.006l-0.189,0.008l-0.143,0.007l-0.183,0.01l-0.146,0.009l-0.179,0.013l-0.147,0.011l-0.176,0.014l-0.148,0.012l-0.175,0.016l-0.148,0.015l-0.174,0.018l-0.148,0.016l-0.172,0.02l-0.148,0.018l-0.172,0.022l-0.147,0.02l-0.173,0.024l-0.145,0.021l-0.174,0.027l-0.142,0.022l-0.185,0.031l-0.131,0.021l-0.306,0.055l-0.149,0.029l-0.163,0.031l-0.159,0.032l-0.151,0.031l-0.162,0.034l-0.146,0.032l-0.165,0.037l-0.143,0.033l-0.165,0.039l-0.14,0.034l-0.166,0.042l-0.139,0.035l-0.166,0.043l-0.136,0.037l-0.167,0.045l-0.135,0.038l-0.167,0.048l-0.132,0.039l-0.168,0.05l-0.13,0.039l-0.169,0.053l-0.127,0.04l-0.169,0.055l-0.123,0.041l-0.172,0.058l-0.117,0.04l-0.175,0.061l-0.09,0.032l-0.195,0.069l-0.152,0.057l-0.078,0.03c1.518,-4.659 2.337,-9.615 2.337,-14.753c0,-27.372 -23.237,-49.594 -51.86,-49.594c-28.623,0 -51.86,22.222 -51.86,49.594c0,5.138 0.818,10.094 2.337,14.753l-0.078,-0.03l-0.152,-0.057l-0.195,-0.069l-0.09,-0.032l-0.175,-0.061l-0.117,-0.04l-0.172,-0.058l-0.123,-0.041l-0.169,-0.055l-0.127,-0.04l-0.169,-0.053l-0.13,-0.039l-0.168,-0.05l-0.132,-0.039l-0.167,-0.048l-0.135,-0.038l-0.167,-0.045l-0.136,-0.037l-0.166,-0.043l-0.139,-0.035l-0.166,-0.042l-0.14,-0.034l-0.165,-0.039l-0.143,-0.033l-0.165,-0.037l-0.146,-0.032l-0.162,-0.034l-0.151,-0.031l-0.159,-0.032l-0.163,-0.031l-0.149,-0.029l-0.306,-0.055l-0.131,-0.021l-0.185,-0.031l-0.142,-0.022l-0.174,-0.027l-0.145,-0.021l-0.173,-0.024l-0.147,-0.02l-0.172,-0.022l-0.148,-0.018l-0.172,-0.02l-0.148,-0.016l-0.174,-0.018l-0.148,-0.015l-0.175,-0.016l-0.148,-0.012l-0.176,-0.014l-0.147,-0.011l-0.179,-0.013l-0.146,-0.009l-0.183,-0.01l-0.143,-0.007l-0.189,-0.008l-0.139,-0.006l-0.197,-0.006l-0.131,-0.004l-0.33,-0.006l-0.33,-0.002l-0.34,0.003l-0.115,0.002l-0.223,0.004l-0.141,0.004l-0.197,0.006l-0.156,0.007l-0.18,0.007l-0.167,0.01l-0.168,0.009l-0.177,0.012l-0.157,0.01l-0.188,0.015l-0.145,0.012l-0.197,0.018l-0.135,0.012l-0.205,0.021l-0.124,0.013l-0.215,0.025l-0.114,0.014l-0.222,0.028l-0.106,0.014l-0.228,0.032l-0.099,0.014l-0.231,0.035l-0.094,0.014l-0.233,0.039l-0.09,0.015l-0.233,0.042l-0.089,0.015l-0.231,0.044c-12.071,2.312 -21.177,12.515 -21.177,24.734c0,13.923 11.82,25.226 26.379,25.226Z" style="fill:rgb(16,158,0);"/></g></svg>