<?xml version="1.0" encoding="UTF-8" standalone="no"?><!DOCTYPE svg PUBLIC "-//W3C//DTD SVG 1.1//EN" "http://www.w3.org/Graphics/SVG/1.1/DTD/svg11.dtd"><svg width="100%" height="100%" viewBox="0 0 213 206" version="1.1" xmlns="http://www.w3.org/2000/svg" xmlns:xlink="http://www.w3.org/1999/xlink" xml:space="preserve" xmlns:serif="http://www.serif.com/" style="fill-rule:evenodd;clip-rule:evenodd;stroke-miterlimit:1.5;"><g><g><path d="M206.029,126.483c0,-13.516 -10.974,-24.49 -24.49,-24.49l-151.048,0c-13.516,0 -24.49,10.975 -24.49,24.49l0,48.981c0,13.517 10.974,24.49 24.49,24.49l151.048,0c13.516,0 24.49,-10.973 24.49,-24.49l0,-48.981Z" style="fill:#fffefe;"/><path d="M181.539,101.993l0.474,0.005l0.157,0.003l0.315,0.01l0.157,0.007l0.313,0.016l0.155,0.01l0.156,0.01l0.311,0.023l0.155,0.013l0.155,0.015l0.154,0.015l0.155,0.016l0.154,0.018l0.154,0.016l0.154,0.02l0.153,0.02l0.305,0.043l0.304,0.046l0.152,0.025l0.302,0.053l0.151,0.028l0.15,0.028l0.3,0.059l0.298,0.063l0.149,0.033l0.148,0.035l0.147,0.035l0.148,0.035l0.147,0.036l0.146,0.038l0.147,0.038l0.146,0.04l0.145,0.04l0.291,0.082l0.144,0.043l0.144,0.044l0.287,0.089l0.144,0.046l0.143,0.046l0.143,0.048l0.283,0.099l0.142,0.051l0.141,0.051l0.14,0.051l0.14,0.053l0.14,0.054l0.278,0.109l0.138,0.056l0.276,0.115l0.137,0.059l0.272,0.119l0.136,0.061l0.271,0.125l0.134,0.063l0.267,0.128l0.133,0.066l0.265,0.135l0.132,0.068l0.132,0.069l0.131,0.069l0.389,0.212l0.129,0.074l0.128,0.072l0.128,0.074l0.128,0.076l0.127,0.076l0.126,0.076l0.126,0.077l0.125,0.077l0.125,0.079l0.124,0.079l0.37,0.242l0.123,0.082l0.122,0.082l0.122,0.084l0.121,0.084l0.121,0.086l0.12,0.086l0.119,0.087l0.119,0.086l0.236,0.178l0.117,0.089l0.116,0.089l0.116,0.091l0.23,0.184l0.114,0.092l0.113,0.092l0.113,0.096l0.112,0.094l0.112,0.096l0.111,0.096l0.112,0.097l0.219,0.194l0.218,0.198l0.108,0.1l0.214,0.201l0.106,0.102l0.105,0.102l0.105,0.104l0.104,0.104l0.103,0.104l0.103,0.105l0.102,0.105l0.101,0.105l0.101,0.107l0.1,0.107l0.101,0.107l0.099,0.109l0.099,0.11l0.098,0.109l0.194,0.221l0.096,0.112l0.19,0.224l0.187,0.227l0.093,0.115l0.091,0.114l0.091,0.115l0.091,0.117l0.179,0.234l0.089,0.117l0.088,0.119l0.174,0.237l0.086,0.12l0.085,0.12l0.084,0.12l0.166,0.244l0.082,0.123l0.081,0.122l0.161,0.247l0.08,0.125l0.079,0.125l0.078,0.125l0.077,0.127l0.077,0.125l0.075,0.128l0.075,0.127l0.148,0.257l0.072,0.128l0.072,0.13l0.07,0.128l0.07,0.132l0.069,0.13l0.069,0.132l0.135,0.263l0.132,0.267l0.065,0.133l0.064,0.133l0.064,0.135l0.124,0.27l0.06,0.135l0.06,0.137l0.059,0.137l0.059,0.137l0.058,0.138l0.113,0.277l0.055,0.138l0.055,0.14l0.053,0.138l0.053,0.14l0.052,0.142l0.051,0.14l0.05,0.142l0.049,0.142l0.048,0.142l0.048,0.143l0.047,0.143l0.047,0.142l0.045,0.145l0.045,0.143l0.086,0.29l0.082,0.29l0.04,0.147l0.039,0.145l0.075,0.293l0.037,0.148l0.036,0.147l0.035,0.148l0.034,0.148l0.033,0.148l0.032,0.15l0.031,0.15l0.03,0.148l0.029,0.15l0.028,0.151l0.027,0.15l0.027,0.151l0.026,0.15l0.025,0.151l0.024,0.153l0.022,0.151l0.022,0.153l0.021,0.151l0.02,0.153l0.019,0.153l0.018,0.155l0.016,0.153l0.016,0.155l0.016,0.153l0.027,0.31l0.012,0.156l0.012,0.155l0.01,0.156l0.009,0.156l0.009,0.155l0.007,0.158l0.006,0.156l0.005,0.156l0.005,0.158l0.003,0.156l0.003,0.158l0.002,0.158l0,49.297l-0.002,0.158l-0.005,0.316l-0.005,0.156l-0.005,0.158l-0.006,0.156l-0.007,0.156l-0.018,0.313l-0.01,0.155l-0.012,0.156l-0.012,0.155l-0.027,0.31l-0.016,0.155l-0.016,0.155l-0.016,0.153l-0.018,0.153l-0.019,0.153l-0.02,0.153l-0.021,0.153l-0.022,0.153l-0.022,0.151l-0.024,0.151l-0.025,0.151l-0.026,0.151l-0.027,0.15l-0.027,0.151l-0.028,0.15l-0.029,0.15l-0.03,0.15l-0.031,0.15l-0.032,0.148l-0.033,0.148l-0.034,0.148l-0.035,0.148l-0.036,0.148l-0.037,0.147l-0.075,0.293l-0.039,0.147l-0.04,0.147l-0.082,0.29l-0.043,0.145l-0.043,0.143l-0.045,0.145l-0.045,0.143l-0.093,0.287l-0.048,0.142l-0.048,0.142l-0.049,0.142l-0.05,0.142l-0.051,0.142l-0.052,0.14l-0.106,0.28l-0.055,0.138l-0.055,0.14l-0.113,0.277l-0.058,0.137l-0.059,0.137l-0.059,0.137l-0.121,0.273l-0.124,0.27l-0.064,0.133l-0.064,0.135l-0.065,0.133l-0.066,0.133l-0.066,0.132l-0.068,0.133l-0.068,0.132l-0.069,0.13l-0.069,0.132l-0.141,0.26l-0.072,0.128l-0.072,0.13l-0.148,0.257l-0.15,0.254l-0.077,0.127l-0.077,0.125l-0.078,0.127l-0.079,0.123l-0.08,0.125l-0.161,0.247l-0.081,0.123l-0.082,0.122l-0.166,0.244l-0.084,0.12l-0.085,0.122l-0.086,0.119l-0.087,0.12l-0.087,0.119l-0.088,0.117l-0.089,0.119l-0.179,0.234l-0.091,0.115l-0.183,0.231l-0.28,0.341l-0.19,0.224l-0.096,0.112l-0.194,0.221l-0.098,0.11l-0.197,0.217l-0.101,0.109l-0.1,0.107l-0.101,0.105l-0.101,0.107l-0.102,0.105l-0.103,0.105l-0.103,0.104l-0.104,0.104l-0.21,0.204l-0.106,0.102l-0.107,0.102l-0.107,0.1l-0.108,0.099l-0.218,0.198l-0.11,0.099l-0.11,0.097l-0.112,0.096l-0.111,0.097l-0.112,0.096l-0.112,0.094l-0.227,0.188l-0.114,0.092l-0.115,0.092l-0.115,0.091l-0.232,0.181l-0.117,0.089l-0.118,0.089l-0.118,0.087l-0.119,0.087l-0.119,0.086l-0.12,0.087l-0.241,0.168l-0.243,0.168l-0.123,0.081l-0.123,0.082l-0.247,0.161l-0.124,0.079l-0.125,0.077l-0.125,0.079l-0.126,0.077l-0.126,0.076l-0.127,0.076l-0.384,0.222l-0.129,0.072l-0.13,0.072l-0.26,0.142l-0.131,0.069l-0.132,0.069l-0.132,0.068l-0.133,0.068l-0.133,0.066l-0.133,0.066l-0.267,0.128l-0.134,0.064l-0.135,0.063l-0.135,0.061l-0.272,0.122l-0.136,0.059l-0.137,0.058l-0.138,0.059l-0.276,0.112l-0.139,0.056l-0.139,0.054l-0.42,0.158l-0.141,0.051l-0.142,0.051l-0.142,0.049l-0.142,0.048l-0.285,0.096l-0.144,0.044l-0.144,0.046l-0.144,0.044l-0.289,0.086l-0.436,0.123l-0.146,0.038l-0.147,0.038l-0.146,0.038l-0.147,0.036l-0.148,0.036l-0.147,0.035l-0.148,0.033l-0.298,0.066l-0.149,0.031l-0.3,0.059l-0.15,0.028l-0.151,0.028l-0.151,0.026l-0.151,0.025l-0.304,0.049l-0.152,0.021l-0.153,0.023l-0.305,0.04l-0.154,0.02l-0.154,0.018l-0.154,0.016l-0.155,0.016l-0.154,0.015l-0.155,0.015l-0.155,0.013l-0.155,0.013l-0.155,0.012l-0.156,0.01l-0.155,0.01l-0.156,0.008l-0.156,0.007l-0.157,0.007l-0.315,0.01l-0.157,0.003l-0.158,0.003l-0.158,0.002l-151.365,0l-0.158,-0.002l-0.315,-0.007l-0.315,-0.01l-0.157,-0.007l-0.156,-0.007l-0.156,-0.008l-0.155,-0.01l-0.156,-0.01l-0.155,-0.012l-0.155,-0.013l-0.155,-0.013l-0.155,-0.015l-0.154,-0.015l-0.155,-0.016l-0.154,-0.016l-0.154,-0.018l-0.154,-0.02l-0.305,-0.04l-0.153,-0.023l-0.152,-0.021l-0.304,-0.049l-0.151,-0.025l-0.151,-0.026l-0.151,-0.028l-0.15,-0.028l-0.3,-0.059l-0.149,-0.031l-0.298,-0.066l-0.148,-0.033l-0.147,-0.035l-0.148,-0.036l-0.147,-0.036l-0.146,-0.038l-0.147,-0.038l-0.146,-0.038l-0.436,-0.123l-0.289,-0.086l-0.144,-0.044l-0.144,-0.046l-0.144,-0.044l-0.285,-0.096l-0.142,-0.048l-0.142,-0.049l-0.142,-0.051l-0.141,-0.051l-0.42,-0.158l-0.139,-0.054l-0.139,-0.056l-0.276,-0.112l-0.138,-0.059l-0.137,-0.058l-0.136,-0.059l-0.272,-0.122l-0.135,-0.061l-0.135,-0.063l-0.134,-0.064l-0.267,-0.128l-0.133,-0.066l-0.133,-0.066l-0.133,-0.068l-0.132,-0.068l-0.132,-0.069l-0.131,-0.069l-0.26,-0.142l-0.13,-0.072l-0.129,-0.072l-0.384,-0.222l-0.127,-0.076l-0.126,-0.076l-0.126,-0.077l-0.125,-0.079l-0.125,-0.077l-0.124,-0.079l-0.247,-0.161l-0.123,-0.082l-0.123,-0.081l-0.243,-0.168l-0.241,-0.168l-0.12,-0.087l-0.119,-0.086l-0.119,-0.087l-0.118,-0.087l-0.118,-0.089l-0.117,-0.089l-0.232,-0.181l-0.115,-0.091l-0.115,-0.092l-0.114,-0.092l-0.227,-0.188l-0.112,-0.094l-0.112,-0.096l-0.111,-0.097l-0.112,-0.096l-0.11,-0.097l-0.11,-0.099l-0.218,-0.198l-0.108,-0.099l-0.107,-0.1l-0.107,-0.102l-0.106,-0.102l-0.21,-0.204l-0.104,-0.104l-0.103,-0.104l-0.103,-0.105l-0.102,-0.105l-0.101,-0.107l-0.101,-0.105l-0.1,-0.107l-0.101,-0.109l-0.197,-0.217l-0.098,-0.11l-0.194,-0.221l-0.096,-0.112l-0.19,-0.224l-0.28,-0.341l-0.183,-0.231l-0.091,-0.115l-0.179,-0.234l-0.089,-0.119l-0.088,-0.117l-0.087,-0.119l-0.087,-0.12l-0.086,-0.119l-0.085,-0.122l-0.084,-0.12l-0.166,-0.244l-0.082,-0.122l-0.081,-0.123l-0.161,-0.247l-0.08,-0.125l-0.079,-0.123l-0.078,-0.127l-0.077,-0.125l-0.077,-0.127l-0.15,-0.254l-0.148,-0.257l-0.072,-0.13l-0.072,-0.128l-0.141,-0.26l-0.069,-0.132l-0.069,-0.13l-0.068,-0.132l-0.068,-0.133l-0.066,-0.132l-0.066,-0.133l-0.065,-0.133l-0.064,-0.135l-0.064,-0.133l-0.124,-0.27l-0.121,-0.273l-0.059,-0.137l-0.059,-0.137l-0.058,-0.137l-0.113,-0.277l-0.055,-0.14l-0.055,-0.138l-0.106,-0.28l-0.052,-0.14l-0.051,-0.142l-0.05,-0.142l-0.049,-0.142l-0.048,-0.142l-0.048,-0.142l-0.093,-0.287l-0.045,-0.143l-0.045,-0.145l-0.043,-0.143l-0.043,-0.145l-0.082,-0.29l-0.04,-0.147l-0.039,-0.147l-0.075,-0.293l-0.037,-0.147l-0.036,-0.148l-0.035,-0.148l-0.034,-0.148l-0.033,-0.148l-0.032,-0.148l-0.031,-0.15l-0.03,-0.15l-0.029,-0.15l-0.028,-0.15l-0.027,-0.151l-0.027,-0.15l-0.026,-0.151l-0.025,-0.151l-0.024,-0.151l-0.022,-0.151l-0.022,-0.153l-0.021,-0.153l-0.02,-0.153l-0.019,-0.153l-0.018,-0.153l-0.016,-0.153l-0.016,-0.155l-0.016,-0.155l-0.027,-0.31l-0.012,-0.155l-0.012,-0.156l-0.01,-0.155l-0.018,-0.313l-0.007,-0.156l-0.006,-0.156l-0.005,-0.158l-0.005,-0.156l-0.005,-0.316l-0.002,-0.158l0,-49.297l0.002,-0.158l0.003,-0.158l0.003,-0.156l0.005,-0.158l0.005,-0.156l0.006,-0.156l0.007,-0.158l0.009,-0.155l0.009,-0.156l0.01,-0.156l0.012,-0.155l0.012,-0.156l0.027,-0.31l0.016,-0.153l0.016,-0.155l0.016,-0.153l0.018,-0.155l0.019,-0.153l0.02,-0.153l0.021,-0.151l0.022,-0.153l0.022,-0.151l0.024,-0.153l0.025,-0.151l0.026,-0.15l0.027,-0.151l0.027,-0.15l0.028,-0.151l0.029,-0.15l0.03,-0.148l0.031,-0.15l0.032,-0.15l0.033,-0.148l0.034,-0.148l0.035,-0.148l0.036,-0.147l0.037,-0.148l0.075,-0.293l0.039,-0.145l0.04,-0.147l0.082,-0.29l0.086,-0.29l0.045,-0.143l0.045,-0.145l0.047,-0.142l0.047,-0.143l0.048,-0.143l0.048,-0.142l0.049,-0.142l0.05,-0.142l0.051,-0.14l0.052,-0.142l0.053,-0.14l0.053,-0.138l0.055,-0.14l0.055,-0.138l0.113,-0.277l0.058,-0.138l0.059,-0.137l0.059,-0.137l0.06,-0.137l0.06,-0.135l0.124,-0.27l0.064,-0.135l0.064,-0.133l0.065,-0.133l0.132,-0.267l0.135,-0.263l0.069,-0.132l0.069,-0.13l0.07,-0.132l0.07,-0.128l0.072,-0.13l0.072,-0.128l0.148,-0.257l0.075,-0.127l0.075,-0.128l0.077,-0.125l0.077,-0.127l0.078,-0.125l0.079,-0.125l0.08,-0.125l0.161,-0.247l0.081,-0.122l0.082,-0.123l0.166,-0.244l0.084,-0.12l0.085,-0.12l0.086,-0.12l0.174,-0.237l0.088,-0.119l0.089,-0.117l0.179,-0.234l0.091,-0.117l0.091,-0.115l0.091,-0.114l0.093,-0.115l0.187,-0.227l0.19,-0.224l0.096,-0.112l0.194,-0.221l0.098,-0.109l0.099,-0.11l0.099,-0.109l0.101,-0.107l0.1,-0.107l0.101,-0.107l0.101,-0.105l0.102,-0.105l0.103,-0.105l0.103,-0.104l0.104,-0.104l0.105,-0.104l0.105,-0.102l0.106,-0.102l0.214,-0.201l0.108,-0.1l0.218,-0.198l0.219,-0.194l0.112,-0.097l0.111,-0.096l0.112,-0.096l0.112,-0.094l0.113,-0.096l0.113,-0.092l0.114,-0.092l0.23,-0.184l0.116,-0.091l0.116,-0.089l0.117,-0.089l0.236,-0.178l0.119,-0.086l0.119,-0.087l0.12,-0.086l0.121,-0.086l0.121,-0.084l0.122,-0.084l0.122,-0.082l0.123,-0.082l0.37,-0.242l0.124,-0.079l0.125,-0.079l0.125,-0.077l0.126,-0.077l0.126,-0.076l0.127,-0.076l0.128,-0.076l0.128,-0.074l0.128,-0.072l0.129,-0.074l0.389,-0.212l0.131,-0.069l0.132,-0.069l0.132,-0.068l0.265,-0.135l0.133,-0.066l0.267,-0.128l0.134,-0.063l0.271,-0.125l0.136,-0.061l0.272,-0.119l0.137,-0.059l0.276,-0.115l0.138,-0.056l0.278,-0.109l0.14,-0.054l0.14,-0.053l0.14,-0.051l0.141,-0.051l0.142,-0.051l0.283,-0.099l0.143,-0.048l0.143,-0.046l0.144,-0.046l0.287,-0.089l0.144,-0.044l0.144,-0.043l0.291,-0.082l0.145,-0.04l0.146,-0.04l0.147,-0.038l0.146,-0.038l0.147,-0.036l0.148,-0.035l0.147,-0.035l0.148,-0.035l0.149,-0.033l0.298,-0.063l0.3,-0.059l0.15,-0.028l0.151,-0.028l0.302,-0.053l0.152,-0.025l0.304,-0.046l0.305,-0.043l0.153,-0.02l0.154,-0.02l0.154,-0.016l0.154,-0.018l0.155,-0.016l0.154,-0.015l0.155,-0.015l0.155,-0.013l0.311,-0.023l0.156,-0.01l0.155,-0.01l0.313,-0.016l0.157,-0.007l0.315,-0.01l0.157,-0.003l0.474,-0.005l151.048,0Zm0.082,12.001l-151.213,0l-0.326,0.007l-0.162,0.007l-0.08,0.003l-0.241,0.015l-0.08,0.005l-0.159,0.013l-0.157,0.016l-0.08,0.008l-0.079,0.008l-0.078,0.008l-0.079,0.01l-0.078,0.012l-0.078,0.01l-0.078,0.012l-0.077,0.012l-0.078,0.012l-0.307,0.053l-0.228,0.044l-0.075,0.016l-0.076,0.016l-0.15,0.033l-0.225,0.054l-0.074,0.018l-0.148,0.04l-0.073,0.02l-0.074,0.021l-0.219,0.064l-0.073,0.023l-0.072,0.023l-0.073,0.023l-0.071,0.023l-0.144,0.049l-0.071,0.025l-0.071,0.026l-0.071,0.025l-0.143,0.053l-0.282,0.112l-0.07,0.03l-0.069,0.028l-0.069,0.03l-0.069,0.031l-0.069,0.03l-0.069,0.031l-0.069,0.031l-0.069,0.031l-0.068,0.033l-0.069,0.031l-0.068,0.035l-0.135,0.066l-0.133,0.069l-0.068,0.035l-0.067,0.036l-0.132,0.072l-0.067,0.036l-0.066,0.036l-0.065,0.038l-0.066,0.038l-0.065,0.038l-0.064,0.04l-0.065,0.038l-0.128,0.079l-0.064,0.041l-0.064,0.04l-0.189,0.123l-0.249,0.171l-0.061,0.043l-0.184,0.133l-0.06,0.044l-0.121,0.092l-0.178,0.138l-0.176,0.143l-0.058,0.048l-0.058,0.049l-0.058,0.048l-0.058,0.049l-0.057,0.049l-0.057,0.051l-0.057,0.049l-0.112,0.102l-0.055,0.051l-0.056,0.051l-0.055,0.053l-0.054,0.053l-0.054,0.051l-0.054,0.054l-0.054,0.053l-0.053,0.053l-0.053,0.054l-0.156,0.163l-0.052,0.056l-0.051,0.054l-0.05,0.056l-0.051,0.056l-0.05,0.056l-0.049,0.058l-0.05,0.056l-0.048,0.058l-0.049,0.058l-0.097,0.115l-0.048,0.059l-0.048,0.058l-0.048,0.059l-0.093,0.119l-0.046,0.059l-0.046,0.061l-0.046,0.059l-0.09,0.122l-0.088,0.122l-0.044,0.063l-0.043,0.061l-0.043,0.063l-0.126,0.188l-0.041,0.063l-0.04,0.064l-0.041,0.063l-0.04,0.064l-0.118,0.193l-0.038,0.066l-0.038,0.064l-0.075,0.132l-0.037,0.064l-0.037,0.066l-0.108,0.199l-0.104,0.203l-0.033,0.066l-0.034,0.069l-0.066,0.135l-0.032,0.069l-0.032,0.068l-0.062,0.138l-0.06,0.138l-0.029,0.069l-0.03,0.069l-0.028,0.071l-0.028,0.069l-0.028,0.071l-0.055,0.142l-0.053,0.142l-0.026,0.072l-0.026,0.071l-0.025,0.071l-0.049,0.145l-0.023,0.072l-0.024,0.072l-0.023,0.072l-0.044,0.145l-0.022,0.074l-0.021,0.072l-0.021,0.074l-0.02,0.074l-0.019,0.074l-0.02,0.074l-0.037,0.148l-0.018,0.076l-0.017,0.074l-0.017,0.076l-0.016,0.074l-0.016,0.076l-0.031,0.151l-0.015,0.076l-0.015,0.077l-0.027,0.151l-0.026,0.155l-0.024,0.155l-0.011,0.077l-0.02,0.155l-0.01,0.079l-0.009,0.077l-0.009,0.079l-0.008,0.079l-0.022,0.237l-0.006,0.079l-0.005,0.081l-0.005,0.079l-0.009,0.161l-0.007,0.161l-0.003,0.081l-0.002,0.082l-0.004,0.163l-0.001,0.081l0,49.145l0.001,0.082l0.005,0.244l0.003,0.082l0.007,0.161l0.005,0.079l0.005,0.081l0.005,0.081l0.005,0.079l0.006,0.079l0.007,0.081l0.015,0.158l0.008,0.077l0.018,0.158l0.01,0.077l0.01,0.079l0.01,0.077l0.011,0.077l0.024,0.155l0.013,0.076l0.013,0.077l0.014,0.077l0.014,0.076l0.029,0.151l0.016,0.077l0.016,0.074l0.033,0.151l0.017,0.076l0.035,0.148l0.019,0.076l0.018,0.074l0.019,0.074l0.04,0.148l0.021,0.072l0.021,0.074l0.044,0.145l0.022,0.074l0.023,0.072l0.024,0.072l0.023,0.072l0.025,0.071l0.049,0.145l0.051,0.142l0.027,0.071l0.027,0.072l0.027,0.071l0.027,0.069l0.057,0.142l0.028,0.069l0.03,0.069l0.029,0.071l0.06,0.138l0.031,0.069l0.031,0.068l0.032,0.069l0.032,0.068l0.033,0.069l0.033,0.068l0.101,0.203l0.035,0.068l0.035,0.066l0.036,0.068l0.036,0.066l0.11,0.198l0.075,0.132l0.077,0.128l0.118,0.193l0.04,0.064l0.041,0.064l0.04,0.063l0.041,0.063l0.042,0.064l0.084,0.125l0.043,0.061l0.043,0.063l0.044,0.061l0.044,0.063l0.044,0.059l0.09,0.122l0.046,0.061l0.046,0.059l0.047,0.061l0.046,0.059l0.048,0.059l0.047,0.058l0.048,0.059l0.048,0.058l0.048,0.059l0.048,0.058l0.049,0.058l0.048,0.056l0.05,0.058l0.049,0.056l0.101,0.112l0.052,0.056l0.05,0.056l0.052,0.054l0.052,0.056l0.104,0.109l0.053,0.053l0.053,0.054l0.162,0.158l0.055,0.053l0.054,0.051l0.056,0.053l0.055,0.051l0.056,0.051l0.056,0.049l0.057,0.051l0.113,0.099l0.115,0.099l0.057,0.048l0.059,0.049l0.117,0.096l0.059,0.046l0.059,0.046l0.059,0.048l0.06,0.046l0.059,0.046l0.06,0.044l0.061,0.046l0.06,0.044l0.06,0.043l0.062,0.044l0.061,0.044l0.062,0.043l0.061,0.043l0.063,0.041l0.062,0.043l0.189,0.123l0.064,0.041l0.192,0.119l0.065,0.04l0.065,0.038l0.064,0.038l0.066,0.038l0.065,0.038l0.066,0.038l0.066,0.036l0.133,0.072l0.066,0.035l0.067,0.035l0.135,0.069l0.067,0.035l0.135,0.066l0.069,0.033l0.068,0.031l0.069,0.033l0.069,0.031l0.069,0.03l0.069,0.031l0.069,0.03l0.139,0.059l0.071,0.03l0.069,0.028l0.07,0.028l0.069,0.026l0.071,0.028l0.143,0.053l0.07,0.026l0.071,0.025l0.073,0.026l0.071,0.025l0.071,0.023l0.072,0.025l0.073,0.023l0.072,0.023l0.072,0.021l0.074,0.023l0.146,0.043l0.073,0.02l0.222,0.059l0.075,0.02l0.148,0.036l0.076,0.016l0.075,0.018l0.15,0.033l0.076,0.015l0.076,0.016l0.076,0.015l0.076,0.013l0.077,0.015l0.077,0.013l0.078,0.013l0.076,0.012l0.077,0.013l0.078,0.012l0.078,0.01l0.078,0.012l0.079,0.01l0.155,0.02l0.079,0.008l0.08,0.008l0.079,0.008l0.079,0.007l0.08,0.007l0.08,0.007l0.08,0.007l0.159,0.01l0.081,0.003l0.08,0.005l0.08,0.003l0.081,0.002l0.081,0.003l0.163,0.003l151.378,0l0.163,-0.003l0.082,-0.003l0.08,-0.002l0.08,-0.003l0.08,-0.005l0.081,-0.003l0.159,-0.01l0.08,-0.007l0.08,-0.007l0.08,-0.007l0.079,-0.007l0.079,-0.008l0.08,-0.008l0.079,-0.008l0.155,-0.02l0.079,-0.01l0.078,-0.012l0.078,-0.01l0.078,-0.012l0.077,-0.013l0.076,-0.012l0.078,-0.013l0.077,-0.013l0.076,-0.015l0.077,-0.013l0.076,-0.015l0.076,-0.016l0.076,-0.015l0.15,-0.033l0.075,-0.018l0.076,-0.016l0.148,-0.036l0.075,-0.02l0.222,-0.059l0.073,-0.02l0.146,-0.043l0.074,-0.023l0.071,-0.021l0.146,-0.046l0.072,-0.025l0.071,-0.023l0.071,-0.025l0.073,-0.026l0.071,-0.025l0.07,-0.026l0.143,-0.053l0.07,-0.026l0.141,-0.056l0.069,-0.028l0.071,-0.03l0.139,-0.059l0.069,-0.03l0.069,-0.031l0.069,-0.03l0.069,-0.031l0.069,-0.033l0.068,-0.031l0.069,-0.033l0.135,-0.066l0.067,-0.035l0.135,-0.069l0.067,-0.035l0.066,-0.035l0.133,-0.072l0.066,-0.036l0.066,-0.038l0.065,-0.038l0.065,-0.036l0.065,-0.04l0.065,-0.038l0.066,-0.04l0.064,-0.04l0.063,-0.04l0.064,-0.04l0.064,-0.041l0.126,-0.082l0.062,-0.041l0.063,-0.041l0.063,-0.043l0.062,-0.043l0.06,-0.043l0.124,-0.089l0.06,-0.043l0.06,-0.044l0.061,-0.046l0.06,-0.044l0.059,-0.046l0.06,-0.046l0.059,-0.046l0.059,-0.048l0.059,-0.046l0.117,-0.096l0.059,-0.049l0.057,-0.048l0.115,-0.099l0.113,-0.099l0.057,-0.051l0.056,-0.049l0.055,-0.051l0.056,-0.051l0.056,-0.053l0.054,-0.051l0.11,-0.105l0.053,-0.053l0.054,-0.053l0.159,-0.163l0.051,-0.053l0.052,-0.056l0.052,-0.054l0.05,-0.056l0.052,-0.056l0.101,-0.112l0.049,-0.056l0.05,-0.058l0.048,-0.058l0.049,-0.056l0.048,-0.058l0.048,-0.059l0.048,-0.058l0.095,-0.119l0.047,-0.058l0.046,-0.059l0.047,-0.061l0.046,-0.059l0.045,-0.061l0.046,-0.061l0.045,-0.061l0.088,-0.122l0.043,-0.061l0.044,-0.063l0.043,-0.063l0.042,-0.061l0.042,-0.063l0.042,-0.064l0.041,-0.063l0.04,-0.063l0.121,-0.193l0.079,-0.128l0.038,-0.064l0.037,-0.064l0.038,-0.068l0.037,-0.064l0.037,-0.066l0.037,-0.066l0.071,-0.132l0.071,-0.135l0.034,-0.066l0.101,-0.203l0.033,-0.068l0.033,-0.069l0.032,-0.068l0.032,-0.069l0.031,-0.068l0.031,-0.069l0.06,-0.138l0.029,-0.071l0.03,-0.069l0.028,-0.069l0.057,-0.142l0.055,-0.142l0.027,-0.069l0.027,-0.072l0.051,-0.142l0.049,-0.145l0.024,-0.071l0.048,-0.145l0.023,-0.072l0.023,-0.074l0.021,-0.072l0.022,-0.072l0.042,-0.148l0.02,-0.072l0.019,-0.074l0.02,-0.074l0.037,-0.148l0.018,-0.076l0.017,-0.074l0.017,-0.076l0.016,-0.076l0.016,-0.074l0.016,-0.077l0.016,-0.076l0.029,-0.151l0.014,-0.076l0.014,-0.077l0.013,-0.077l0.013,-0.076l0.024,-0.155l0.011,-0.077l0.01,-0.077l0.01,-0.079l0.01,-0.077l0.018,-0.158l0.008,-0.077l0.007,-0.081l0.007,-0.077l0.007,-0.079l0.006,-0.081l0.005,-0.079l0.005,-0.081l0.005,-0.081l0.005,-0.079l0.004,-0.081l0.004,-0.082l0.003,-0.081l0.002,-0.081l0.004,-0.165l0.001,-0.081l0,-49.145l-0.001,-0.081l-0.004,-0.165l-0.002,-0.081l-0.003,-0.081l-0.007,-0.161l-0.009,-0.161l-0.005,-0.081l-0.005,-0.079l-0.006,-0.079l-0.022,-0.237l-0.008,-0.079l-0.009,-0.077l-0.009,-0.081l-0.03,-0.232l-0.011,-0.077l-0.024,-0.155l-0.013,-0.077l-0.013,-0.076l-0.027,-0.155l-0.029,-0.151l-0.031,-0.151l-0.016,-0.076l-0.016,-0.074l-0.017,-0.076l-0.017,-0.074l-0.018,-0.076l-0.037,-0.148l-0.02,-0.076l-0.019,-0.072l-0.02,-0.074l-0.021,-0.074l-0.021,-0.072l-0.022,-0.074l-0.021,-0.072l-0.046,-0.145l-0.071,-0.217l-0.025,-0.072l-0.025,-0.071l-0.026,-0.071l-0.026,-0.072l-0.053,-0.142l-0.055,-0.142l-0.028,-0.071l-0.057,-0.138l-0.03,-0.071l-0.029,-0.069l-0.06,-0.138l-0.031,-0.069l-0.032,-0.069l-0.031,-0.068l-0.032,-0.069l-0.033,-0.068l-0.033,-0.069l-0.068,-0.135l-0.034,-0.066l-0.034,-0.068l-0.036,-0.068l-0.107,-0.198l-0.074,-0.133l-0.037,-0.064l-0.037,-0.066l-0.038,-0.066l-0.038,-0.064l-0.079,-0.128l-0.04,-0.064l-0.039,-0.064l-0.041,-0.063l-0.04,-0.063l-0.041,-0.064l-0.126,-0.188l-0.043,-0.063l-0.044,-0.061l-0.043,-0.063l-0.044,-0.061l-0.045,-0.061l-0.044,-0.061l-0.046,-0.061l-0.045,-0.059l-0.046,-0.061l-0.046,-0.059l-0.093,-0.119l-0.048,-0.059l-0.048,-0.058l-0.048,-0.059l-0.097,-0.115l-0.099,-0.115l-0.049,-0.056l-0.049,-0.058l-0.05,-0.056l-0.102,-0.112l-0.05,-0.054l-0.052,-0.056l-0.052,-0.054l-0.051,-0.054l-0.106,-0.109l-0.054,-0.053l-0.053,-0.054l-0.108,-0.105l-0.055,-0.051l-0.054,-0.053l-0.056,-0.051l-0.055,-0.051l-0.112,-0.102l-0.057,-0.051l-0.113,-0.099l-0.058,-0.049l-0.058,-0.048l-0.058,-0.049l-0.058,-0.048l-0.176,-0.143l-0.06,-0.046l-0.059,-0.046l-0.059,-0.046l-0.121,-0.092l-0.06,-0.044l-0.061,-0.044l-0.06,-0.044l-0.062,-0.044l-0.123,-0.086l-0.062,-0.043l-0.126,-0.086l-0.062,-0.041l-0.126,-0.082l-0.064,-0.04l-0.064,-0.041l-0.063,-0.04l-0.065,-0.04l-0.065,-0.038l-0.064,-0.04l-0.066,-0.038l-0.13,-0.076l-0.066,-0.036l-0.067,-0.036l-0.132,-0.072l-0.067,-0.035l-0.067,-0.036l-0.068,-0.035l-0.067,-0.035l-0.135,-0.066l-0.068,-0.035l-0.069,-0.031l-0.068,-0.033l-0.069,-0.031l-0.069,-0.031l-0.069,-0.031l-0.069,-0.03l-0.069,-0.031l-0.07,-0.03l-0.069,-0.028l-0.069,-0.03l-0.211,-0.084l-0.07,-0.026l-0.07,-0.028l-0.072,-0.026l-0.071,-0.025l-0.071,-0.026l-0.071,-0.025l-0.144,-0.049l-0.071,-0.023l-0.146,-0.046l-0.072,-0.023l-0.219,-0.064l-0.074,-0.021l-0.073,-0.02l-0.148,-0.04l-0.074,-0.018l-0.225,-0.054l-0.15,-0.033l-0.076,-0.016l-0.075,-0.016l-0.152,-0.03l-0.077,-0.015l-0.076,-0.013l-0.23,-0.04l-0.078,-0.012l-0.077,-0.012l-0.078,-0.012l-0.078,-0.01l-0.078,-0.012l-0.079,-0.01l-0.078,-0.008l-0.079,-0.008l-0.08,-0.008l-0.157,-0.016l-0.159,-0.013l-0.08,-0.005l-0.241,-0.015l-0.161,-0.007l-0.081,-0.003l-0.244,-0.005l-0.082,-0.002Z" style="fill:rgb(227,28,0);"/></g><g><path d="M180.331,162.539c0,-3.072 -2.494,-5.566 -5.566,-5.566l-137.502,0c-3.072,0 -5.566,2.494 -5.566,5.566l0,11.132c0,3.072 2.494,5.566 5.566,5.566l137.502,0c3.072,0 5.566,-2.494 5.566,-5.566l0,-11.132Z" style="fill:#fffefe;"/><path d="M174.837,156.974l0.071,0.001l0.071,0.002l0.071,0.003l0.071,0.004l0.071,0.005l0.071,0.006l0.07,0.007l0.07,0.008l0.07,0.008l0.069,0.009l0.069,0.01l0.069,0.011l0.069,0.012l0.068,0.013l0.068,0.013l0.068,0.014l0.067,0.015l0.067,0.016l0.067,0.017l0.066,0.018l0.067,0.018l0.066,0.019l0.065,0.02l0.065,0.021l0.065,0.021l0.065,0.022l0.064,0.023l0.064,0.024l0.063,0.025l0.063,0.025l0.062,0.026l0.062,0.027l0.062,0.027l0.061,0.028l0.061,0.029l0.06,0.03l0.06,0.031l0.06,0.031l0.059,0.032l0.059,0.032l0.058,0.033l0.058,0.034l0.058,0.034l0.057,0.035l0.057,0.036l0.056,0.037l0.056,0.037l0.055,0.038l0.055,0.039l0.054,0.039l0.054,0.04l0.053,0.04l0.053,0.041l0.052,0.042l0.052,0.042l0.052,0.043l0.051,0.043l0.05,0.044l0.05,0.045l0.049,0.045l0.049,0.046l0.048,0.046l0.047,0.047l0.048,0.048l0.046,0.048l0.046,0.049l0.046,0.049l0.045,0.05l0.043,0.05l0.043,0.051l0.043,0.051l0.043,0.052l0.041,0.052l0.082,0.106l0.039,0.054l0.039,0.054l0.039,0.055l0.037,0.055l0.037,0.056l0.037,0.056l0.036,0.057l0.035,0.057l0.034,0.058l0.034,0.058l0.033,0.058l0.033,0.059l0.032,0.06l0.031,0.06l0.031,0.06l0.03,0.061l0.029,0.061l0.028,0.061l0.028,0.062l0.026,0.062l0.052,0.126l0.024,0.063l0.024,0.064l0.023,0.064l0.022,0.064l0.042,0.13l0.02,0.065l0.019,0.066l0.018,0.066l0.018,0.066l0.017,0.067l0.016,0.067l0.016,0.067l0.014,0.068l0.014,0.068l0.024,0.137l0.011,0.069l0.01,0.069l0.01,0.069l0.008,0.07l0.007,0.07l0.007,0.07l0.011,0.141l0.004,0.071l0.005,0.143l0.001,0.071l0,11.276l-0.001,0.072l-0.003,0.071l-0.003,0.071l-0.004,0.071l-0.005,0.071l-0.005,0.07l-0.007,0.07l-0.007,0.07l-0.008,0.07l-0.01,0.07l-0.01,0.069l-0.011,0.069l-0.024,0.137l-0.014,0.068l-0.014,0.068l-0.031,0.135l-0.017,0.067l-0.018,0.067l-0.018,0.066l-0.019,0.066l-0.02,0.065l-0.021,0.065l-0.021,0.065l-0.022,0.064l-0.023,0.064l-0.024,0.064l-0.024,0.063l-0.026,0.063l-0.026,0.062l-0.026,0.062l-0.028,0.062l-0.028,0.061l-0.029,0.061l-0.03,0.061l-0.031,0.06l-0.031,0.06l-0.032,0.06l-0.033,0.059l-0.033,0.059l-0.034,0.058l-0.034,0.058l-0.035,0.057l-0.036,0.057l-0.037,0.056l-0.037,0.056l-0.037,0.055l-0.039,0.055l-0.039,0.054l-0.039,0.054l-0.041,0.054l-0.041,0.053l-0.041,0.052l-0.043,0.052l-0.043,0.051l-0.043,0.051l-0.043,0.05l-0.045,0.05l-0.046,0.049l-0.046,0.048l-0.046,0.048l-0.048,0.048l-0.047,0.047l-0.048,0.046l-0.049,0.046l-0.049,0.045l-0.05,0.045l-0.05,0.044l-0.051,0.044l-0.052,0.043l-0.052,0.042l-0.052,0.042l-0.053,0.041l-0.053,0.04l-0.054,0.04l-0.054,0.039l-0.11,0.076l-0.056,0.037l-0.056,0.037l-0.114,0.071l-0.058,0.034l-0.058,0.034l-0.058,0.033l-0.059,0.033l-0.059,0.032l-0.06,0.031l-0.06,0.03l-0.06,0.03l-0.061,0.029l-0.061,0.028l-0.062,0.028l-0.062,0.027l-0.062,0.026l-0.063,0.025l-0.063,0.024l-0.064,0.024l-0.064,0.023l-0.065,0.022l-0.065,0.022l-0.065,0.021l-0.065,0.02l-0.066,0.019l-0.067,0.019l-0.066,0.017l-0.067,0.017l-0.067,0.016l-0.067,0.015l-0.068,0.015l-0.068,0.013l-0.068,0.013l-0.069,0.012l-0.069,0.011l-0.069,0.01l-0.069,0.009l-0.07,0.009l-0.07,0.007l-0.07,0.007l-0.071,0.006l-0.071,0.005l-0.071,0.004l-0.071,0.003l-0.071,0.002l-0.071,0.001l-0.072,0l-137.502,0l-0.072,-0l-0.071,-0.001l-0.071,-0.002l-0.071,-0.003l-0.071,-0.004l-0.071,-0.005l-0.071,-0.006l-0.07,-0.007l-0.07,-0.007l-0.07,-0.009l-0.069,-0.009l-0.069,-0.01l-0.069,-0.011l-0.069,-0.012l-0.068,-0.013l-0.068,-0.013l-0.068,-0.015l-0.067,-0.015l-0.067,-0.016l-0.067,-0.017l-0.066,-0.017l-0.067,-0.019l-0.066,-0.019l-0.065,-0.02l-0.065,-0.021l-0.065,-0.022l-0.065,-0.022l-0.064,-0.023l-0.064,-0.024l-0.063,-0.024l-0.063,-0.025l-0.062,-0.026l-0.062,-0.027l-0.062,-0.028l-0.061,-0.028l-0.061,-0.029l-0.06,-0.03l-0.06,-0.03l-0.06,-0.031l-0.059,-0.032l-0.059,-0.033l-0.058,-0.033l-0.058,-0.034l-0.058,-0.034l-0.114,-0.071l-0.056,-0.037l-0.056,-0.037l-0.11,-0.076l-0.054,-0.039l-0.054,-0.04l-0.053,-0.04l-0.053,-0.041l-0.052,-0.042l-0.052,-0.042l-0.052,-0.043l-0.051,-0.044l-0.05,-0.044l-0.05,-0.045l-0.049,-0.045l-0.049,-0.046l-0.048,-0.046l-0.047,-0.047l-0.048,-0.048l-0.046,-0.048l-0.046,-0.048l-0.046,-0.049l-0.045,-0.05l-0.043,-0.05l-0.043,-0.051l-0.043,-0.051l-0.043,-0.052l-0.041,-0.052l-0.041,-0.053l-0.041,-0.054l-0.039,-0.054l-0.039,-0.054l-0.039,-0.055l-0.037,-0.055l-0.037,-0.056l-0.037,-0.056l-0.036,-0.057l-0.035,-0.057l-0.034,-0.058l-0.034,-0.058l-0.033,-0.059l-0.033,-0.059l-0.032,-0.06l-0.031,-0.06l-0.031,-0.06l-0.03,-0.061l-0.029,-0.061l-0.028,-0.061l-0.028,-0.062l-0.026,-0.062l-0.026,-0.062l-0.026,-0.063l-0.024,-0.063l-0.024,-0.064l-0.023,-0.064l-0.022,-0.064l-0.021,-0.065l-0.021,-0.065l-0.02,-0.065l-0.019,-0.066l-0.018,-0.066l-0.018,-0.067l-0.017,-0.067l-0.031,-0.135l-0.014,-0.068l-0.014,-0.068l-0.024,-0.137l-0.011,-0.069l-0.01,-0.069l-0.01,-0.07l-0.008,-0.07l-0.007,-0.07l-0.007,-0.07l-0.005,-0.07l-0.005,-0.071l-0.004,-0.071l-0.003,-0.071l-0.003,-0.071l-0.001,-0.072l0,-11.276l0.001,-0.071l0.005,-0.143l0.004,-0.071l0.011,-0.141l0.007,-0.07l0.007,-0.07l0.008,-0.07l0.01,-0.069l0.01,-0.069l0.011,-0.069l0.024,-0.137l0.014,-0.068l0.014,-0.068l0.016,-0.067l0.016,-0.067l0.017,-0.067l0.018,-0.066l0.018,-0.066l0.019,-0.066l0.02,-0.065l0.042,-0.13l0.022,-0.064l0.023,-0.064l0.024,-0.064l0.024,-0.063l0.052,-0.126l0.026,-0.062l0.028,-0.062l0.028,-0.061l0.029,-0.061l0.03,-0.061l0.031,-0.06l0.031,-0.06l0.032,-0.06l0.033,-0.059l0.033,-0.058l0.034,-0.058l0.034,-0.058l0.035,-0.057l0.036,-0.057l0.037,-0.056l0.037,-0.056l0.037,-0.055l0.039,-0.055l0.039,-0.054l0.039,-0.054l0.082,-0.106l0.041,-0.052l0.043,-0.052l0.043,-0.051l0.043,-0.051l0.043,-0.05l0.045,-0.05l0.046,-0.049l0.046,-0.049l0.046,-0.048l0.048,-0.048l0.047,-0.047l0.048,-0.046l0.049,-0.046l0.049,-0.045l0.05,-0.045l0.05,-0.044l0.051,-0.043l0.052,-0.043l0.052,-0.042l0.052,-0.042l0.053,-0.041l0.053,-0.04l0.054,-0.04l0.054,-0.039l0.055,-0.039l0.055,-0.038l0.056,-0.037l0.056,-0.037l0.057,-0.036l0.057,-0.035l0.058,-0.034l0.058,-0.034l0.058,-0.033l0.059,-0.032l0.059,-0.032l0.06,-0.031l0.06,-0.031l0.06,-0.03l0.061,-0.029l0.061,-0.028l0.062,-0.027l0.062,-0.027l0.062,-0.026l0.063,-0.025l0.063,-0.025l0.064,-0.024l0.064,-0.023l0.065,-0.022l0.065,-0.021l0.065,-0.021l0.065,-0.02l0.066,-0.019l0.067,-0.018l0.066,-0.018l0.067,-0.017l0.067,-0.016l0.067,-0.015l0.068,-0.014l0.068,-0.013l0.068,-0.013l0.069,-0.012l0.069,-0.011l0.069,-0.01l0.069,-0.009l0.07,-0.008l0.07,-0.008l0.07,-0.007l0.071,-0.006l0.071,-0.005l0.071,-0.004l0.071,-0.003l0.071,-0.002l0.071,-0.001l0.072,-0.001l137.502,0l0.072,0.001Zm-0.055,5l-137.536,0l-0.024,0.001l-0.007,0.001l-0.007,0l-0.015,0.001l-0.007,0.001l-0.007,0.001l-0.02,0.003l-0.006,0.001l-0.007,0.001l-0.007,0.001l-0.012,0.003l-0.007,0.001l-0.005,0.002l-0.006,0.001l-0.012,0.004l-0.007,0.002l-0.005,0.002l-0.007,0.002l-0.006,0.002l-0.005,0.002l-0.006,0.002l-0.031,0.013l-0.012,0.006l-0.006,0.003l-0.006,0.003l-0.018,0.01l-0.005,0.003l-0.006,0.003l-0.005,0.004l-0.006,0.004l-0.006,0.004l-0.006,0.004l-0.005,0.004l-0.005,0.004l-0.006,0.004l-0.005,0.004l-0.006,0.004l-0.005,0.004l-0.016,0.013l-0.016,0.015l-0.005,0.004l-0.011,0.01l-0.01,0.01l-0.005,0.005l-0.005,0.006l-0.005,0.005l-0.005,0.006l-0.005,0.006l-0.004,0.005l-0.005,0.005l-0.005,0.006l-0.005,0.006l-0.004,0.005l-0.004,0.006l-0.008,0.011l-0.004,0.006l-0.008,0.011l-0.003,0.006l-0.004,0.006l-0.003,0.006l-0.003,0.006l-0.014,0.024l-0.003,0.006l-0.003,0.006l-0.016,0.036l-0.002,0.006l-0.003,0.006l-0.002,0.006l-0.006,0.018l-0.002,0.006l-0.002,0.006l-0.002,0.006l-0.001,0.006l-0.002,0.006l-0.004,0.019l-0.004,0.02l-0.001,0.007l-0.001,0.007l-0.001,0.007l-0.001,0.014l-0.001,0.007l-0.001,0.015l0,0.007l-0.001,0.016l0,11.182l0.001,0.015l0,0.008l0.001,0.015l0.001,0.007l0.001,0.014l0.001,0.007l0.001,0.007l0.001,0.007l0.003,0.013l0.003,0.013l0.003,0.012l0.002,0.006l0.001,0.006l0.002,0.006l0.002,0.006l0.004,0.012l0.002,0.006l0.002,0.006l0.01,0.024l0.003,0.006l0.003,0.006l0.008,0.018l0.003,0.006l0.003,0.006l0.01,0.018l0.003,0.006l0.007,0.012l0.004,0.006l0.003,0.006l0.004,0.006l0.008,0.011l0.004,0.006l0.004,0.006l0.004,0.005l0.004,0.006l0.005,0.006l0.005,0.006l0.005,0.005l0.01,0.011l0.014,0.016l0.005,0.005l0.005,0.005l0.005,0.005l0.005,0.005l0.022,0.019l0.011,0.009l0.005,0.005l0.005,0.004l0.011,0.008l0.006,0.004l0.012,0.008l0.005,0.004l0.006,0.004l0.024,0.015l0.011,0.006l0.006,0.003l0.007,0.003l0.005,0.003l0.018,0.009l0.012,0.005l0.012,0.005l0.018,0.007l0.024,0.008l0.012,0.003l0.007,0.002l0.006,0.001l0.007,0.002l0.006,0.001l0.006,0.001l0.014,0.003l0.006,0.001l0.007,0.001l0.006,0.001l0.007,0.001l0.007,0.001l0.007,0.001l0.015,0.001l0.007,0.001l0.007,0l0.008,0.001l0.007,0l0.017,0.001l137.518,0l0.017,-0.001l0.007,0l0.008,-0.001l0.007,-0l0.029,-0.003l0.007,-0.001l0.007,-0.001l0.006,-0.001l0.007,-0.001l0.006,-0.001l0.014,-0.003l0.006,-0.001l0.007,-0.001l0.006,-0.002l0.006,-0.001l0.012,-0.003l0.007,-0.002l0.006,-0.002l0.005,-0.002l0.006,-0.002l0.006,-0.002l0.007,-0.003l0.006,-0.002l0.005,-0.002l0.012,-0.005l0.005,-0.003l0.006,-0.003l0.018,-0.009l0.005,-0.003l0.007,-0.003l0.006,-0.003l0.005,-0.003l0.006,-0.003l0.024,-0.015l0.006,-0.004l0.005,-0.004l0.005,-0.004l0.006,-0.004l0.006,-0.004l0.005,-0.004l0.006,-0.004l0.005,-0.004l0.012,-0.01l0.005,-0.004l0.022,-0.019l0.005,-0.005l0.005,-0.005l0.005,-0.005l0.005,-0.005l0.005,-0.006l0.005,-0.005l0.005,-0.006l0.005,-0.005l0.004,-0.006l0.005,-0.005l0.005,-0.006l0.004,-0.006l0.005,-0.006l0.004,-0.006l0.004,-0.006l0.008,-0.011l0.004,-0.006l0.004,-0.006l0.003,-0.006l0.004,-0.006l0.007,-0.012l0.003,-0.006l0.01,-0.018l0.003,-0.006l0.003,-0.006l0.008,-0.018l0.005,-0.013l0.003,-0.006l0.002,-0.006l0.003,-0.006l0.002,-0.006l0.002,-0.006l0.002,-0.006l0.004,-0.013l0.002,-0.006l0.002,-0.006l0.001,-0.007l0.002,-0.006l0.001,-0.006l0.003,-0.013l0.001,-0.006l0.001,-0.006l0.001,-0.006l0.001,-0.007l0.001,-0.007l0.001,-0.007l0.001,-0.014l0.001,-0.007l0.001,-0.015l0,-0.007l0.001,-0.015l0,-11.182l-0.001,-0.016l0,-0.007l-0.001,-0.008l-0.001,-0.007l-0.001,-0.007l-0.001,-0.014l-0.001,-0.007l-0.001,-0.007l-0.003,-0.014l-0.001,-0.006l-0.003,-0.013l-0.001,-0.007l-0.001,-0.006l-0.002,-0.006l-0.001,-0.007l-0.002,-0.006l-0.002,-0.006l-0.004,-0.013l-0.002,-0.006l-0.002,-0.006l-0.002,-0.006l-0.003,-0.006l-0.002,-0.006l-0.003,-0.006l-0.003,-0.006l-0.003,-0.006l-0.008,-0.018l-0.003,-0.006l-0.003,-0.006l-0.007,-0.012l-0.003,-0.006l-0.007,-0.011l-0.003,-0.006l-0.004,-0.006l-0.003,-0.006l-0.004,-0.006l-0.004,-0.006l-0.004,-0.006l-0.008,-0.011l-0.004,-0.006l-0.005,-0.005l-0.004,-0.006l-0.005,-0.006l-0.005,-0.005l-0.004,-0.005l-0.005,-0.006l-0.005,-0.005l-0.005,-0.005l-0.005,-0.006l-0.005,-0.005l-0.005,-0.005l-0.01,-0.01l-0.027,-0.024l-0.016,-0.013l-0.006,-0.004l-0.011,-0.008l-0.006,-0.004l-0.005,-0.004l-0.005,-0.004l-0.006,-0.004l-0.006,-0.004l-0.006,-0.004l-0.005,-0.004l-0.006,-0.003l-0.005,-0.003l-0.018,-0.01l-0.013,-0.006l-0.005,-0.003l-0.005,-0.003l-0.031,-0.013l-0.006,-0.002l-0.005,-0.002l-0.006,-0.002l-0.007,-0.002l-0.005,-0.002l-0.006,-0.002l-0.007,-0.002l-0.006,-0.002l-0.006,-0.001l-0.012,-0.003l-0.007,-0.001l-0.006,-0.001l-0.007,-0.001l-0.007,-0.001l-0.006,-0.001l-0.02,-0.003l-0.007,-0.001l-0.007,-0.001l-0.015,-0.001l-0.007,-0l-0.007,-0.001l-0.024,-0.001Z" style="fill:rgb(227,28,0);"/></g><g><circle cx="40.161" cy="133.086" r="8" style="fill:rgb(227,28,0);"/></g><g><circle cx="64.032" cy="133.086" r="8" style="fill:rgb(227,28,0);"/></g><g><rect x="36.274" y="158.583" width="139.921" height="9.522" style="fill:rgb(227,28,0);"/><rect x="36.274" y="158.583" width="139.921" height="9.522" style="fill:rgb(227,28,0);"/></g><g><path d="M180.332,128.354c0,-1.287 -1.045,-2.332 -2.332,-2.332l-15.488,0c-1.287,0 -2.332,1.045 -2.332,2.332c0,1.287 1.045,2.332 2.332,2.332l15.488,0c1.287,0 2.332,-1.045 2.332,-2.332Z" style="fill:rgb(227,28,0);"/><path d="M168.579,126.179l-0.052,0.237l-0.045,0.237l-0.04,0.24l-0.034,0.244l-0.028,0.241l-0.021,0.243l-0.016,0.246l-0.01,0.242l-0.003,0.245l0.003,0.244l0.01,0.243l0.016,0.246l0.021,0.243l0.028,0.241l0.034,0.243l0.04,0.24l0.045,0.237l0.052,0.238l0.038,0.157l-6.105,0l-0.06,-0.001l-0.06,-0.002l-0.059,-0.004l-0.059,-0.005l-0.058,-0.007l-0.058,-0.008l-0.058,-0.01l-0.057,-0.011l-0.057,-0.012l-0.056,-0.014l-0.056,-0.015l-0.055,-0.016l-0.054,-0.018l-0.054,-0.019l-0.053,-0.02l-0.053,-0.022l-0.052,-0.022l-0.051,-0.024l-0.051,-0.026l-0.05,-0.026l-0.049,-0.027l-0.049,-0.029l-0.048,-0.03l-0.047,-0.031l-0.046,-0.032l-0.045,-0.033l-0.045,-0.034l-0.043,-0.035l-0.043,-0.036l-0.042,-0.037l-0.041,-0.039l-0.04,-0.039l-0.039,-0.04l-0.038,-0.041l-0.037,-0.041l-0.036,-0.043l-0.035,-0.044l-0.034,-0.044l-0.033,-0.046l-0.032,-0.046l-0.031,-0.047l-0.03,-0.047l-0.029,-0.049l-0.027,-0.049l-0.026,-0.05l-0.025,-0.051l-0.024,-0.051l-0.023,-0.052l-0.021,-0.053l-0.02,-0.053l-0.019,-0.054l-0.018,-0.054l-0.016,-0.055l-0.015,-0.056l-0.014,-0.056l-0.013,-0.057l-0.011,-0.057l-0.01,-0.057l-0.008,-0.058l-0.006,-0.059l-0.005,-0.059l-0.004,-0.059l-0.002,-0.06l-0.001,-0.06l0.001,-0.06l0.002,-0.06l0.004,-0.06l0.005,-0.059l0.006,-0.058l0.008,-0.058l0.01,-0.058l0.011,-0.057l0.013,-0.057l0.014,-0.056l0.015,-0.055l0.016,-0.056l0.018,-0.054l0.019,-0.054l0.02,-0.053l0.021,-0.053l0.023,-0.052l0.024,-0.051l0.025,-0.051l0.026,-0.05l0.027,-0.049l0.029,-0.048l0.03,-0.048l0.031,-0.047l0.032,-0.046l0.033,-0.045l0.034,-0.045l0.035,-0.043l0.036,-0.043l0.037,-0.042l0.038,-0.041l0.039,-0.04l0.04,-0.039l0.041,-0.038l0.042,-0.037l0.043,-0.037l0.043,-0.035l0.045,-0.034l0.045,-0.033l0.046,-0.032l0.047,-0.031l0.048,-0.03l0.049,-0.028l0.049,-0.028l0.05,-0.026l0.051,-0.025l0.051,-0.024l0.052,-0.023l0.053,-0.022l0.053,-0.02l0.054,-0.019l0.054,-0.018l0.055,-0.016l0.056,-0.015l0.056,-0.014l0.057,-0.012l0.057,-0.011l0.058,-0.01l0.058,-0.008l0.058,-0.006l0.059,-0.006l0.059,-0.003l0.06,-0.003l6.166,0l-0.038,0.157Zm9.481,-0.157l0.06,0.003l0.059,0.003l0.059,0.006l0.058,0.006l0.058,0.008l0.058,0.01l0.057,0.011l0.057,0.012l0.056,0.014l0.056,0.015l0.055,0.016l0.054,0.018l0.054,0.019l0.053,0.02l0.053,0.022l0.052,0.023l0.051,0.024l0.05,0.025l0.05,0.026l0.05,0.028l0.048,0.028l0.048,0.03l0.047,0.031l0.046,0.032l0.045,0.033l0.045,0.034l0.043,0.035l0.043,0.037l0.042,0.037l0.041,0.038l0.04,0.039l0.039,0.04l0.038,0.041l0.037,0.042l0.036,0.043l0.035,0.043l0.034,0.045l0.033,0.045l0.032,0.046l0.031,0.047l0.03,0.048l0.029,0.048l0.027,0.049l0.026,0.05l0.025,0.051l0.024,0.051l0.023,0.052l0.021,0.053l0.021,0.053l0.019,0.054l0.018,0.054l0.016,0.056l0.015,0.055l0.014,0.056l0.013,0.057l0.011,0.057l0.01,0.058l0.008,0.058l0.007,0.058l0.005,0.059l0.004,0.06l0.002,0.06l0.001,0.06l-0.001,0.06l-0.002,0.06l-0.004,0.059l-0.005,0.059l-0.007,0.059l-0.008,0.058l-0.01,0.057l-0.011,0.057l-0.013,0.057l-0.014,0.056l-0.015,0.056l-0.016,0.055l-0.018,0.054l-0.019,0.054l-0.021,0.053l-0.021,0.053l-0.023,0.052l-0.024,0.051l-0.025,0.051l-0.026,0.05l-0.027,0.049l-0.029,0.049l-0.03,0.047l-0.031,0.047l-0.032,0.046l-0.033,0.046l-0.034,0.044l-0.035,0.044l-0.036,0.043l-0.037,0.041l-0.038,0.041l-0.039,0.04l-0.04,0.039l-0.041,0.039l-0.042,0.037l-0.043,0.036l-0.043,0.035l-0.045,0.034l-0.045,0.033l-0.046,0.032l-0.047,0.031l-0.048,0.03l-0.048,0.029l-0.05,0.027l-0.05,0.026l-0.05,0.026l-0.051,0.024l-0.052,0.022l-0.053,0.022l-0.053,0.02l-0.054,0.019l-0.054,0.018l-0.055,0.016l-0.056,0.015l-0.056,0.014l-0.057,0.012l-0.057,0.011l-0.058,0.01l-0.058,0.008l-0.058,0.007l-0.059,0.005l-0.059,0.004l-0.06,0.002l-0.06,0.001l-6.105,0l0.038,-0.157l0.051,-0.236l0.046,-0.239l0.04,-0.241l0.034,-0.241l0.028,-0.242l0.022,-0.245l0.015,-0.243l0.01,-0.244l0.003,-0.244l-0.003,-0.245l-0.01,-0.244l-0.015,-0.243l-0.022,-0.244l-0.028,-0.243l-0.034,-0.24l-0.04,-0.242l-0.046,-0.238l-0.051,-0.236l-0.038,-0.157l6.166,0Z" style="fill:rgb(227,28,0);"/></g></g><g><g><path d="M134.694,72.536l0,6.552l-67.798,0l0,-6.552l67.798,0Zm0,-18.573l0,6.551l-67.798,0l0,-6.551l67.798,0Zm0,-18.574l0,6.552l-67.798,0l0,-6.552l67.798,0Z" style="fill:#fffefe;"/><path d="M134.694,79.088l-67.798,0l0,-6.552l67.798,0l0,6.552Zm0,-18.574l-67.798,0l0,-6.551l67.798,0l0,6.551Zm0,-18.573l-67.798,0l0,-6.552l67.798,0l0,6.552Z" style="fill:rgb(227,28,0);"/></g><g><path d="M50.227,93.105l0,-82.288l111.576,0l0,82.288" style="fill:rgb(227,28,0);fill-opacity:0;stroke:rgb(227,28,0);stroke-width:12px;"/></g></g></svg>