<?xml version="1.0" encoding="UTF-8" standalone="no"?><!DOCTYPE svg PUBLIC "-//W3C//DTD SVG 1.1//EN" "http://www.w3.org/Graphics/SVG/1.1/DTD/svg11.dtd"><svg width="100%" height="100%" viewBox="0 0 300 300" version="1.1" xmlns="http://www.w3.org/2000/svg" xmlns:xlink="http://www.w3.org/1999/xlink" xml:space="preserve" xmlns:serif="http://www.serif.com/" style="fill-rule:evenodd;clip-rule:evenodd;stroke-linejoin:round;stroke-miterlimit:2;"><g id="Background_circle"><g><g><circle cx="150" cy="150" r="150" style="fill:#fffefe;"/><path d="M150,0c82.787,0 150,67.213 150,150c0,82.787 -67.213,150 -150,150c-82.787,0 -150,-67.213 -150,-150c0,-82.787 67.213,-150 150,-150Zm0,16c73.957,0 134,60.043 134,134c0,73.957 -60.043,134 -134,134c-73.957,0 -134,-60.043 -134,-134c0,-73.957 60.043,-134 134,-134Z" style="fill:#4d4d4d;"/></g><g><path d="M83.318,218.417l0,-94.321l0.361,0l32.961,-18.127l0.057,18.127l0.24,0l32.961,-18.127l0.057,18.127l29.282,0l6.152,-55.006l12.485,0l6.152,55.006l12.567,0l0,94.321l6.942,0l0,12.495l-147.072,0l0,-12.495l6.854,0Zm41.71,-41.303l-16.66,0l0,16.66l16.66,0l0,-16.66Zm33.302,0l-16.66,0l0,16.66l16.66,0l0,-16.66Zm33.302,0l-16.66,0l0,16.66l16.66,0l0,-16.66Zm-66.605,-29.47l-16.66,0l0,16.66l16.66,0l0,-16.66Zm33.302,0l-16.66,0l0,16.66l16.66,0l0,-16.66Zm33.302,0l-16.66,0l0,16.66l16.66,0l0,-16.66Z" style="fill:#4d4d4d;"/></g></g></g></svg>