<?xml version="1.0" encoding="UTF-8" standalone="no"?><!DOCTYPE svg PUBLIC "-//W3C//DTD SVG 1.1//EN" "http://www.w3.org/Graphics/SVG/1.1/DTD/svg11.dtd"><svg width="100%" height="100%" viewBox="0 0 300 300" version="1.1" xmlns="http://www.w3.org/2000/svg" xmlns:xlink="http://www.w3.org/1999/xlink" xml:space="preserve" xmlns:serif="http://www.serif.com/" style="fill-rule:evenodd;clip-rule:evenodd;stroke-linejoin:round;stroke-miterlimit:2;"><g id="Background_circle"><g><g><circle cx="150" cy="150" r="150" style="fill:#fffefe;"/><path d="M150,0c82.787,0 150,67.213 150,150c0,82.787 -67.213,150 -150,150c-82.787,0 -150,-67.213 -150,-150c0,-82.787 67.213,-150 150,-150Zm0,16c73.957,0 134,60.043 134,134c0,73.957 -60.043,134 -134,134c-73.957,0 -134,-60.043 -134,-134c0,-73.957 60.043,-134 134,-134Z" style="fill:#4d4d4d;"/></g><g><g><path d="M149.998,62.412c1.537,-0.002 3.074,0.583 4.245,1.754c0.07,0.067 0.135,0.137 0.197,0.207l83.879,83.877c2.339,2.342 2.339,6.141 0,8.48c-2.342,2.342 -6.141,2.342 -8.483,0l-79.838,-79.838l-79.838,79.838c-2.339,2.342 -6.139,2.342 -8.48,0c-2.339,-2.339 -2.339,-6.139 0,-8.48l83.877,-83.877c0.065,-0.07 0.13,-0.14 0.197,-0.207c1.173,-1.171 2.708,-1.756 4.245,-1.754Z" style="fill:#4b4b4b;"/><path d="M149.856,62.412l0.286,0l0.144,0.005l0.217,0.015l0.07,0.005l0.072,0.007l0.072,0.01l0.072,0.007l0.07,0.01l0.072,0.01l0.072,0.012l0.07,0.012l0.072,0.012l0.07,0.015l0.072,0.015l0.07,0.015l0.07,0.017l0.072,0.017l0.07,0.017l0.14,0.04l0.07,0.022l0.067,0.02l0.07,0.025l0.07,0.022l0.067,0.025l0.07,0.025l0.067,0.025l0.067,0.027l0.07,0.027l0.135,0.06l0.065,0.03l0.135,0.065l0.13,0.065l0.067,0.035l0.065,0.037l0.062,0.035l0.065,0.037l0.065,0.04l0.062,0.037l0.062,0.04l0.065,0.042l0.062,0.04l0.06,0.042l0.062,0.045l0.06,0.042l0.062,0.045l0.179,0.142l0.057,0.047l0.057,0.05l0.06,0.05l0.057,0.052l0.055,0.05l0.112,0.107l0.055,0.055l0.052,0.05l0.05,0.052l0.095,0.105l83.879,83.877l0.159,0.167l0.052,0.057l0.149,0.172l0.05,0.06l0.047,0.06l0.047,0.057l0.045,0.062l0.09,0.12l0.127,0.187l0.12,0.187l0.075,0.13l0.037,0.062l0.035,0.065l0.035,0.067l0.035,0.065l0.032,0.065l0.032,0.067l0.03,0.065l0.09,0.202l0.055,0.135l0.025,0.07l0.025,0.067l0.025,0.07l0.025,0.067l0.045,0.14l0.06,0.209l0.052,0.209l0.015,0.072l0.03,0.14l0.012,0.072l0.012,0.07l0.012,0.072l0.01,0.072l0.01,0.07l0.01,0.072l0.007,0.072l0.007,0.07l0.007,0.072l0.01,0.144l0.002,0.072l0.005,0.072l0,0.07l0.002,0.072l0,0.144l-0.002,0.072l0,0.072l-0.005,0.072l-0.002,0.072l-0.005,0.07l-0.005,0.072l-0.015,0.144l-0.007,0.07l-0.02,0.144l-0.01,0.07l-0.025,0.144l-0.012,0.07l-0.015,0.07l-0.015,0.072l-0.015,0.07l-0.017,0.07l-0.017,0.072l-0.017,0.07l-0.06,0.209l-0.022,0.067l-0.022,0.07l-0.025,0.07l-0.025,0.067l-0.025,0.07l-0.025,0.067l-0.055,0.135l-0.12,0.269l-0.065,0.13l-0.035,0.067l-0.07,0.13l-0.037,0.065l-0.037,0.062l-0.037,0.065l-0.04,0.062l-0.04,0.065l-0.04,0.062l-0.085,0.125l-0.042,0.06l-0.045,0.062l-0.09,0.12l-0.095,0.12l-0.1,0.115l-0.05,0.06l-0.05,0.055l-0.105,0.115l-0.055,0.055l-0.052,0.055l-0.057,0.055l-0.055,0.055l-0.055,0.052l-0.057,0.052l-0.115,0.1l-0.06,0.05l-0.057,0.047l-0.179,0.142l-0.06,0.045l-0.062,0.042l-0.06,0.045l-0.062,0.042l-0.062,0.04l-0.062,0.042l-0.062,0.04l-0.065,0.037l-0.062,0.04l-0.065,0.037l-0.065,0.035l-0.065,0.037l-0.065,0.035l-0.065,0.032l-0.067,0.032l-0.065,0.032l-0.067,0.032l-0.067,0.03l-0.065,0.03l-0.067,0.027l-0.07,0.03l-0.067,0.025l-0.067,0.027l-0.067,0.025l-0.07,0.025l-0.07,0.022l-0.067,0.025l-0.07,0.02l-0.07,0.022l-0.14,0.04l-0.14,0.035l-0.072,0.017l-0.14,0.03l-0.072,0.015l-0.07,0.012l-0.072,0.012l-0.07,0.012l-0.144,0.02l-0.07,0.01l-0.144,0.015l-0.07,0.005l-0.072,0.007l-0.072,0.002l-0.072,0.005l-0.217,0.007l-0.142,0l-0.217,-0.007l-0.072,-0.005l-0.072,-0.002l-0.07,-0.007l-0.072,-0.005l-0.144,-0.015l-0.07,-0.01l-0.144,-0.02l-0.07,-0.012l-0.072,-0.012l-0.07,-0.012l-0.072,-0.015l-0.14,-0.03l-0.072,-0.017l-0.14,-0.035l-0.14,-0.04l-0.07,-0.022l-0.07,-0.02l-0.067,-0.025l-0.07,-0.022l-0.067,-0.025l-0.07,-0.025l-0.067,-0.027l-0.067,-0.025l-0.07,-0.03l-0.067,-0.027l-0.065,-0.03l-0.067,-0.03l-0.067,-0.032l-0.065,-0.032l-0.067,-0.032l-0.065,-0.032l-0.065,-0.035l-0.065,-0.037l-0.065,-0.035l-0.065,-0.037l-0.062,-0.04l-0.065,-0.037l-0.062,-0.04l-0.062,-0.042l-0.062,-0.04l-0.062,-0.042l-0.06,-0.045l-0.062,-0.042l-0.06,-0.045l-0.179,-0.142l-0.057,-0.047l-0.06,-0.05l-0.115,-0.1l-0.057,-0.052l-0.055,-0.052l-0.055,-0.055l-0.057,-0.055l-79.838,-79.838l-79.948,79.948l-0.057,0.052l-0.055,0.052l-0.115,0.1l-0.06,0.05l-0.057,0.047l-0.179,0.142l-0.06,0.045l-0.062,0.042l-0.06,0.045l-0.062,0.042l-0.062,0.04l-0.062,0.042l-0.062,0.04l-0.065,0.037l-0.062,0.04l-0.065,0.037l-0.065,0.035l-0.065,0.037l-0.065,0.035l-0.065,0.032l-0.067,0.032l-0.065,0.032l-0.067,0.032l-0.135,0.06l-0.067,0.027l-0.067,0.03l-0.067,0.025l-0.067,0.027l-0.07,0.025l-0.067,0.025l-0.07,0.022l-0.07,0.025l-0.067,0.02l-0.07,0.022l-0.14,0.04l-0.14,0.035l-0.072,0.017l-0.14,0.03l-0.072,0.015l-0.07,0.012l-0.072,0.012l-0.07,0.012l-0.144,0.02l-0.07,0.01l-0.144,0.015l-0.072,0.005l-0.072,0.007l-0.07,0.002l-0.072,0.005l-0.217,0.007l-0.144,0l-0.214,-0.007l-0.072,-0.005l-0.072,-0.002l-0.072,-0.007l-0.07,-0.005l-0.144,-0.015l-0.072,-0.01l-0.07,-0.01l-0.072,-0.01l-0.072,-0.012l-0.07,-0.012l-0.072,-0.012l-0.14,-0.03l-0.072,-0.015l-0.209,-0.052l-0.14,-0.04l-0.07,-0.022l-0.07,-0.02l-0.07,-0.025l-0.067,-0.022l-0.07,-0.025l-0.067,-0.025l-0.067,-0.027l-0.07,-0.025l-0.067,-0.03l-0.067,-0.027l-0.067,-0.03l-0.065,-0.03l-0.135,-0.065l-0.13,-0.065l-0.065,-0.035l-0.065,-0.037l-0.065,-0.035l-0.065,-0.037l-0.065,-0.04l-0.062,-0.037l-0.062,-0.04l-0.062,-0.042l-0.062,-0.04l-0.062,-0.042l-0.062,-0.045l-0.06,-0.042l-0.06,-0.045l-0.239,-0.189l-0.172,-0.149l-0.057,-0.052l-0.112,-0.107l-0.11,-0.11l-0.052,-0.055l-0.105,-0.115l-0.052,-0.055l-0.05,-0.06l-0.047,-0.057l-0.05,-0.057l-0.095,-0.12l-0.09,-0.12l-0.045,-0.062l-0.042,-0.06l-0.085,-0.125l-0.04,-0.062l-0.04,-0.065l-0.04,-0.062l-0.037,-0.065l-0.037,-0.062l-0.037,-0.065l-0.07,-0.13l-0.035,-0.067l-0.065,-0.13l-0.03,-0.067l-0.032,-0.067l-0.027,-0.067l-0.03,-0.067l-0.055,-0.135l-0.025,-0.067l-0.027,-0.07l-0.022,-0.067l-0.025,-0.07l-0.022,-0.07l-0.022,-0.067l-0.06,-0.209l-0.017,-0.07l-0.02,-0.072l-0.015,-0.07l-0.017,-0.07l-0.015,-0.072l-0.012,-0.07l-0.015,-0.07l-0.012,-0.072l-0.01,-0.072l-0.012,-0.07l-0.007,-0.072l-0.01,-0.072l-0.007,-0.07l-0.015,-0.144l-0.005,-0.072l-0.005,-0.07l-0.005,-0.072l-0.005,-0.144l0,-0.289l0.005,-0.142l0.015,-0.217l0.007,-0.072l0.007,-0.07l0.007,-0.072l0.01,-0.072l0.007,-0.07l0.012,-0.072l0.01,-0.072l0.012,-0.07l0.015,-0.072l0.012,-0.07l0.015,-0.07l0.017,-0.072l0.015,-0.07l0.02,-0.07l0.017,-0.07l0.06,-0.209l0.045,-0.14l0.025,-0.067l0.022,-0.07l0.027,-0.067l0.025,-0.07l0.055,-0.135l0.03,-0.067l0.027,-0.067l0.032,-0.067l0.03,-0.065l0.032,-0.067l0.032,-0.065l0.035,-0.065l0.035,-0.067l0.035,-0.065l0.037,-0.062l0.075,-0.13l0.12,-0.187l0.127,-0.187l0.09,-0.12l0.045,-0.062l0.047,-0.057l0.047,-0.06l0.05,-0.06l0.047,-0.057l0.05,-0.057l0.105,-0.115l0.052,-0.055l0.052,-0.057l83.932,-83.932l0.05,-0.052l0.047,-0.052l0.05,-0.052l0.05,-0.05l0.112,-0.107l0.055,-0.055l0.057,-0.05l0.057,-0.052l0.057,-0.05l0.06,-0.05l0.057,-0.047l0.179,-0.142l0.06,-0.045l0.062,-0.042l0.06,-0.045l0.062,-0.042l0.062,-0.04l0.062,-0.042l0.065,-0.04l0.062,-0.037l0.065,-0.04l0.062,-0.037l0.065,-0.035l0.065,-0.037l0.065,-0.035l0.067,-0.032l0.065,-0.032l0.067,-0.032l0.065,-0.032l0.202,-0.09l0.067,-0.027l0.07,-0.027l0.135,-0.05l0.07,-0.025l0.07,-0.022l0.067,-0.025l0.07,-0.02l0.07,-0.022l0.14,-0.04l0.07,-0.017l0.072,-0.017l0.07,-0.017l0.07,-0.015l0.072,-0.015l0.07,-0.015l0.072,-0.012l0.07,-0.012l0.072,-0.012l0.07,-0.01l0.072,-0.01l0.072,-0.007l0.072,-0.01l0.07,-0.007l0.289,-0.02l0.144,-0.005Z" style="fill:#4d4d4d;"/></g><path d="M132.942,218.652l-50.777,0l0,-63.907l67.835,-67.835l67.835,67.835l0,63.907l-50.777,0l0,-50.822l-34.116,0l0,50.822Z" style="fill:#4d4d4d;"/><path d="M193.176,92.847l0,-9.549c0,-2.925 2.038,-5.299 4.547,-5.299l9.096,0c2.509,0 4.547,2.374 4.547,5.299l0,27.741l-18.189,-18.191Z" style="fill:#4d4d4d;"/></g></g></g></svg>