<?xml version="1.0" encoding="UTF-8" standalone="no"?><!DOCTYPE svg PUBLIC "-//W3C//DTD SVG 1.1//EN" "http://www.w3.org/Graphics/SVG/1.1/DTD/svg11.dtd"><svg width="100%" height="100%" viewBox="0 0 300 300" version="1.1" xmlns="http://www.w3.org/2000/svg" xmlns:xlink="http://www.w3.org/1999/xlink" xml:space="preserve" xmlns:serif="http://www.serif.com/" style="fill-rule:evenodd;clip-rule:evenodd;stroke-linejoin:round;stroke-miterlimit:2;"><g><g id="Background_circle"><g><circle cx="150" cy="150" r="150" style="fill:#fffefe;"/><path d="M150,0c82.787,0 150,67.213 150,150c0,82.787 -67.213,150 -150,150c-82.787,0 -150,-67.213 -150,-150c0,-82.787 67.213,-150 150,-150Zm0,16c73.957,0 134,60.043 134,134c0,73.957 -60.043,134 -134,134c-73.957,0 -134,-60.043 -134,-134c0,-73.957 60.043,-134 134,-134Z" style="fill:#4d4d4d;"/></g></g><g><path d="M77.891,99.886l72.936,42.562l72.32,-42.562l-72.32,-43.855l-72.936,43.855Z" style="fill:#4d4d4d;"/><path d="M70.079,114.64l72.792,42l0,84.03l-72.792,-41.675l0,-84.355Z" style="fill:#4d4d4d;"/><path d="M158.281,157.224l73.259,-42.584l0,84.148l-73.259,41.881l0,-83.446Z" style="fill:#4d4d4d;"/></g></g></svg>