<?xml version="1.0" encoding="UTF-8" standalone="no"?><!DOCTYPE svg PUBLIC "-//W3C//DTD SVG 1.1//EN" "http://www.w3.org/Graphics/SVG/1.1/DTD/svg11.dtd"><svg width="100%" height="100%" viewBox="0 0 300 300" version="1.1" xmlns="http://www.w3.org/2000/svg" xmlns:xlink="http://www.w3.org/1999/xlink" xml:space="preserve" xmlns:serif="http://www.serif.com/" style="fill-rule:evenodd;clip-rule:evenodd;stroke-linejoin:round;stroke-miterlimit:2;"><g id="Background_circle"><g><g><circle cx="150" cy="150" r="143.279" style="fill:#fffefe;"/></g><path d="M150,0c82.787,0 150,67.213 150,150c0,82.787 -67.213,150 -150,150c-82.787,0 -150,-67.213 -150,-150c0,-82.787 67.213,-150 150,-150Zm0,16c73.957,0 134,60.043 134,134c0,73.957 -60.043,134 -134,134c-73.957,0 -134,-60.043 -134,-134c0,-73.957 60.043,-134 134,-134Z" style="fill:rgb(45,103,185);"/></g><g><path d="M112.056,243.031c1.618,-1.618 2.914,-3.345 3.935,-5.166l-50.377,-50.377c4.395,-2.073 9.4,-2.361 14.679,-1.884c1.667,0.151 3.358,0.377 5.07,0.666l33.741,33.741c-0.018,-0.227 -0.037,-0.455 -0.057,-0.683c-0.874,-9.673 -4.161,-20.141 -7.636,-30.702c-10.561,-3.475 -21.029,-6.761 -30.702,-7.636c-8.987,-0.812 -17.226,0.514 -23.704,6.992c-2.893,2.893 -7.59,2.894 -10.484,0c-2.893,-2.893 -2.893,-7.591 0,-10.484c9.769,-9.769 21.969,-12.499 35.522,-11.275c7.577,0.685 15.615,2.656 23.812,5.107c-2.45,-8.198 -4.422,-16.236 -5.106,-23.812c-1.225,-13.552 1.506,-25.753 11.274,-35.521c9.769,-9.769 21.969,-12.498 35.52,-11.272c7.573,0.685 15.607,2.658 23.8,5.108c-2.451,-8.193 -4.423,-16.227 -5.108,-23.8c-1.227,-13.551 1.502,-25.751 11.272,-35.52c2.893,-2.893 7.591,-2.893 10.484,-0c2.894,2.894 2.893,7.591 0,10.484c-6.477,6.477 -7.803,14.714 -6.989,23.699c0.875,9.671 4.163,20.137 7.641,30.698c10.561,3.478 21.027,6.766 30.698,7.641c0.228,0.021 0.455,0.04 0.681,0.058l-33.74,-33.74c-0.29,-1.714 -0.516,-3.407 -0.667,-5.074c-0.477,-5.279 -0.189,-10.283 1.883,-14.678l50.379,50.379c1.82,-1.022 3.546,-2.317 5.163,-3.933c2.893,-2.893 7.59,-2.894 10.484,0c2.893,2.893 2.893,7.591 0,10.484c-9.769,9.769 -21.969,12.498 -35.52,11.271c-7.573,-0.685 -15.606,-2.657 -23.799,-5.108c2.451,8.193 4.422,16.226 5.108,23.799c1.227,13.551 -1.502,25.751 -11.271,35.52c-9.768,9.768 -21.97,12.499 -35.522,11.274c-7.576,-0.684 -15.614,-2.656 -23.812,-5.106c2.451,8.197 4.422,16.235 5.106,23.811c1.225,13.552 -1.505,25.753 -11.274,35.522c-2.893,2.893 -7.591,2.893 -10.484,0c-2.894,-2.894 -2.893,-7.591 0,-10.484Zm64.848,-119.898c-9.708,-3.196 -19.336,-6.233 -28.34,-7.383l29.527,29.527c0.598,2.849 1.048,5.653 1.296,8.391c0.41,4.529 0.256,8.856 -1.105,12.768l-48.803,-48.803c-2.493,1.124 -4.829,2.704 -6.972,4.847c-2.143,2.143 -3.722,4.48 -4.847,6.972l48.786,48.786c-3.901,1.345 -8.21,1.496 -12.72,1.088c-2.763,-0.25 -5.593,-0.706 -8.47,-1.311l-29.483,-29.483c1.147,9.009 4.183,18.642 7.379,28.353c10.561,3.475 21.029,6.762 30.703,7.636c8.986,0.813 17.225,-0.514 23.703,-6.991c6.477,-6.477 7.803,-14.714 6.989,-23.699c-0.875,-9.671 -4.163,-20.137 -7.641,-30.698Z" style="fill:rgb(45,103,185);"/></g></g></svg>