<?xml version="1.0" encoding="UTF-8" standalone="no"?><!DOCTYPE svg PUBLIC "-//W3C//DTD SVG 1.1//EN" "http://www.w3.org/Graphics/SVG/1.1/DTD/svg11.dtd"><svg width="100%" height="100%" viewBox="0 0 300 300" version="1.1" xmlns="http://www.w3.org/2000/svg" xmlns:xlink="http://www.w3.org/1999/xlink" xml:space="preserve" xmlns:serif="http://www.serif.com/" style="fill-rule:evenodd;clip-rule:evenodd;stroke-linejoin:round;stroke-miterlimit:2;"><g id="Background_circle"><g><g><circle cx="150" cy="150" r="150" style="fill:#fffefe;"/><path d="M150,0c82.787,0 150,67.213 150,150c0,82.787 -67.213,150 -150,150c-82.787,0 -150,-67.213 -150,-150c0,-82.787 67.213,-150 150,-150Zm0,16c73.957,0 134,60.043 134,134c0,73.957 -60.043,134 -134,134c-73.957,0 -134,-60.043 -134,-134c0,-73.957 60.043,-134 134,-134Z" style="fill:rgb(227,28,0);"/></g><g><g><path d="M173.202,175.948c-1.67,1.672 -3.385,3.386 -5.101,5.102l4.909,18.321c0.093,0.349 -0.024,0.706 -0.274,0.932c-0.01,0.011 -0.021,0.023 -0.032,0.033l-15.983,15.983l3.729,13.915c0.049,0.133 0.093,0.268 0.13,0.407l3.658,13.649c0.643,2.401 -0.784,4.874 -3.186,5.517c-2.401,0.643 -4.873,-0.783 -5.518,-3.186l-1.645,-6.138c-0.029,-0.057 -0.052,-0.117 -0.069,-0.181l-7.009,-26.157c-0.098,-0.366 0.036,-0.739 0.312,-0.964c0.02,-0.024 0.04,-0.047 0.063,-0.07l15.915,-15.915l-2.357,-8.799c-2.855,2.847 -5.532,5.511 -7.811,7.768c-5.47,5.421 -11,10.974 -25.97,10.414c-9.656,-0.362 -17.035,-5.461 -20.616,-8.511l41.189,-41.189c1.283,-1.283 1.283,-3.367 -0.001,-4.651c-1.283,-1.283 -3.367,-1.284 -4.651,-0.001l-41.189,41.189c-3.05,-3.581 -8.149,-10.959 -8.511,-20.616c-0.561,-14.97 4.993,-20.5 10.414,-25.97c2.199,-2.219 4.784,-4.818 7.55,-7.591l-8.201,-2.198l-15.915,15.915c-0.023,0.023 -0.046,0.043 -0.07,0.063c-0.225,0.276 -0.598,0.41 -0.964,0.312l-26.157,-7.008c-0.064,-0.018 -0.124,-0.041 -0.182,-0.07l-6.138,-1.645c-2.402,-0.644 -3.829,-3.116 -3.186,-5.518c0.643,-2.401 3.116,-3.83 5.518,-3.186l13.649,3.657c0.139,0.037 0.275,0.081 0.407,0.13l13.915,3.729l15.983,-15.983c0.011,-0.011 0.022,-0.022 0.033,-0.032c0.227,-0.25 0.583,-0.368 0.932,-0.274l17.722,4.749c1.79,-1.79 3.579,-3.579 5.322,-5.321l-6.842,-6.842l-17.931,-0c-0.105,-0.001 -0.207,-0.018 -0.301,-0.049c-1.872,-0.124 -3.544,-1.418 -4.056,-3.33l-3.658,-13.649c-0.643,-2.402 0.784,-4.874 3.186,-5.517c2.402,-0.644 4.874,0.783 5.518,3.186l2.773,10.351l17.815,0c0.338,0 0.634,0.18 0.798,0.45c0.063,0.037 0.122,0.084 0.177,0.139l8.898,8.898l1.884,-1.88l2.062,-2.056l-6.335,-6.335c-0.363,-0.363 -0.364,-0.954 0,-1.318l13.536,-13.536l0.001,-12.263c-0,-2.486 2.019,-4.505 4.505,-4.505c2.486,0 4.505,2.019 4.505,4.505l0,14.131c0,1.066 -0.372,2.048 -0.993,2.82c-0.038,0.062 -0.084,0.121 -0.138,0.175l-9.333,9.333l51.111,51.111l9.333,-9.333c0.054,-0.054 0.112,-0.1 0.175,-0.138c0.772,-0.621 1.754,-0.993 2.82,-0.993l14.131,0c2.486,0 4.505,2.019 4.505,4.505c0,2.486 -2.019,4.505 -4.505,4.505l-12.263,0.001l-13.536,13.536c-0.364,0.364 -0.955,0.363 -1.318,0l-6.834,-6.834l-2.036,2.042l-1.9,1.904l9.185,9.185c0.054,0.054 0.1,0.113 0.139,0.177c0.269,0.163 0.45,0.46 0.45,0.798l-0,17.815l10.351,2.773c2.402,0.643 3.83,3.116 3.186,5.518c-0.643,2.401 -3.115,3.829 -5.518,3.186l-13.649,-3.657c-1.912,-0.512 -3.207,-2.184 -3.33,-4.056c-0.033,-0.095 -0.049,-0.197 -0.049,-0.301l0,-17.931l-7.129,-7.129Z" style="fill:rgb(227,28,0);"/></g><g><path d="M154.31,117.926c0.735,-1.203 1.619,-2.334 2.654,-3.369c3.656,-3.656 8.52,-5.431 13.458,-5.356c0.75,-2.994 1.31,-6.078 1.667,-9.236c1.777,-15.73 -1.797,-30.761 -9.195,-43.045l0.005,-0.002c-1.318,-2.284 -0.535,-5.209 1.749,-6.527c2.283,-1.319 5.207,-0.535 6.526,1.749l0.001,-0.001c8.246,14.013 12.2,31.054 10.187,48.874c-0.404,3.582 -1.038,7.081 -1.881,10.479c1.824,0.942 3.549,2.172 5.104,3.688l0.141,0.146c1.452,1.516 2.636,3.19 3.548,4.958c3.398,-0.843 6.897,-1.476 10.479,-1.881c17.82,-2.013 34.861,1.941 48.874,10.187l-0.001,0.001c2.283,1.319 3.067,4.243 1.749,6.526c-1.318,2.284 -4.243,3.067 -6.527,1.749l-0.002,0.005c-12.284,-7.398 -27.316,-10.971 -43.045,-9.195c-3.159,0.357 -6.242,0.918 -9.236,1.667c0.075,4.938 -1.7,9.802 -5.356,13.458c-1.035,1.035 -2.167,1.919 -3.369,2.654l-27.529,-27.529Z" style="fill:rgb(227,28,0);"/></g></g></g></g></svg>