<?xml version="1.0" encoding="UTF-8" standalone="no"?>
<!DOCTYPE svg PUBLIC "-//W3C//DTD SVG 1.1//EN" "http://www.w3.org/Graphics/SVG/1.1/DTD/svg11.dtd">
<svg width="100%" height="100%" viewBox="0 0 300 300" version="1.1" xmlns="http://www.w3.org/2000/svg" xmlns:xlink="http://www.w3.org/1999/xlink" xml:space="preserve" xmlns:serif="http://www.serif.com/" style="fill-rule:evenodd;clip-rule:evenodd;stroke-miterlimit:1.5;">
    <g id="Background_circle">
        <g>
            <circle cx="150" cy="150" r="150" style="fill:rgb(255,254,254);"/>
            <path d="M150,0C232.787,0 300,67.213 300,150C300,232.787 232.787,300 150,300C67.213,300 0,232.787 0,150C0,67.213 67.213,0 150,0ZM150,16C223.957,16 284,76.043 284,150C284,223.957 223.957,284 150,284C76.043,284 16,223.957 16,150C16,76.043 76.043,16 150,16Z" style="fill:rgb(227,28,0);"/>
        </g>
        <g transform="matrix(0.842998,0,0,0.842998,23.5504,20.6909)">
            <g transform="matrix(0.914248,0,0,1.64663,12.8627,21.2131)">
                <path d="M259.395,93.085C259.395,84.877 247.392,78.212 232.608,78.212L67.392,78.212C52.608,78.212 40.605,84.877 40.605,93.085L40.605,122.831C40.605,131.04 52.608,137.704 67.392,137.704L232.608,137.704C247.392,137.704 259.395,131.04 259.395,122.831L259.395,93.085Z" style="fill:rgb(255,254,254);"/>
                <path d="M232.608,78.212L233.127,78.215L233.299,78.217L233.643,78.223L233.815,78.227L234.157,78.237L234.327,78.243L234.498,78.249L234.838,78.263L235.007,78.271L235.177,78.28L235.345,78.289L235.514,78.299L235.682,78.31L235.85,78.32L236.018,78.332L236.185,78.344L236.519,78.37L236.851,78.398L237.017,78.413L237.347,78.445L237.512,78.462L237.676,78.479L238.004,78.515L238.33,78.553L238.493,78.573L238.655,78.594L238.816,78.615L238.978,78.636L239.139,78.658L239.299,78.681L239.46,78.704L239.62,78.728L239.779,78.752L240.097,78.802L240.255,78.828L240.413,78.855L240.727,78.909L240.884,78.937L241.04,78.965L241.196,78.994L241.506,79.054L241.661,79.085L241.815,79.116L241.968,79.147L242.121,79.179L242.274,79.212L242.578,79.278L242.729,79.312L243.031,79.382L243.181,79.418L243.479,79.49L243.628,79.527L243.924,79.603L244.071,79.641L244.363,79.719L244.509,79.759L244.799,79.841L244.943,79.882L245.087,79.924L245.23,79.966L245.656,80.095L245.797,80.14L245.937,80.184L246.077,80.229L246.217,80.275L246.356,80.321L246.494,80.367L246.632,80.414L246.769,80.461L247.042,80.557L247.312,80.655L247.581,80.754L247.847,80.855L248.111,80.958L248.372,81.063L248.631,81.169L248.888,81.277L249.142,81.386L249.394,81.498L249.643,81.61L249.89,81.725L250.134,81.841L250.376,81.959L250.615,82.078L250.852,82.199L251.086,82.321L251.317,82.445L251.546,82.571L251.772,82.698L251.995,82.826L252.215,82.956L252.433,83.087L252.648,83.22L252.86,83.354L253.069,83.49L253.275,83.627L253.479,83.766L253.679,83.905L253.876,84.047L254.071,84.189L254.262,84.333L254.451,84.478L254.636,84.624L254.818,84.772L254.997,84.921L255.173,85.071L255.346,85.223L255.431,85.299L255.515,85.376L255.599,85.452L255.681,85.53L255.763,85.607L255.925,85.763L256.004,85.841L256.083,85.92L256.16,85.998L256.237,86.078L256.313,86.157L256.389,86.237L256.537,86.397L256.681,86.559L256.752,86.64L256.822,86.721L256.892,86.803L257.028,86.967L257.094,87.049L257.16,87.132L257.225,87.215L257.289,87.298L257.352,87.382L257.476,87.55L257.536,87.634L257.596,87.719L257.654,87.803L257.712,87.888L257.769,87.974L257.825,88.059L257.88,88.145L257.934,88.231L257.987,88.317L258.039,88.404L258.09,88.491L258.141,88.577L258.19,88.665L258.239,88.752L258.333,88.928L258.423,89.104L258.467,89.193L258.51,89.281L258.592,89.459L258.632,89.549L258.671,89.638L258.709,89.728L258.746,89.818L258.782,89.908L258.817,89.999L258.851,90.09L258.884,90.18L258.916,90.271L258.947,90.363L258.977,90.454L259.006,90.546L259.034,90.637L259.061,90.729L259.087,90.822L259.111,90.914L259.135,91.007L259.158,91.099L259.18,91.192L259.201,91.285L259.221,91.379L259.239,91.472L259.257,91.566L259.274,91.659L259.304,91.847L259.317,91.942L259.33,92.036L259.341,92.131L259.351,92.226L259.361,92.32L259.369,92.416L259.376,92.511L259.382,92.606L259.387,92.702L259.39,92.797L259.393,92.893L259.395,92.989L259.395,122.927L259.393,123.023L259.387,123.215L259.382,123.31L259.376,123.406L259.369,123.501L259.361,123.596L259.341,123.786L259.33,123.88L259.317,123.975L259.304,124.069L259.274,124.257L259.257,124.351L259.239,124.445L259.221,124.538L259.201,124.631L259.18,124.724L259.158,124.817L259.135,124.91L259.111,125.003L259.087,125.095L259.061,125.187L259.034,125.279L259.006,125.371L258.977,125.462L258.947,125.554L258.916,125.645L258.884,125.736L258.851,125.827L258.817,125.918L258.782,126.008L258.746,126.098L258.709,126.188L258.671,126.278L258.632,126.368L258.592,126.457L258.51,126.635L258.467,126.724L258.423,126.813L258.333,126.989L258.286,127.077L258.239,127.164L258.19,127.252L258.141,127.339L258.039,127.513L257.987,127.599L257.934,127.685L257.88,127.771L257.825,127.857L257.769,127.943L257.712,128.028L257.596,128.198L257.536,128.282L257.476,128.367L257.352,128.535L257.289,128.618L257.225,128.701L257.16,128.784L257.028,128.95L256.892,129.114L256.822,129.195L256.752,129.277L256.681,129.358L256.609,129.439L256.537,129.519L256.463,129.6L256.389,129.68L256.313,129.759L256.237,129.839L256.083,129.997L256.004,130.075L255.925,130.154L255.763,130.31L255.599,130.464L255.515,130.541L255.431,130.617L255.346,130.694L255.173,130.845L254.997,130.995L254.818,131.144L254.636,131.292L254.451,131.439L254.262,131.584L254.071,131.727L253.876,131.87L253.679,132.011L253.479,132.151L253.275,132.289L253.069,132.426L252.86,132.562L252.648,132.696L252.433,132.829L252.215,132.961L251.995,133.09L251.772,133.219L251.546,133.346L251.317,133.471L251.086,133.595L250.852,133.718L250.615,133.838L250.376,133.958L250.134,134.075L249.89,134.192L249.643,134.306L249.394,134.419L249.142,134.53L248.888,134.64L248.631,134.748L248.372,134.854L248.111,134.959L247.847,135.061L247.581,135.163L247.312,135.262L247.042,135.36L246.769,135.455L246.632,135.503L246.494,135.55L246.356,135.596L246.217,135.642L245.797,135.777L245.656,135.821L245.514,135.865L245.23,135.951L245.087,135.993L244.943,136.035L244.799,136.076L244.654,136.117L244.509,136.157L244.363,136.197L244.071,136.275L243.924,136.314L243.776,136.352L243.628,136.389L243.33,136.463L243.181,136.499L243.031,136.534L242.88,136.57L242.578,136.638L242.426,136.672L242.274,136.705L241.815,136.801L241.661,136.832L241.506,136.863L241.351,136.893L241.196,136.922L240.884,136.98L240.727,137.007L240.57,137.035L240.413,137.062L240.097,137.114L239.62,137.189L239.46,137.212L239.299,137.235L239.139,137.258L238.978,137.28L238.816,137.302L238.655,137.323L238.493,137.343L238.167,137.383L238.004,137.402L237.676,137.438L237.512,137.455L237.347,137.472L237.182,137.488L237.017,137.503L236.685,137.533L236.519,137.546L236.352,137.56L236.018,137.584L235.85,137.596L235.682,137.607L235.514,137.617L235.345,137.627L235.177,137.636L235.007,137.645L234.838,137.653L234.668,137.661L234.498,137.668L234.327,137.674L234.157,137.68L233.986,137.685L233.815,137.689L233.643,137.693L233.299,137.699L233.127,137.701L232.954,137.703L232.781,137.704L67.219,137.704L67.046,137.703L66.701,137.699L66.357,137.693L66.185,137.689L66.014,137.685L65.843,137.68L65.673,137.674L65.502,137.668L65.332,137.661L65.162,137.653L64.993,137.645L64.823,137.636L64.655,137.627L64.486,137.617L64.318,137.607L64.15,137.596L63.982,137.584L63.648,137.56L63.481,137.546L63.315,137.533L62.983,137.503L62.818,137.488L62.653,137.472L62.488,137.455L62.324,137.438L61.996,137.402L61.833,137.383L61.507,137.343L61.345,137.323L61.184,137.302L61.022,137.28L60.861,137.258L60.701,137.235L60.54,137.212L60.38,137.189L59.903,137.114L59.587,137.062L59.43,137.035L59.273,137.007L59.116,136.98L58.804,136.922L58.649,136.893L58.494,136.863L58.339,136.832L58.185,136.801L57.726,136.705L57.574,136.672L57.422,136.638L57.12,136.57L56.969,136.534L56.819,136.499L56.67,136.463L56.372,136.389L56.224,136.352L56.076,136.314L55.929,136.275L55.637,136.197L55.491,136.157L55.346,136.117L55.201,136.076L55.057,136.035L54.913,135.993L54.77,135.951L54.486,135.865L54.344,135.821L54.203,135.777L53.783,135.642L53.644,135.596L53.506,135.55L53.368,135.503L53.231,135.455L52.958,135.36L52.688,135.262L52.419,135.163L52.153,135.061L51.889,134.959L51.628,134.854L51.369,134.748L51.112,134.64L50.858,134.53L50.606,134.419L50.357,134.306L50.11,134.192L49.866,134.075L49.624,133.958L49.385,133.838L49.148,133.718L48.914,133.595L48.683,133.471L48.454,133.346L48.228,133.219L48.005,133.09L47.785,132.961L47.567,132.829L47.352,132.696L47.14,132.562L46.931,132.426L46.725,132.289L46.521,132.151L46.321,132.011L46.124,131.87L45.929,131.727L45.738,131.584L45.549,131.439L45.364,131.292L45.182,131.144L45.003,130.995L44.827,130.845L44.654,130.694L44.569,130.617L44.485,130.541L44.401,130.464L44.237,130.31L44.075,130.154L43.996,130.075L43.917,129.997L43.763,129.839L43.687,129.759L43.611,129.68L43.537,129.6L43.463,129.519L43.391,129.439L43.319,129.358L43.248,129.277L43.178,129.195L43.108,129.114L42.972,128.95L42.84,128.784L42.775,128.701L42.711,128.618L42.648,128.535L42.524,128.367L42.464,128.282L42.404,128.198L42.288,128.028L42.231,127.943L42.175,127.857L42.12,127.771L42.066,127.685L42.013,127.599L41.961,127.513L41.859,127.339L41.81,127.252L41.761,127.164L41.714,127.077L41.667,126.989L41.577,126.813L41.533,126.724L41.49,126.635L41.408,126.457L41.368,126.368L41.329,126.278L41.291,126.188L41.254,126.098L41.218,126.008L41.183,125.918L41.149,125.827L41.116,125.736L41.084,125.645L41.053,125.554L41.023,125.462L40.994,125.371L40.966,125.279L40.939,125.187L40.913,125.095L40.889,125.003L40.865,124.91L40.842,124.817L40.82,124.724L40.799,124.631L40.779,124.538L40.761,124.445L40.743,124.351L40.726,124.257L40.696,124.069L40.683,123.975L40.67,123.88L40.659,123.786L40.639,123.596L40.631,123.501L40.624,123.406L40.618,123.31L40.613,123.215L40.607,123.023L40.605,122.927L40.605,92.989L40.607,92.893L40.61,92.797L40.613,92.702L40.618,92.606L40.624,92.511L40.631,92.416L40.639,92.32L40.649,92.226L40.659,92.131L40.67,92.036L40.683,91.942L40.696,91.847L40.726,91.659L40.743,91.566L40.761,91.472L40.779,91.379L40.799,91.285L40.82,91.192L40.842,91.099L40.865,91.007L40.889,90.914L40.913,90.822L40.939,90.729L40.966,90.637L40.994,90.546L41.023,90.454L41.053,90.363L41.084,90.271L41.116,90.18L41.149,90.09L41.183,89.999L41.218,89.908L41.254,89.818L41.291,89.728L41.329,89.638L41.368,89.549L41.408,89.459L41.49,89.281L41.533,89.193L41.577,89.104L41.667,88.928L41.761,88.752L41.81,88.665L41.859,88.577L41.91,88.491L41.961,88.404L42.013,88.317L42.066,88.231L42.12,88.145L42.175,88.059L42.231,87.974L42.288,87.888L42.346,87.803L42.404,87.719L42.464,87.634L42.524,87.55L42.648,87.382L42.711,87.298L42.775,87.215L42.84,87.132L42.906,87.049L42.972,86.967L43.108,86.803L43.178,86.721L43.248,86.64L43.319,86.559L43.463,86.397L43.611,86.237L43.687,86.157L43.763,86.078L43.84,85.998L43.917,85.92L43.996,85.841L44.075,85.763L44.237,85.607L44.319,85.53L44.401,85.452L44.485,85.376L44.569,85.299L44.654,85.223L44.827,85.071L45.003,84.921L45.182,84.772L45.364,84.624L45.549,84.478L45.738,84.333L45.929,84.189L46.124,84.047L46.321,83.905L46.521,83.766L46.725,83.627L46.931,83.49L47.14,83.354L47.352,83.22L47.567,83.087L47.785,82.956L48.005,82.826L48.228,82.698L48.454,82.571L48.683,82.445L48.914,82.321L49.148,82.199L49.385,82.078L49.624,81.959L49.866,81.841L50.11,81.725L50.357,81.61L50.606,81.498L50.858,81.386L51.112,81.277L51.369,81.169L51.628,81.063L51.889,80.958L52.153,80.855L52.419,80.754L52.688,80.655L52.958,80.557L53.231,80.461L53.368,80.414L53.506,80.367L53.644,80.321L53.783,80.275L53.923,80.229L54.063,80.184L54.203,80.14L54.344,80.095L54.77,79.966L54.913,79.924L55.057,79.882L55.201,79.841L55.491,79.759L55.637,79.719L55.929,79.641L56.076,79.603L56.372,79.527L56.521,79.49L56.819,79.418L56.969,79.382L57.271,79.312L57.422,79.278L57.726,79.212L57.879,79.179L58.032,79.147L58.185,79.116L58.339,79.085L58.494,79.054L58.804,78.994L58.96,78.965L59.116,78.937L59.273,78.909L59.587,78.855L59.745,78.828L59.903,78.802L60.221,78.752L60.38,78.728L60.54,78.704L60.701,78.681L60.861,78.658L61.022,78.636L61.184,78.615L61.345,78.594L61.507,78.573L61.67,78.553L61.996,78.515L62.324,78.479L62.488,78.462L62.653,78.445L62.983,78.413L63.149,78.398L63.481,78.37L63.815,78.344L63.982,78.332L64.15,78.32L64.318,78.31L64.486,78.299L64.655,78.289L64.823,78.28L64.993,78.271L65.162,78.263L65.502,78.249L65.673,78.243L65.843,78.237L66.185,78.227L66.357,78.223L66.701,78.217L66.873,78.215L67.392,78.212L232.608,78.212ZM67.417,86.857L67.318,86.858L67.243,86.858L67.169,86.859L67.096,86.859L67.023,86.861L66.95,86.862L66.876,86.864L66.731,86.868L66.659,86.87L66.443,86.879L66.372,86.882L66.301,86.886L66.229,86.89L66.159,86.894L66.088,86.898L65.808,86.918L65.738,86.924L65.669,86.929L65.6,86.935L65.531,86.942L65.462,86.948L65.393,86.955L65.257,86.969L65.188,86.976L65.12,86.984L65.054,86.992L64.918,87.008L64.851,87.017L64.783,87.025L64.717,87.034L64.65,87.043L64.584,87.053L64.518,87.062L64.451,87.072L64.386,87.082L64.319,87.093L64.254,87.103L64.188,87.114L64.058,87.136L63.992,87.147L63.928,87.159L63.864,87.17L63.799,87.183L63.734,87.195L63.671,87.207L63.606,87.22L63.542,87.233L63.353,87.272L63.289,87.286L63.163,87.314L63.101,87.329L63.038,87.343L62.976,87.358L62.913,87.373L62.851,87.388L62.79,87.403L62.729,87.419L62.667,87.435L62.484,87.483L62.424,87.5L62.362,87.517L62.303,87.534L62.242,87.551L62.182,87.569L62.123,87.586L62.063,87.604L61.945,87.64L61.886,87.659L61.827,87.677L61.768,87.696L61.709,87.716L61.651,87.735L61.594,87.754L61.537,87.774L61.498,87.787L61.364,87.834L61.25,87.875L61.026,87.959L60.915,88.002L60.805,88.047L60.695,88.091L60.587,88.137L60.48,88.183L60.374,88.23L60.164,88.326L60.061,88.375L59.857,88.475L59.757,88.526L59.659,88.578L59.561,88.631L59.464,88.684L59.368,88.737L59.274,88.792L59.181,88.847L59.089,88.902L58.998,88.958L58.908,89.015L58.82,89.072L58.733,89.13L58.647,89.189L58.562,89.248L58.479,89.307L58.397,89.367L58.316,89.428L58.237,89.489L58.159,89.551L58.007,89.675L57.934,89.739L57.848,89.813L57.755,89.898L57.686,89.963L57.652,89.996L57.618,90.028L57.552,90.094L57.424,90.226L57.394,90.26L57.363,90.293L57.332,90.327L57.302,90.36L57.186,90.496L57.158,90.531L57.13,90.565L57.076,90.633L57.05,90.668L57.023,90.703L56.998,90.738L56.972,90.772L56.947,90.807L56.922,90.843L56.874,90.913L56.851,90.948L56.828,90.984L56.805,91.019L56.782,91.055L56.76,91.09L56.739,91.126L56.717,91.162L56.697,91.198L56.676,91.234L56.656,91.271L56.636,91.307L56.598,91.379L56.562,91.453L56.544,91.489L56.493,91.6L56.477,91.637L56.461,91.675L56.431,91.749L56.417,91.787L56.403,91.824L56.389,91.862L56.35,91.976L56.338,92.014L56.327,92.052L56.315,92.09L56.305,92.129L56.294,92.167L56.284,92.206L56.257,92.323L56.233,92.44L56.226,92.479L56.208,92.599L56.203,92.638L56.198,92.678L56.194,92.719L56.186,92.799L56.183,92.84L56.181,92.88L56.178,92.921L56.175,93.044L56.175,122.872L56.177,122.955L56.178,122.995L56.181,123.036L56.183,123.077L56.186,123.118L56.198,123.238L56.208,123.318L56.214,123.358L56.22,123.397L56.226,123.437L56.233,123.476L56.241,123.516L56.257,123.594L56.275,123.672L56.284,123.71L56.294,123.749L56.305,123.788L56.315,123.826L56.327,123.864L56.338,123.903L56.35,123.941L56.376,124.017L56.389,124.054L56.417,124.13L56.431,124.167L56.446,124.205L56.461,124.242L56.493,124.316L56.544,124.427L56.562,124.464L56.58,124.5L56.598,124.537L56.617,124.573L56.636,124.61L56.676,124.682L56.697,124.718L56.717,124.754L56.739,124.79L56.76,124.826L56.782,124.862L56.805,124.897L56.828,124.933L56.851,124.968L56.874,125.004L56.922,125.074L56.972,125.144L56.998,125.179L57.023,125.214L57.05,125.248L57.076,125.283L57.103,125.317L57.13,125.352L57.186,125.42L57.302,125.556L57.332,125.59L57.363,125.623L57.394,125.657L57.424,125.69L57.456,125.723L57.488,125.757L57.552,125.823L57.585,125.855L57.618,125.888L57.652,125.921L57.686,125.953L57.72,125.986L57.825,126.082L57.848,126.103L57.934,126.178L58.007,126.241L58.083,126.304L58.159,126.366L58.237,126.427L58.316,126.488L58.397,126.549L58.479,126.609L58.562,126.669L58.647,126.728L58.733,126.786L58.82,126.844L58.908,126.901L58.998,126.958L59.089,127.014L59.181,127.07L59.274,127.125L59.368,127.179L59.464,127.233L59.561,127.286L59.757,127.39L59.857,127.441L59.959,127.492L60.061,127.541L60.164,127.591L60.269,127.639L60.374,127.686L60.48,127.733L60.587,127.78L60.695,127.825L60.805,127.87L60.915,127.914L61.026,127.957L61.138,128L61.25,128.042L61.364,128.083L61.498,128.13L61.536,128.143L61.594,128.163L61.652,128.182L61.709,128.201L61.886,128.258L62.063,128.312L62.123,128.33L62.182,128.348L62.242,128.365L62.303,128.383L62.362,128.399L62.424,128.416L62.484,128.433L62.545,128.449L62.606,128.466L62.667,128.482L62.728,128.497L62.789,128.513L62.852,128.528L62.914,128.544L62.976,128.559L63.038,128.573L63.101,128.588L63.163,128.602L63.289,128.63L63.353,128.644L63.416,128.658L63.542,128.684L63.606,128.697L63.671,128.709L63.734,128.722L63.864,128.746L63.928,128.758L63.992,128.769L64.058,128.781L64.188,128.803L64.254,128.813L64.319,128.824L64.386,128.834L64.451,128.844L64.518,128.854L64.584,128.864L64.65,128.873L64.851,128.9L64.918,128.908L64.985,128.917L65.121,128.933L65.189,128.94L65.257,128.948L65.393,128.962L65.462,128.968L65.531,128.975L65.738,128.993L65.808,128.998L65.878,129.004L66.018,129.014L66.088,129.018L66.159,129.023L66.229,129.027L66.301,129.031L66.372,129.034L66.443,129.038L66.587,129.044L66.659,129.046L66.731,129.049L66.876,129.053L66.95,129.054L67.023,129.056L67.243,129.059L232.757,129.059L232.977,129.056L233.05,129.054L233.124,129.053L233.269,129.049L233.341,129.046L233.413,129.044L233.557,129.038L233.628,129.034L233.699,129.031L233.841,129.023L233.912,129.018L233.982,129.014L234.122,129.004L234.192,128.998L234.262,128.993L234.469,128.975L234.538,128.968L234.607,128.962L234.743,128.948L234.811,128.94L234.879,128.933L235.015,128.917L235.082,128.908L235.149,128.9L235.35,128.873L235.416,128.864L235.482,128.854L235.549,128.844L235.614,128.834L235.681,128.824L235.746,128.813L235.812,128.803L235.942,128.781L236.008,128.769L236.072,128.758L236.136,128.746L236.202,128.734L236.265,128.722L236.329,128.709L236.394,128.697L236.458,128.684L236.584,128.658L236.647,128.644L236.711,128.63L236.837,128.602L236.899,128.588L236.962,128.573L237.024,128.559L237.086,128.544L237.148,128.528L237.21,128.513L237.272,128.497L237.333,128.482L237.394,128.466L237.455,128.449L237.516,128.433L237.576,128.417L237.637,128.4L237.698,128.382L237.818,128.348L237.877,128.33L237.937,128.312L238.114,128.258L238.291,128.201L238.348,128.182L238.406,128.163L238.464,128.143L238.502,128.13L238.636,128.083L238.75,128.042L238.862,128L238.974,127.957L239.085,127.914L239.195,127.87L239.305,127.825L239.413,127.78L239.52,127.733L239.626,127.687L239.836,127.591L239.939,127.541L240.041,127.492L240.243,127.39L240.342,127.338L240.439,127.286L240.536,127.233L240.632,127.179L240.726,127.125L240.819,127.07L240.911,127.014L241.002,126.958L241.092,126.901L241.18,126.844L241.267,126.786L241.353,126.728L241.438,126.669L241.521,126.609L241.603,126.549L241.684,126.488L241.763,126.427L241.841,126.366L241.918,126.303L241.993,126.241L242.066,126.178L242.151,126.103L242.175,126.082L242.28,125.986L242.314,125.953L242.348,125.921L242.382,125.888L242.415,125.855L242.448,125.823L242.48,125.79L242.513,125.757L242.544,125.724L242.575,125.69L242.606,125.657L242.668,125.589L242.698,125.556L242.814,125.42L242.842,125.386L242.869,125.352L242.897,125.318L242.924,125.283L242.95,125.248L242.977,125.214L243.002,125.179L243.028,125.144L243.078,125.074L243.102,125.039L243.126,125.003L243.149,124.969L243.195,124.897L243.218,124.862L243.24,124.826L243.261,124.79L243.283,124.754L243.303,124.719L243.324,124.682L243.364,124.61L243.383,124.574L243.402,124.537L243.42,124.5L243.438,124.464L243.456,124.427L243.473,124.39L243.49,124.354L243.507,124.316L243.539,124.242L243.569,124.168L243.611,124.054L243.624,124.017L243.65,123.941L243.662,123.902L243.673,123.864L243.685,123.826L243.695,123.787L243.706,123.749L243.716,123.711L243.725,123.672L243.735,123.633L243.759,123.516L243.767,123.476L243.774,123.437L243.78,123.397L243.786,123.358L243.792,123.318L243.802,123.238L243.814,123.118L243.817,123.077L243.819,123.036L243.822,122.995L243.825,122.873L243.825,93.044L243.822,92.921L243.819,92.881L243.817,92.84L243.814,92.799L243.81,92.759L243.806,92.718L243.802,92.678L243.792,92.598L243.786,92.559L243.774,92.479L243.767,92.44L243.759,92.401L243.751,92.361L243.743,92.323L243.735,92.284L243.725,92.245L243.716,92.206L243.706,92.167L243.695,92.129L243.685,92.09L243.673,92.052L243.662,92.014L243.65,91.976L243.611,91.862L243.597,91.825L243.569,91.749L243.539,91.675L243.523,91.638L243.507,91.6L243.49,91.563L243.473,91.527L243.456,91.489L243.438,91.453L243.402,91.379L243.364,91.307L243.344,91.271L243.324,91.234L243.303,91.198L243.283,91.162L243.261,91.126L243.24,91.09L243.218,91.055L243.172,90.983L243.126,90.913L243.078,90.843L243.053,90.807L243.028,90.772L243.002,90.738L242.977,90.703L242.95,90.668L242.924,90.634L242.897,90.599L242.869,90.564L242.842,90.531L242.814,90.496L242.727,90.394L242.698,90.361L242.668,90.327L242.637,90.293L242.606,90.26L242.575,90.226L242.513,90.16L242.48,90.127L242.448,90.094L242.382,90.028L242.348,89.996L242.28,89.93L242.245,89.898L242.211,89.866L242.175,89.834L242.151,89.813L242.066,89.738L241.993,89.675L241.918,89.613L241.841,89.551L241.763,89.489L241.684,89.428L241.603,89.367L241.521,89.307L241.438,89.248L241.353,89.189L241.267,89.13L241.18,89.072L241.092,89.015L241.002,88.958L240.911,88.902L240.819,88.847L240.726,88.792L240.632,88.737L240.536,88.684L240.342,88.578L240.243,88.526L240.142,88.475L240.041,88.425L239.939,88.375L239.836,88.326L239.626,88.23L239.52,88.183L239.413,88.137L239.305,88.091L239.195,88.046L239.085,88.002L238.974,87.959L238.75,87.875L238.636,87.834L238.502,87.787L238.463,87.773L238.349,87.735L238.291,87.716L238.232,87.696L238.173,87.677L238.114,87.659L238.055,87.64L237.937,87.604L237.877,87.586L237.818,87.569L237.758,87.551L237.698,87.534L237.576,87.5L237.516,87.483L237.333,87.435L237.209,87.403L237.149,87.388L237.087,87.373L237.024,87.358L236.962,87.343L236.899,87.329L236.837,87.314L236.711,87.286L236.647,87.272L236.458,87.233L236.394,87.22L236.329,87.207L236.265,87.195L236.202,87.183L236.136,87.17L236.072,87.159L236.008,87.147L235.942,87.136L235.812,87.114L235.746,87.103L235.681,87.093L235.614,87.082L235.549,87.072L235.482,87.062L235.416,87.053L235.35,87.043L235.283,87.034L235.217,87.025L235.149,87.017L235.082,87.008L234.946,86.992L234.88,86.984L234.812,86.976L234.743,86.969L234.607,86.955L234.538,86.948L234.469,86.942L234.4,86.935L234.331,86.929L234.262,86.924L234.192,86.918L233.912,86.898L233.628,86.882L233.557,86.879L233.341,86.87L233.269,86.868L233.124,86.864L233.05,86.862L232.977,86.861L232.904,86.859L232.831,86.859L232.757,86.858L232.682,86.858L232.583,86.857L67.417,86.857Z" style="fill:rgb(227,28,0);"/>
            </g>
            <g transform="matrix(0.679342,0,0,0.374249,48.0987,175.709)">
                <path d="M259.395,93.085C259.395,84.877 255.724,78.212 251.202,78.212L48.798,78.212C44.276,78.212 40.605,84.877 40.605,93.085L40.605,122.831C40.605,131.04 44.276,137.704 48.798,137.704L251.202,137.704C255.724,137.704 259.395,131.04 259.395,122.831L259.395,93.085Z" style="fill:rgb(255,254,254);"/>
                <path d="M251.308,78.214L251.413,78.217L251.518,78.223L251.623,78.232L251.728,78.243L251.832,78.256L251.936,78.271L252.039,78.289L252.142,78.31L252.245,78.332L252.449,78.384L252.652,78.445L252.852,78.515L253.051,78.594L253.249,78.681L253.444,78.777L253.637,78.882L253.829,78.994L254.018,79.116L254.205,79.245L254.39,79.382L254.573,79.527L254.753,79.68L254.931,79.841L255.106,80.009L255.279,80.184L255.449,80.367L255.617,80.557L255.782,80.754L255.944,80.958L256.103,81.169L256.259,81.386L256.412,81.61L256.563,81.841L256.71,82.078L256.854,82.321L256.994,82.571L257.132,82.826L257.266,83.087L257.396,83.354L257.523,83.627L257.647,83.905L257.767,84.189L257.883,84.478L257.995,84.772L258.104,85.071L258.209,85.376L258.309,85.685L258.406,85.998L258.498,86.317L258.587,86.64L258.671,86.967L258.751,87.298L258.827,87.634L258.898,87.974L258.965,88.317L259.027,88.665L259.084,89.016L259.137,89.37L259.185,89.728L259.229,90.09L259.267,90.454L259.301,90.822L259.33,91.192L259.342,91.379L259.353,91.566L259.363,91.753L259.379,92.131L259.385,92.32L259.393,92.702L259.395,92.893L259.395,123.023L259.393,123.215L259.389,123.406L259.385,123.596L259.379,123.786L259.371,123.975L259.363,124.163L259.353,124.351L259.342,124.538L259.33,124.724L259.301,125.095L259.267,125.462L259.229,125.827L259.185,126.188L259.137,126.546L259.084,126.901L259.027,127.252L258.965,127.599L258.898,127.943L258.827,128.282L258.751,128.618L258.671,128.95L258.587,129.277L258.498,129.6L258.406,129.918L258.309,130.232L258.209,130.541L258.104,130.845L257.995,131.144L257.883,131.439L257.767,131.727L257.647,132.011L257.523,132.289L257.396,132.562L257.266,132.829L257.132,133.09L256.994,133.346L256.854,133.595L256.71,133.838L256.563,134.075L256.412,134.306L256.259,134.53L256.103,134.748L255.944,134.959L255.782,135.163L255.617,135.36L255.449,135.55L255.279,135.732L255.106,135.908L254.931,136.076L254.753,136.236L254.573,136.389L254.39,136.534L254.205,136.672L254.018,136.801L253.829,136.922L253.637,137.035L253.444,137.139L253.249,137.235L253.051,137.323L252.852,137.402L252.652,137.472L252.449,137.533L252.245,137.584L252.142,137.607L252.039,137.627L251.936,137.645L251.832,137.661L251.728,137.674L251.623,137.685L251.518,137.693L251.413,137.699L251.308,137.703L251.202,137.704L48.798,137.704L48.692,137.703L48.587,137.699L48.482,137.693L48.377,137.685L48.272,137.674L48.168,137.661L48.064,137.645L47.961,137.627L47.858,137.607L47.755,137.584L47.551,137.533L47.348,137.472L47.148,137.402L46.949,137.323L46.751,137.235L46.556,137.139L46.363,137.035L46.171,136.922L45.982,136.801L45.795,136.672L45.61,136.534L45.427,136.389L45.247,136.236L45.069,136.076L44.894,135.908L44.721,135.732L44.551,135.55L44.383,135.36L44.218,135.163L44.056,134.959L43.897,134.748L43.741,134.53L43.588,134.306L43.437,134.075L43.29,133.838L43.146,133.595L43.006,133.346L42.868,133.09L42.734,132.829L42.604,132.562L42.477,132.289L42.353,132.011L42.233,131.727L42.117,131.439L42.005,131.144L41.896,130.845L41.791,130.541L41.691,130.232L41.594,129.918L41.502,129.6L41.413,129.277L41.329,128.95L41.249,128.618L41.173,128.282L41.102,127.943L41.035,127.599L40.973,127.252L40.916,126.901L40.863,126.546L40.815,126.188L40.771,125.827L40.733,125.462L40.699,125.095L40.67,124.724L40.658,124.538L40.647,124.351L40.637,124.163L40.629,123.975L40.621,123.786L40.615,123.596L40.611,123.406L40.607,123.215L40.605,123.023L40.605,92.893L40.607,92.702L40.615,92.32L40.621,92.131L40.637,91.753L40.647,91.566L40.658,91.379L40.67,91.192L40.699,90.822L40.733,90.454L40.771,90.09L40.815,89.728L40.863,89.37L40.916,89.016L40.973,88.665L41.035,88.317L41.102,87.974L41.173,87.634L41.249,87.298L41.329,86.967L41.413,86.64L41.502,86.317L41.594,85.998L41.691,85.685L41.791,85.376L41.896,85.071L42.005,84.772L42.117,84.478L42.233,84.189L42.353,83.905L42.477,83.627L42.604,83.354L42.734,83.087L42.868,82.826L43.006,82.571L43.146,82.321L43.29,82.078L43.437,81.841L43.588,81.61L43.741,81.386L43.897,81.169L44.056,80.958L44.218,80.754L44.383,80.557L44.551,80.367L44.721,80.184L44.894,80.009L45.069,79.841L45.247,79.68L45.427,79.527L45.61,79.382L45.795,79.245L45.982,79.116L46.171,78.994L46.363,78.882L46.556,78.777L46.751,78.681L46.949,78.594L47.148,78.515L47.348,78.445L47.551,78.384L47.755,78.332L47.858,78.31L47.961,78.289L48.064,78.271L48.168,78.256L48.272,78.243L48.377,78.232L48.482,78.223L48.587,78.217L48.692,78.214L48.798,78.212L251.202,78.212L251.308,78.214ZM49.335,94.061L49.335,121.856L250.665,121.856L250.665,94.061L49.335,94.061Z" style="fill:rgb(227,28,0);"/>
            </g>
            <g transform="matrix(1.02318,0,0,1.02318,45.8158,63.0004)">
                <circle cx="37.462" cy="115.417" r="7.819" style="fill:rgb(75,75,75);"/>
            </g>
            <g transform="matrix(1.02318,0,0,1.02318,69.6871,63.0004)">
                <circle cx="37.462" cy="115.417" r="7.819" style="fill:rgb(75,75,75);"/>
            </g>
            <g transform="matrix(1.37116,0,0,1,31.6697,123.899)">
                <rect x="35.437" y="82.691" width="102.046" height="9.522" style="fill:rgb(75,75,75);"/>
                <rect x="35.437" y="82.691" width="102.046" height="9.522" style="fill:rgb(227,28,0);"/>
            </g>
            <g transform="matrix(0.381081,0,0,1,144.69,7.04087)">
                <path d="M208.951,169.32C208.951,168.033 206.209,166.988 202.831,166.988L162.19,166.988C158.812,166.988 156.07,168.033 156.07,169.32C156.07,170.607 158.812,171.652 162.19,171.652L202.831,171.652C206.209,171.652 208.951,170.607 208.951,169.32Z" style="fill:rgb(75,75,75);"/>
                <path d="M172.081,167.227L171.953,167.523L171.844,167.819L171.754,168.118L171.684,168.419L171.634,168.718L171.604,169.019L171.594,169.32L171.604,169.621L171.634,169.922L171.684,170.221L171.754,170.522L171.844,170.821L171.953,171.117L172.081,171.412L172.202,171.652L162.19,171.652L162.032,171.651L161.875,171.649L161.719,171.645L161.564,171.64L161.411,171.633L161.258,171.625L161.107,171.615L160.957,171.604L160.808,171.592L160.661,171.578L160.515,171.563L160.371,171.547L160.228,171.529L160.086,171.51L159.947,171.49L159.809,171.468L159.672,171.446L159.538,171.422L159.405,171.396L159.274,171.37L159.145,171.343L159.017,171.314L158.892,171.284L158.769,171.253L158.648,171.221L158.529,171.188L158.412,171.154L158.298,171.119L158.186,171.083L158.076,171.046L157.968,171.007L157.863,170.968L157.761,170.928L157.661,170.887L157.563,170.846L157.468,170.803L157.376,170.759L157.286,170.715L157.2,170.669L157.116,170.623L157.035,170.576L156.956,170.529L156.881,170.48L156.809,170.431L156.74,170.381L156.674,170.33L156.611,170.279L156.551,170.227L156.495,170.174L156.442,170.121L156.392,170.067L156.345,170.013L156.302,169.958L156.263,169.902L156.227,169.846L156.194,169.789L156.166,169.732L156.141,169.675L156.119,169.617L156.102,169.558L156.088,169.499L156.078,169.44L156.072,169.38L156.07,169.32L156.072,169.26L156.078,169.2L156.088,169.14L156.102,169.081L156.119,169.023L156.141,168.965L156.166,168.907L156.194,168.85L156.227,168.793L156.263,168.737L156.302,168.682L156.345,168.626L156.392,168.572L156.442,168.518L156.495,168.465L156.551,168.412L156.611,168.36L156.674,168.309L156.74,168.258L156.809,168.208L156.881,168.159L156.956,168.111L157.035,168.063L157.116,168.016L157.2,167.97L157.286,167.925L157.376,167.88L157.468,167.837L157.563,167.794L157.661,167.752L157.761,167.711L157.863,167.671L157.968,167.632L158.076,167.594L158.186,167.557L158.298,167.52L158.412,167.485L158.529,167.451L158.648,167.418L158.769,167.386L158.892,167.355L159.017,167.325L159.145,167.297L159.274,167.269L159.405,167.243L159.538,167.218L159.672,167.194L159.809,167.171L159.947,167.149L160.086,167.129L160.228,167.11L160.371,167.092L160.515,167.076L160.661,167.061L160.808,167.047L160.957,167.035L161.107,167.024L161.258,167.014L161.411,167.006L161.564,167L161.719,166.994L161.875,166.991L162.032,166.988L172.202,166.988L172.081,167.227ZM202.989,166.988L203.146,166.991L203.302,166.994L203.457,167L203.61,167.006L203.763,167.014L203.914,167.024L204.064,167.035L204.213,167.047L204.36,167.061L204.506,167.076L204.65,167.092L204.793,167.11L204.935,167.129L205.074,167.149L205.213,167.171L205.349,167.194L205.484,167.218L205.616,167.243L205.747,167.269L205.877,167.297L206.004,167.325L206.129,167.355L206.252,167.386L206.373,167.418L206.492,167.451L206.609,167.485L206.723,167.52L206.835,167.557L206.945,167.594L207.053,167.632L207.158,167.671L207.26,167.711L207.361,167.752L207.458,167.794L207.553,167.837L207.645,167.88L207.735,167.925L207.821,167.97L207.905,168.016L207.986,168.063L208.065,168.111L208.14,168.159L208.212,168.208L208.281,168.258L208.347,168.309L208.41,168.36L208.47,168.412L208.526,168.465L208.58,168.518L208.629,168.572L208.676,168.626L208.719,168.682L208.758,168.737L208.794,168.793L208.827,168.85L208.855,168.907L208.881,168.965L208.902,169.023L208.92,169.081L208.933,169.14L208.943,169.2L208.949,169.26L208.951,169.32L208.949,169.38L208.943,169.44L208.933,169.499L208.92,169.558L208.902,169.617L208.881,169.675L208.855,169.732L208.827,169.789L208.794,169.846L208.758,169.902L208.719,169.958L208.676,170.013L208.629,170.067L208.58,170.121L208.526,170.174L208.47,170.227L208.41,170.279L208.347,170.33L208.281,170.381L208.212,170.431L208.14,170.48L208.065,170.529L207.986,170.576L207.905,170.623L207.821,170.669L207.735,170.715L207.645,170.759L207.553,170.803L207.458,170.846L207.361,170.887L207.26,170.928L207.158,170.968L207.053,171.007L206.945,171.046L206.835,171.083L206.723,171.119L206.609,171.154L206.492,171.188L206.373,171.221L206.252,171.253L206.129,171.284L206.004,171.314L205.877,171.343L205.747,171.37L205.616,171.396L205.484,171.422L205.349,171.446L205.213,171.468L205.074,171.49L204.935,171.51L204.793,171.529L204.65,171.547L204.506,171.563L204.36,171.578L204.213,171.592L204.064,171.604L203.914,171.615L203.763,171.625L203.61,171.633L203.457,171.64L203.302,171.645L203.146,171.649L202.989,171.651L202.831,171.652L192.819,171.652L192.939,171.413L193.067,171.119L193.178,170.819L193.267,170.52L193.337,170.223L193.387,169.922L193.417,169.621L193.427,169.32L193.417,169.019L193.387,168.718L193.337,168.417L193.267,168.119L193.178,167.821L193.068,167.521L192.939,167.226L192.819,166.988L202.989,166.988Z" style="fill:rgb(227,28,0);"/>
            </g>
        </g>
        <g transform="matrix(0.842998,0,0,0.842998,23.5504,20.6909)">
            <g>
                <path d="M178.679,120.543L178.679,127.095L110.881,127.095L110.881,120.543L178.679,120.543ZM178.679,101.97L178.679,108.521L110.881,108.521L110.881,101.97L178.679,101.97ZM178.679,83.396L178.679,89.948L110.881,89.948L110.881,83.396L178.679,83.396Z" style="fill:rgb(255,254,254);"/>
                <path d="M178.679,127.095L110.881,127.095L110.881,120.543L178.679,120.543L178.679,127.095ZM178.679,108.521L110.881,108.521L110.881,101.97L178.679,101.97L178.679,108.521ZM178.679,89.948L110.881,89.948L110.881,83.396L178.679,83.396L178.679,89.948Z" style="fill:rgb(227,28,0);"/>
            </g>
            <g transform="matrix(1,0,0,1,0.332323,2.43782)">
                <path d="M93.88,138.674L93.88,56.386L205.456,56.386L205.456,138.674" style="fill:rgb(75,75,75);fill-opacity:0;stroke:rgb(77,77,77);stroke-width:14.23px;"/>
            </g>
        </g>
    </g>
</svg>
