<?xml version="1.0" encoding="UTF-8" standalone="no"?><!DOCTYPE svg PUBLIC "-//W3C//DTD SVG 1.1//EN" "http://www.w3.org/Graphics/SVG/1.1/DTD/svg11.dtd"><svg width="100%" height="100%" viewBox="0 0 300 300" version="1.1" xmlns="http://www.w3.org/2000/svg" xmlns:xlink="http://www.w3.org/1999/xlink" xml:space="preserve" xmlns:serif="http://www.serif.com/" style="fill-rule:evenodd;clip-rule:evenodd;stroke-linejoin:round;stroke-miterlimit:2;"><g id="Background_circle"><g><g><g><circle cx="150" cy="150" r="150" style="fill:#fffefe;"/><path d="M150,0c82.787,0 150,67.213 150,150c0,82.787 -67.213,150 -150,150c-82.787,0 -150,-67.213 -150,-150c0,-82.787 67.213,-150 150,-150Zm0,16c73.957,0 134,60.043 134,134c0,73.957 -60.043,134 -134,134c-73.957,0 -134,-60.043 -134,-134c0,-73.957 60.043,-134 134,-134Z" style="fill:rgb(227,28,0);"/></g></g><g><path d="M121.633,139.421c-8.499,-7.728 -13.838,-18.872 -13.838,-31.253c0,-23.311 18.926,-42.237 42.237,-42.237c23.311,0 42.237,18.926 42.237,42.237c0,12.381 -5.339,23.525 -13.838,31.253c33.552,9.357 60.393,34.879 71.584,67.628l-199.966,0c11.191,-32.749 38.032,-58.271 71.584,-67.628Zm103.889,51.73c-16.229,-24.426 -43.993,-40.539 -75.49,-40.539c-31.497,0 -59.261,16.113 -75.491,40.539l150.981,0Zm-75.355,-55.598c15.053,-0.073 27.251,-12.316 27.251,-27.385c0,-15.115 -12.271,-27.387 -27.386,-27.387c-15.115,0 -27.386,12.272 -27.386,27.387c0,15.069 12.198,27.312 27.25,27.385l0.271,0Z" style="fill:rgb(227,28,0);"/></g></g></g></svg>