<?xml version="1.0" encoding="UTF-8" standalone="no"?><!DOCTYPE svg PUBLIC "-//W3C//DTD SVG 1.1//EN" "http://www.w3.org/Graphics/SVG/1.1/DTD/svg11.dtd"><svg width="100%" height="100%" viewBox="0 0 300 300" version="1.1" xmlns="http://www.w3.org/2000/svg" xmlns:xlink="http://www.w3.org/1999/xlink" xml:space="preserve" xmlns:serif="http://www.serif.com/" style="fill-rule:evenodd;clip-rule:evenodd;stroke-linejoin:round;stroke-miterlimit:2;"><g id="Background_circle"><g><g><circle cx="150" cy="150" r="150" style="fill:#fffefe;"/><path d="M150,0c82.787,0 150,67.213 150,150c0,82.787 -67.213,150 -150,150c-82.787,0 -150,-67.213 -150,-150c0,-82.787 67.213,-150 150,-150Zm0,16c73.957,0 134,60.043 134,134c0,73.957 -60.043,134 -134,134c-73.957,0 -134,-60.043 -134,-134c0,-73.957 60.043,-134 134,-134Z" style="fill:rgb(227,28,0);"/></g><g><path d="M142.878,140.952l-26.083,26.083l21.344,0.001l-16.4,16.328l-32.867,0l0.001,-32.799l16.421,-16.421l0,21.409l26.018,-26.018l11.566,11.418Zm47.932,10.533l26.019,26.019l-11.419,11.566l-26.083,-26.083l-0.001,21.344l-16.327,-16.399l0,-32.867l32.798,0l16.421,16.421l-21.409,0Zm-86.607,-42.278l-16.422,-16.422l21.409,0.001l-26.019,-26.019l11.418,-11.566l26.083,26.083l0.002,-21.343l16.327,16.399l0,32.867l-32.798,0Zm53.153,-5.78l26.083,-26.083l-21.344,-0.001l16.4,-16.328l32.867,0.001l0,32.798l-16.421,16.421l0,-21.409l-26.018,26.018l-11.566,-11.418Z" style="fill:rgb(227,28,0);"/></g><g><path d="M87.645,203.741l13.274,0l9.241,29.545l9.102,-29.545l12.883,0l-15.235,41.056l-13.751,0l-15.515,-41.056Z" style="fill:rgb(227,28,0);fill-rule:nonzero;"/><path d="M136.487,244.796l0,-41.056l21.143,0c3.922,0 6.918,0.337 8.99,1.007c2.072,0.674 3.746,1.921 5.015,3.739c1.269,1.821 1.903,4.04 1.903,6.653c0,2.276 -0.484,4.244 -1.455,5.893c-0.971,1.653 -2.305,2.993 -4.004,4.022c-1.086,0.652 -2.57,1.194 -4.456,1.624c1.513,0.502 2.617,1.007 3.305,1.513c0.466,0.333 1.144,1.054 2.033,2.154c0.885,1.101 1.477,1.95 1.778,2.549l6.133,11.901l-14.339,0l-6.779,-12.546c-0.86,-1.624 -1.624,-2.678 -2.298,-3.162c-0.914,-0.638 -1.95,-0.954 -3.108,-0.954l-1.118,0l0,16.662l-12.744,0Zm12.744,-24.419l5.348,0c0.577,0 1.699,-0.186 3.359,-0.559c0.842,-0.168 1.527,-0.599 2.061,-1.29c0.531,-0.688 0.796,-1.484 0.796,-2.38c0,-1.326 -0.419,-2.341 -1.258,-3.051c-0.842,-0.71 -2.42,-1.065 -4.735,-1.065l-5.571,0l0,8.345Z" style="fill:rgb(227,28,0);fill-rule:nonzero;"/><path d="M180.988,203.741l31.366,0l0,8.822l-18.623,0l0,7.169l15.905,0l0,8.291l-15.905,0l0,16.773l-12.744,0l0,-41.056Z" style="fill:rgb(227,28,0);fill-rule:nonzero;"/></g></g></g></svg>