<?xml version="1.0" encoding="UTF-8" standalone="no"?><!DOCTYPE svg PUBLIC "-//W3C//DTD SVG 1.1//EN" "http://www.w3.org/Graphics/SVG/1.1/DTD/svg11.dtd"><svg width="100%" height="100%" viewBox="0 0 300 300" version="1.1" xmlns="http://www.w3.org/2000/svg" xmlns:xlink="http://www.w3.org/1999/xlink" xml:space="preserve" xmlns:serif="http://www.serif.com/" style="fill-rule:evenodd;clip-rule:evenodd;stroke-linejoin:round;stroke-miterlimit:2;"><g id="Background_circle"><g><g><g><circle cx="150" cy="150" r="150" style="fill:#fffefe;"/><path d="M150,0c82.787,0 150,67.213 150,150c0,82.787 -67.213,150 -150,150c-82.787,0 -150,-67.213 -150,-150c0,-82.787 67.213,-150 150,-150Zm0,16c73.957,0 134,60.043 134,134c0,73.957 -60.043,134 -134,134c-73.957,0 -134,-60.043 -134,-134c0,-73.957 60.043,-134 134,-134Z" style="fill:rgb(227,28,0);"/></g></g><path d="M141.65,168.998c-7.299,-3.216 -12.399,-10.516 -12.399,-18.998c0,-11.452 9.297,-20.749 20.749,-20.749c11.452,0 20.749,9.297 20.749,20.749c0,8.482 -5.1,15.782 -12.399,18.998l0,80.966l-16.7,0l0,-80.966Zm-62.377,51.723c-18.756,-18.756 -29.294,-44.195 -29.294,-70.721c0,-26.526 10.538,-51.965 29.294,-70.721l8.41,8.41c-16.526,16.526 -25.81,38.94 -25.81,62.311c0,23.371 9.284,45.785 25.81,62.311l-8.41,8.41Zm141.448,0c18.756,-18.756 29.294,-44.195 29.294,-70.721c0,-26.526 -10.538,-51.965 -29.294,-70.721l-8.41,8.41c16.526,16.526 25.81,38.94 25.81,62.311c0,23.371 -9.284,45.785 -25.81,62.311l8.41,8.41Zm-123.286,-18.162c-13.94,-13.94 -21.771,-32.846 -21.771,-52.559c0,-19.713 7.831,-38.619 21.771,-52.559l8.23,8.23c-11.757,11.757 -18.362,27.702 -18.362,44.329c0,16.627 6.605,32.572 18.362,44.329l-8.23,8.23Zm105.124,0c13.94,-13.94 21.771,-32.846 21.771,-52.559c0,-19.713 -7.831,-38.619 -21.771,-52.559l-8.23,8.23c11.757,11.757 18.362,27.702 18.362,44.329c0,16.627 -6.605,32.572 -18.362,44.329l8.23,8.23Zm-87.942,-17.182c-9.383,-9.383 -14.654,-22.108 -14.654,-35.377c0,-13.269 5.271,-25.994 14.654,-35.377l8.209,8.209c-7.206,7.205 -11.254,16.978 -11.254,27.168c0,10.19 4.048,19.963 11.254,27.168l-8.209,8.209Zm70.76,0c9.383,-9.383 14.654,-22.108 14.654,-35.377c0,-13.269 -5.271,-25.994 -14.654,-35.377l-8.209,8.209c7.206,7.205 11.254,16.978 11.254,27.168c0,10.19 -4.048,19.963 -11.254,27.168l8.209,8.209Z" style="fill:rgb(227,28,0);"/></g></g></svg>