<?xml version="1.0" encoding="UTF-8" standalone="no"?><!DOCTYPE svg PUBLIC "-//W3C//DTD SVG 1.1//EN" "http://www.w3.org/Graphics/SVG/1.1/DTD/svg11.dtd"><svg width="100%" height="100%" viewBox="0 0 300 300" version="1.1" xmlns="http://www.w3.org/2000/svg" xmlns:xlink="http://www.w3.org/1999/xlink" xml:space="preserve" xmlns:serif="http://www.serif.com/" style="fill-rule:evenodd;clip-rule:evenodd;stroke-linejoin:round;stroke-miterlimit:2;"><g id="Background_circle"><g><g><circle cx="150" cy="150" r="143.279" style="fill:#fffefe;"/></g><path d="M150,0c82.787,0 150,67.213 150,150c0,82.787 -67.213,150 -150,150c-82.787,0 -150,-67.213 -150,-150c0,-82.787 67.213,-150 150,-150Zm0,16c73.957,0 134,60.043 134,134c0,73.957 -60.043,134 -134,134c-73.957,0 -134,-60.043 -134,-134c0,-73.957 60.043,-134 134,-134Z" style="fill:rgb(16,158,0);"/></g><g><path d="M188.949,242.634c0,-2.288 -0.305,-4.426 -0.87,-6.436l-71.244,0c1.642,-4.573 4.977,-8.316 9.048,-11.712c1.285,-1.072 2.641,-2.108 4.056,-3.115l47.717,0c-0.173,-0.148 -0.347,-0.296 -0.524,-0.443c-7.458,-6.222 -17.184,-11.3 -27.109,-16.31c-9.925,5.01 -19.651,10.089 -27.108,16.31c-6.929,5.78 -11.817,12.544 -11.817,21.705c0,4.091 -3.321,7.413 -7.413,7.413c-4.091,0 -7.413,-3.322 -7.413,-7.413c0,-13.816 6.696,-24.373 17.145,-33.09c5.842,-4.873 12.919,-9.163 20.449,-13.226c-7.529,-4.064 -14.607,-8.354 -20.449,-13.227c-10.449,-8.716 -17.145,-19.275 -17.145,-33.089c0,-13.816 6.697,-24.372 17.146,-33.086c5.84,-4.871 12.915,-9.156 20.441,-13.217c-7.526,-4.061 -14.601,-8.346 -20.441,-13.217c-10.449,-8.714 -17.146,-19.271 -17.146,-33.086c0,-4.091 3.322,-7.413 7.413,-7.413c4.092,0 7.413,3.322 7.413,7.413c0,9.16 4.887,15.922 11.816,21.7c7.458,6.22 17.183,11.295 27.109,16.304c9.927,-5.009 19.653,-10.084 27.11,-16.304c0.176,-0.146 0.35,-0.294 0.523,-0.441l-47.716,0c-1.417,-1.007 -2.773,-2.044 -4.06,-3.116c-4.07,-3.395 -7.405,-7.137 -9.047,-11.71l71.246,0c0.564,-2.01 0.869,-4.146 0.869,-6.432c0,-4.091 3.321,-7.413 7.413,-7.413c4.091,0 7.413,3.322 7.413,7.413c0,13.816 -6.697,24.372 -17.147,33.086c-5.84,4.871 -12.914,9.156 -20.44,13.217c7.526,4.061 14.6,8.346 20.44,13.217c10.45,8.714 17.147,19.271 17.147,33.086c0,13.815 -6.697,24.373 -17.146,33.089c-5.841,4.873 -12.919,9.163 -20.448,13.227c7.529,4.063 14.607,8.353 20.448,13.226c10.449,8.717 17.146,19.275 17.146,33.09c0,4.091 -3.322,7.413 -7.413,7.413c-4.092,0 -7.413,-3.322 -7.413,-7.413Zm-38.926,-130.636c-9.125,4.605 -18.08,9.265 -25.26,14.819l41.758,0c2.437,1.592 4.738,3.256 6.85,5.017c3.493,2.912 6.443,6.081 8.247,9.81l-69.018,0c-0.967,2.558 -1.503,5.326 -1.503,8.358c0,3.031 0.536,5.8 1.503,8.358l68.993,0c-1.807,3.709 -4.747,6.863 -8.225,9.764c-2.13,1.777 -4.454,3.456 -6.917,5.062l-41.696,0c7.182,5.559 16.14,10.224 25.266,14.831c9.925,-5.01 19.652,-10.089 27.109,-16.311c6.929,-5.78 11.817,-12.543 11.817,-21.704c0,-9.16 -4.887,-15.922 -11.816,-21.7c-7.458,-6.22 -17.183,-11.295 -27.11,-16.304Z" style="fill:rgb(16,158,0);"/></g></g></svg>