<?xml version="1.0" encoding="UTF-8" standalone="no"?><!DOCTYPE svg PUBLIC "-//W3C//DTD SVG 1.1//EN" "http://www.w3.org/Graphics/SVG/1.1/DTD/svg11.dtd"><svg width="100%" height="100%" viewBox="0 0 300 300" version="1.1" xmlns="http://www.w3.org/2000/svg" xmlns:xlink="http://www.w3.org/1999/xlink" xml:space="preserve" xmlns:serif="http://www.serif.com/" style="fill-rule:evenodd;clip-rule:evenodd;stroke-linejoin:round;stroke-miterlimit:2;"><g id="Background_circle"><g><g><g><circle cx="150" cy="150" r="150" style="fill:#fffefe;"/><path d="M150,0c82.787,0 150,67.213 150,150c0,82.787 -67.213,150 -150,150c-82.787,0 -150,-67.213 -150,-150c0,-82.787 67.213,-150 150,-150Zm0,16c73.957,0 134,60.043 134,134c0,73.957 -60.043,134 -134,134c-73.957,0 -134,-60.043 -134,-134c0,-73.957 60.043,-134 134,-134Z" style="fill:rgb(16,158,0);"/></g></g><g><g><path d="M213.684,77.016c0,-7.13 -5.788,-12.918 -12.919,-12.918l-101.531,0c-7.13,0 -12.919,5.788 -12.919,12.918l0,145.97c0,7.129 5.788,12.918 12.919,12.918l101.531,0c7.13,0 12.919,-5.789 12.919,-12.918l0,-145.97Z" style="fill:#fffefe;"/><path d="M200.932,64.099l0.167,0.002l0.166,0.006l0.166,0.007l0.164,0.01l0.164,0.011l0.164,0.014l0.163,0.015l0.162,0.017l0.162,0.019l0.162,0.022l0.16,0.024l0.16,0.025l0.159,0.027l0.158,0.03l0.158,0.031l0.158,0.033l0.157,0.036l0.155,0.037l0.155,0.039l0.154,0.041l0.154,0.042l0.153,0.045l0.152,0.046l0.152,0.048l0.15,0.05l0.15,0.052l0.148,0.054l0.149,0.055l0.146,0.057l0.146,0.058l0.145,0.061l0.144,0.062l0.144,0.064l0.143,0.065l0.141,0.068l0.141,0.069l0.139,0.07l0.139,0.072l0.139,0.074l0.136,0.076l0.136,0.077l0.267,0.158l0.132,0.082l0.132,0.084l0.13,0.085l0.13,0.086l0.129,0.088l0.126,0.089l0.126,0.09l0.126,0.093l0.124,0.093l0.122,0.095l0.242,0.195l0.118,0.1l0.118,0.101l0.232,0.206l0.115,0.105l0.112,0.105l0.112,0.108l0.219,0.22l0.107,0.111l0.107,0.113l0.104,0.113l0.104,0.116l0.102,0.117l0.101,0.118l0.099,0.119l0.098,0.12l0.097,0.121l0.096,0.123l0.093,0.124l0.093,0.125l0.09,0.126l0.089,0.127l0.088,0.128l0.087,0.129l0.085,0.131l0.083,0.132l0.082,0.133l0.08,0.133l0.079,0.135l0.076,0.135l0.076,0.137l0.074,0.137l0.071,0.139l0.071,0.14l0.069,0.141l0.132,0.284l0.064,0.143l0.062,0.145l0.06,0.144l0.06,0.147l0.056,0.147l0.056,0.149l0.053,0.148l0.051,0.15l0.05,0.15l0.048,0.151l0.047,0.152l0.087,0.307l0.041,0.155l0.039,0.155l0.037,0.156l0.034,0.157l0.033,0.157l0.032,0.158l0.029,0.158l0.028,0.159l0.025,0.16l0.023,0.16l0.022,0.162l0.019,0.162l0.018,0.163l0.015,0.164l0.014,0.163l0.011,0.165l0.009,0.165l0.008,0.165l0.005,0.166l0.004,0.166l0.001,0.167l0,145.97l-0.001,0.166l-0.004,0.167l-0.005,0.165l-0.008,0.166l-0.009,0.165l-0.011,0.164l-0.014,0.164l-0.015,0.163l-0.018,0.163l-0.019,0.162l-0.022,0.162l-0.023,0.16l-0.025,0.16l-0.028,0.159l-0.029,0.159l-0.032,0.157l-0.033,0.158l-0.034,0.156l-0.037,0.156l-0.039,0.156l-0.041,0.155l-0.043,0.153l-0.043,0.152l-0.047,0.152l-0.048,0.151l-0.05,0.15l-0.051,0.15l-0.053,0.149l-0.056,0.148l-0.056,0.147l-0.06,0.147l-0.06,0.145l-0.062,0.144l-0.064,0.143l-0.066,0.143l-0.066,0.141l-0.069,0.141l-0.071,0.14l-0.071,0.139l-0.074,0.139l-0.076,0.136l-0.076,0.135l-0.079,0.135l-0.08,0.134l-0.082,0.133l-0.083,0.132l-0.085,0.129l-0.087,0.129l-0.088,0.128l-0.089,0.128l-0.09,0.126l-0.093,0.125l-0.093,0.124l-0.096,0.123l-0.097,0.121l-0.098,0.12l-0.099,0.119l-0.101,0.118l-0.102,0.116l-0.104,0.116l-0.104,0.115l-0.214,0.224l-0.11,0.11l-0.11,0.109l-0.112,0.108l-0.112,0.107l-0.115,0.104l-0.116,0.104l-0.116,0.102l-0.118,0.101l-0.118,0.1l-0.121,0.099l-0.121,0.096l-0.122,0.095l-0.124,0.094l-0.252,0.183l-0.126,0.089l-0.129,0.087l-0.13,0.087l-0.13,0.085l-0.132,0.084l-0.132,0.081l-0.134,0.08l-0.134,0.078l-0.136,0.078l-0.136,0.076l-0.139,0.073l-0.139,0.072l-0.139,0.071l-0.141,0.069l-0.141,0.066l-0.143,0.066l-0.288,0.126l-0.145,0.06l-0.146,0.06l-0.146,0.057l-0.149,0.055l-0.148,0.053l-0.15,0.053l-0.15,0.049l-0.152,0.048l-0.152,0.047l-0.153,0.044l-0.154,0.044l-0.154,0.04l-0.155,0.039l-0.155,0.038l-0.157,0.034l-0.158,0.033l-0.158,0.032l-0.158,0.029l-0.159,0.027l-0.16,0.026l-0.16,0.023l-0.162,0.022l-0.162,0.019l-0.162,0.017l-0.163,0.016l-0.164,0.014l-0.164,0.011l-0.164,0.009l-0.166,0.007l-0.166,0.006l-0.167,0.003l-0.167,0.001l-101.531,0l-0.167,-0.001l-0.167,-0.003l-0.166,-0.006l-0.166,-0.007l-0.164,-0.009l-0.164,-0.011l-0.164,-0.014l-0.163,-0.016l-0.163,-0.017l-0.162,-0.019l-0.16,-0.022l-0.16,-0.023l-0.16,-0.026l-0.159,-0.027l-0.159,-0.029l-0.158,-0.032l-0.157,-0.033l-0.157,-0.034l-0.155,-0.038l-0.155,-0.039l-0.154,-0.04l-0.154,-0.044l-0.153,-0.044l-0.152,-0.047l-0.152,-0.048l-0.15,-0.049l-0.15,-0.053l-0.149,-0.053l-0.148,-0.055l-0.146,-0.057l-0.146,-0.06l-0.145,-0.06l-0.288,-0.126l-0.143,-0.066l-0.141,-0.066l-0.141,-0.069l-0.14,-0.071l-0.138,-0.072l-0.139,-0.073l-0.136,-0.076l-0.136,-0.078l-0.134,-0.078l-0.134,-0.08l-0.134,-0.081l-0.131,-0.084l-0.13,-0.085l-0.13,-0.087l-0.129,-0.087l-0.127,-0.089l-0.126,-0.092l-0.125,-0.092l-0.124,-0.094l-0.122,-0.095l-0.122,-0.096l-0.12,-0.099l-0.118,-0.1l-0.118,-0.101l-0.116,-0.102l-0.116,-0.104l-0.115,-0.104l-0.112,-0.107l-0.112,-0.108l-0.11,-0.109l-0.11,-0.11l-0.214,-0.224l-0.104,-0.115l-0.104,-0.116l-0.102,-0.116l-0.101,-0.118l-0.099,-0.119l-0.098,-0.12l-0.097,-0.121l-0.096,-0.123l-0.093,-0.124l-0.093,-0.125l-0.09,-0.126l-0.089,-0.128l-0.088,-0.128l-0.087,-0.129l-0.085,-0.129l-0.083,-0.132l-0.082,-0.133l-0.08,-0.134l-0.079,-0.135l-0.076,-0.135l-0.076,-0.136l-0.074,-0.139l-0.071,-0.139l-0.071,-0.14l-0.069,-0.141l-0.067,-0.141l-0.065,-0.143l-0.064,-0.143l-0.062,-0.144l-0.061,-0.145l-0.059,-0.147l-0.056,-0.147l-0.056,-0.148l-0.053,-0.149l-0.102,-0.3l-0.047,-0.151l-0.047,-0.152l-0.045,-0.152l-0.042,-0.153l-0.041,-0.155l-0.039,-0.156l-0.037,-0.156l-0.034,-0.156l-0.033,-0.158l-0.032,-0.157l-0.029,-0.159l-0.028,-0.159l-0.025,-0.16l-0.023,-0.16l-0.022,-0.162l-0.019,-0.162l-0.018,-0.163l-0.015,-0.163l-0.014,-0.164l-0.011,-0.164l-0.009,-0.165l-0.008,-0.166l-0.005,-0.165l-0.004,-0.167l-0.001,-0.166l0,-145.97l0.001,-0.167l0.004,-0.166l0.005,-0.166l0.008,-0.165l0.009,-0.165l0.011,-0.165l0.014,-0.163l0.015,-0.164l0.018,-0.163l0.019,-0.162l0.022,-0.162l0.023,-0.16l0.025,-0.16l0.028,-0.159l0.029,-0.158l0.032,-0.158l0.033,-0.157l0.034,-0.157l0.037,-0.156l0.039,-0.155l0.041,-0.155l0.042,-0.153l0.045,-0.153l0.047,-0.152l0.047,-0.151l0.102,-0.3l0.053,-0.148l0.056,-0.149l0.056,-0.147l0.059,-0.147l0.061,-0.144l0.062,-0.145l0.064,-0.143l0.065,-0.142l0.067,-0.142l0.069,-0.141l0.071,-0.14l0.071,-0.139l0.074,-0.137l0.076,-0.137l0.076,-0.135l0.079,-0.135l0.08,-0.133l0.082,-0.133l0.083,-0.132l0.085,-0.131l0.087,-0.129l0.088,-0.128l0.089,-0.127l0.09,-0.126l0.093,-0.125l0.093,-0.124l0.096,-0.123l0.097,-0.121l0.098,-0.12l0.099,-0.119l0.101,-0.118l0.102,-0.117l0.104,-0.116l0.104,-0.113l0.107,-0.113l0.107,-0.111l0.219,-0.22l0.112,-0.108l0.112,-0.105l0.115,-0.105l0.232,-0.206l0.118,-0.101l0.118,-0.1l0.12,-0.097l0.122,-0.097l0.122,-0.095l0.124,-0.093l0.125,-0.093l0.126,-0.09l0.127,-0.089l0.129,-0.088l0.13,-0.086l0.13,-0.085l0.131,-0.084l0.134,-0.082l0.267,-0.158l0.136,-0.077l0.136,-0.076l0.139,-0.074l0.138,-0.072l0.14,-0.07l0.141,-0.069l0.141,-0.068l0.143,-0.065l0.144,-0.064l0.144,-0.062l0.145,-0.061l0.146,-0.058l0.146,-0.057l0.148,-0.055l0.149,-0.054l0.15,-0.052l0.15,-0.05l0.152,-0.048l0.152,-0.046l0.153,-0.045l0.154,-0.042l0.154,-0.041l0.155,-0.039l0.155,-0.037l0.157,-0.036l0.157,-0.033l0.158,-0.031l0.159,-0.03l0.159,-0.027l0.16,-0.025l0.16,-0.024l0.16,-0.022l0.162,-0.019l0.163,-0.017l0.163,-0.015l0.164,-0.014l0.164,-0.011l0.164,-0.01l0.166,-0.007l0.166,-0.006l0.167,-0.002l0.167,-0.001l101.531,0l0.167,0.001Zm-98.616,15.999l0,139.805l95.368,0l0,-139.805l-95.368,-0Z" style="fill:rgb(16,158,0);"/></g><g><circle cx="150" cy="227.862" r="5" style="fill:#fff;"/></g></g></g></g></svg>